SplineFontDB: 3.2
FontName: OMORI_GAME2
FullName: OMORI_GAME2
FamilyName: OMORI_GAME2
Weight: Book
Copyright: OMORI (c) OMOCAT, LLC
Version: 2.9 1/8/13
ItalicAngle: 0
UnderlinePosition: -150
UnderlineWidth: 100
Ascent: 768
Descent: 256
InvalidEm: 0
sfntRevision: 0x0002e666
LayerCount: 2
Layer: 0 1 "Arri+AOgA-re" 1
Layer: 1 1 "Avant" 0
XUID: [1021 181 458779533 23221]
StyleMap: 0x0040
FSType: 0
OS2Version: 1
OS2_WeightWidthSlopeOnly: 0
OS2_UseTypoMetrics: 0
CreationTime: 1375385574
ModificationTime: 1678138942
PfmFamily: 81
TTFWeight: 400
TTFWidth: 5
LineGap: 128
VLineGap: 0
Panose: 0 0 4 0 0 0 0 0 0 0
OS2TypoAscent: 768
OS2TypoAOffset: 0
OS2TypoDescent: -256
OS2TypoDOffset: 0
OS2TypoLinegap: 0
OS2WinAscent: 735
OS2WinAOffset: 0
OS2WinDescent: 252
OS2WinDOffset: 0
HheadAscent: 768
HheadAOffset: 0
HheadDescent: -256
HheadDOffset: 0
OS2SubXSize: 700
OS2SubYSize: 650
OS2SubXOff: 0
OS2SubYOff: 143
OS2SupXSize: 700
OS2SupYSize: 650
OS2SupXOff: 0
OS2SupYOff: 453
OS2StrikeYSize: 50
OS2StrikeYPos: 259
OS2Vendor: 'Alts'
OS2CodePages: 00000001.00000000
OS2UnicodeRanges: 00000000.00000000.00000000.00000000
MarkAttachClasses: 1
DEI: 91125
TtTable: prep
PUSHW_1
 511
SCANCTRL
PUSHB_1
 1
SCANTYPE
SVTCA[y-axis]
MPPEM
PUSHB_1
 8
LT
IF
PUSHB_2
 1
 1
INSTCTRL
EIF
PUSHB_2
 70
 6
CALL
IF
POP
PUSHB_1
 16
EIF
MPPEM
PUSHB_1
 20
GT
IF
POP
PUSHB_1
 128
EIF
SCVTCI
PUSHB_1
 6
CALL
NOT
IF
EIF
PUSHB_1
 20
CALL
EndTTInstrs
TtTable: fpgm
PUSHB_1
 0
FDEF
PUSHB_1
 0
SZP0
MPPEM
PUSHB_1
 42
LT
IF
PUSHB_1
 74
SROUND
EIF
PUSHB_1
 0
SWAP
MIAP[rnd]
RTG
PUSHB_1
 6
CALL
IF
RTDG
EIF
MPPEM
PUSHB_1
 42
LT
IF
RDTG
EIF
DUP
MDRP[rp0,rnd,grey]
PUSHB_1
 1
SZP0
MDAP[no-rnd]
RTG
ENDF
PUSHB_1
 1
FDEF
DUP
MDRP[rp0,min,white]
PUSHB_1
 12
CALL
ENDF
PUSHB_1
 2
FDEF
MPPEM
GT
IF
RCVT
SWAP
EIF
POP
ENDF
PUSHB_1
 3
FDEF
ROUND[Black]
RTG
DUP
PUSHB_1
 64
LT
IF
POP
PUSHB_1
 64
EIF
ENDF
PUSHB_1
 4
FDEF
PUSHB_1
 6
CALL
IF
POP
SWAP
POP
ROFF
IF
MDRP[rp0,min,rnd,black]
ELSE
MDRP[min,rnd,black]
EIF
ELSE
MPPEM
GT
IF
IF

StartChar: exclam
Encoding: 260 33 4
Width: 127
GlyphClass: 2
Flags: W
LayerCount: 2
Fore
SplineSet
73 42 m 1,0,-1
 58 47 l 1,1,-1
 53 62 l 1,2,-1
 53 83 l 1,3,-1
 58 99 l 1,4,-1
 73 105 l 1,5,-1
 89 99 l 1,6,-1
 95 83 l 1,7,-1
 95 62 l 1,8,-1
 89 47 l 1,9,-1
 73 42 l 1,0,-1
52 252 m 1,10,-1
 37 257 l 1,11,-1
 32 272 l 1,12,-1
 32 629 l 1,13,-1
 37 645 l 1,14,-1
 52 651 l 1,15,-1
 68 645 l 1,16,-1
 74 629 l 1,17,-1
 74 272 l 1,18,-1
 68 257 l 1,19,-1
 52 252 l 1,10,-1
EndSplineSet
Validated: 1
EndChar

StartChar: quotedbl
Encoding: 261 34 5
Width: 211
GlyphClass: 2
Flags: W
LayerCount: 2
Fore
SplineSet
163 456 m 1,0,-1
 152 446 l 1,1,-1
 136 441 l 1,2,-1
 121 446 l 1,3,-1
 116 461 l 1,4,-1
 116 482 l 1,5,-1
 121 498 l 1,6,-1
 131 509 l 1,7,-1
 137 524 l 1,8,-1
 142 540 l 1,9,-1
 157 546 l 1,10,-1
 173 540 l 1,11,-1
 179 524 l 1,12,-1
 179 482 l 1,13,-1
 173 467 l 1,14,-1
 163 456 l 1,0,-1
79 498 m 1,15,-1
 74 482 l 1,16,-1
 68 467 l 1,17,-1
 52 462 l 1,18,-1
 37 467 l 1,19,-1
 32 482 l 1,20,-1
 32 545 l 1,21,-1
 37 561 l 1,22,-1
 47 572 l 1,23,-1
 53 587 l 1,24,-1
 58 603 l 1,25,-1
 73 609 l 1,26,-1
 89 603 l 1,27,-1
 95 587 l 1,28,-1
 95 524 l 1,29,-1
 89 509 l 1,30,-1
 79 498 l 1,15,-1
EndSplineSet
Validated: 1
EndChar

StartChar: numbersign
Encoding: 262 35 6
Width: 694
GlyphClass: 2
Flags: W
LayerCount: 2
Fore
SplineSet
640 399 m 1,0,-1
 430 399 l 1,1,-1
 415 393 l 1,2,-1
 410 377 l 1,3,-1
 410 335 l 1,4,-1
 415 320 l 1,5,-1
 430 315 l 1,6,-1
 577 315 l 1,7,-1
 593 309 l 1,8,-1
 599 293 l 1,9,-1
 599 272 l 1,10,-1
 593 257 l 1,11,-1
 577 252 l 1,12,-1
 430 252 l 1,13,-1
 415 246 l 1,14,-1
 410 230 l 1,15,-1
 410 104 l 1,16,-1
 404 89 l 1,17,-1
 394 78 l 1,18,-1
 389 62 l 1,19,-1
 389 20 l 1,20,-1
 383 5 l 1,21,-1
 373 -6 l 1,22,-1
 362 -16 l 1,23,-1
 346 -21 l 1,24,-1
 331 -16 l 1,25,-1
 326 -1 l 1,26,-1
 326 20 l 1,27,-1
 331 36 l 1,28,-1
 341 47 l 1,29,-1
 347 62 l 1,30,-1
 347 104 l 1,31,-1
 352 120 l 1,32,-1
 362 131 l 1,33,-1
 368 146 l 1,34,-1
 368 209 l 1,35,-1
 362 225 l 1,36,-1
 346 231 l 1,37,-1
 283 231 l 1,38,-1
 268 225 l 1,39,-1
 257 215 l 1,40,-1
 241 210 l 1,41,-1
 226 204 l 1,42,-1
 221 188 l 1,43,-1
 221 20 l 1,44,-1
 215 5 l 1,45,-1
 205 -6 l 1,46,-1
 200 -22 l 1,47,-1
 200 -43 l 1,48,-1
 194 -58 l 1,49,-1
 178 -63 l 1,50,-1
 163 -58 l 1,51,-1
 158 -43 l 1,52,-1
 158 20 l 1,53,-1
 163 36 l 1,54,-1
 173 47 l 1,55,-1
 179 62 l 1,56,-1
 179 167 l 1,57,-1
 173 183 l 1,58,-1
 157 189 l 1,59,-1
 52 189 l 1,60,-1
 37 194 l 1,61,-1
 32 209 l 1,62,-1
 32 230 l 1,63,-1
 37 246 l 1,64,-1
 52 252 l 1,65,-1
 157 252 l 1,66,-1
 173 257 l 1,67,-1
 179 272 l 1,68,-1
 179 314 l 1,69,-1
 173 330 l 1,70,-1
 157 336 l 1,71,-1
 136 336 l 1,72,-1
 121 341 l 1,73,-1
 116 356 l 1,74,-1
 116 377 l 1,75,-1
 121 393 l 1,76,-1
 131 404 l 1,77,-1
 142 414 l 1,78,-1
 157 420 l 1,79,-1
 173 425 l 1,80,-1
 179 440 l 1,81,-1
 179 461 l 1,82,-1
 184 477 l 1,83,-1
 194 488 l 1,84,-1
 200 503 l 1,85,-1
 200 608 l 1,86,-1
 205 624 l 1,87,-1
 215 635 l 1,88,-1
 226 645 l 1,89,-1
 241 651 l 1,90,-1
 257 645 l 1,91,-1
 263 629 l 1,92,-1
 263 587 l 1,93,-1
 257 572 l 1,94,-1
 247 561 l 1,95,-1
 242 545 l 1,96,-1
 242 461 l 1,97,-1
 247 446 l 1,98,-1
 257 446 l 1,99,-1
 268 456 l 1,100,-1
 283 462 l 1,101,-1
 346 462 l 1,102,-1
 362 467 l 1,103,-1
 368 482 l 1,104,-1
 368 608 l 1,105,-1
 373 624 l 1,106,-1
 383 635 l 1,107,-1
 389 650 l 1,108,-1
 389 692 l 1,109,-1
 394 708 l 1,110,-1
 409 714 l 1,111,-1
 430 714 l 1,112,-1
 446 708 l 1,113,-1
 452 692 l 1,114,-1
 452 671 l 1,115,-1
 446 656 l 1,116,-1
 436 645 l 1,117,-1
 431 629 l 1,118,-1
 431 608 l 1,119,-1
 425 593 l 1,120,-1
 415 582 l 1,121,-1
 410 566 l 1,122,-1
 410 482 l 1,123,-1
 415 467 l 1,124,-1
 430 462 l 1,125,-1
 640 462 l 1,126,-1
 656 456 l 1,127,-1
 662 440 l 1,128,-1
 662 419 l 1,129,-1
 656 404 l 1,130,-1
 640 399 l 1,0,-1
368 314 m 1,131,-1
 368 377 l 1,132,-1
 362 393 l 1,133,-1
 346 399 l 1,134,-1
 304 399 l 1,135,-1
 289 393 l 1,136,-1
 278 383 l 1,137,-1
 262 378 l 1,138,-1
 247 372 l 1,139,-1
 236 362 l 1,140,-1
 226 351 l 1,141,-1
 221 335 l 1,142,-1
 221 293 l 1,143,-1
 226 278 l 1,144,-1
 236 278 l 1,145,-1
 247 288 l 1,146,-1
 262 294 l 1,147,-1
 346 294 l 1,148,-1
 362 299 l 1,149,-1
 368 314 l 1,131,-1
EndSplineSet
Validated: 1
EndChar

StartChar: dollar
Encoding: 263 36 7
Width: 547
GlyphClass: 2
Flags: W
LayerCount: 2
Fore
SplineSet
499 183 m 1,0,-1
 488 173 l 1,1,-1
 478 162 l 1,2,-1
 467 152 l 1,3,-1
 457 141 l 1,4,-1
 446 131 l 1,5,-1
 436 120 l 1,6,-1
 425 110 l 1,7,-1
 409 105 l 1,8,-1
 388 105 l 1,9,-1
 373 99 l 1,10,-1
 362 89 l 1,11,-1
 346 84 l 1,12,-1
 325 84 l 1,13,-1
 310 78 l 1,14,-1
 305 62 l 1,15,-1
 299 47 l 1,16,-1
 283 42 l 1,17,-1
 268 47 l 1,18,-1
 263 62 l 1,19,-1
 257 78 l 1,20,-1
 241 84 l 1,21,-1
 73 84 l 1,22,-1
 58 89 l 1,23,-1
 47 99 l 1,24,-1
 37 110 l 1,25,-1
 32 125 l 1,26,-1
 32 188 l 1,27,-1
 37 204 l 1,28,-1
 52 210 l 1,29,-1
 68 204 l 1,30,-1
 74 188 l 1,31,-1
 79 173 l 1,32,-1
 89 162 l 1,33,-1
 100 152 l 1,34,-1
 115 147 l 1,35,-1
 199 147 l 1,36,-1
 215 152 l 1,37,-1
 221 167 l 1,38,-1
 221 314 l 1,39,-1
 215 330 l 1,40,-1
 205 341 l 1,41,-1
 194 351 l 1,42,-1
 184 362 l 1,43,-1
 179 377 l 1,44,-1
 179 398 l 1,45,-1
 173 414 l 1,46,-1
 163 425 l 1,47,-1
 152 435 l 1,48,-1
 142 446 l 1,49,-1
 131 456 l 1,50,-1
 121 467 l 1,51,-1
 110 477 l 1,52,-1
 100 488 l 1,53,-1
 95 503 l 1,54,-1
 95 524 l 1,55,-1
 100 540 l 1,56,-1
 110 551 l 1,57,-1
 121 561 l 1,58,-1
 136 567 l 1,59,-1
 152 572 l 1,60,-1
 163 582 l 1,61,-1
 173 593 l 1,62,-1
 173 603 l 1,63,-1
 163 614 l 1,64,-1
 158 629 l 1,65,-1
 158 713 l 1,66,-1
 163 729 l 1,67,-1
 178 735 l 1,68,-1
 194 729 l 1,69,-1
 200 713 l 1,70,-1
 200 671 l 1,71,-1
 205 656 l 1,72,-1
 215 645 l 1,73,-1
 221 629 l 1,74,-1
 221 608 l 1,75,-1
 226 593 l 1,76,-1
 241 588 l 1,77,-1
 304 588 l 1,78,-1
 320 582 l 1,79,-1
 326 566 l 1,80,-1
 326 545 l 1,81,-1
 320 530 l 1,82,-1
 304 525 l 1,83,-1
 262 525 l 1,84,-1
 247 519 l 1,85,-1
 242 503 l 1,86,-1
 242 482 l 1,87,-1
 247 467 l 1,88,-1
 257 456 l 1,89,-1
 263 440 l 1,90,-1
 263 398 l 1,91,-1
 268 383 l 1,92,-1
 283 378 l 1,93,-1
 299 372 l 1,94,-1
 310 362 l 1,95,-1
 325 357 l 1,96,-1
 346 357 l 1,97,-1
 362 351 l 1,98,-1
 373 341 l 1,99,-1
 388 336 l 1,100,-1
 404 330 l 1,101,-1
 415 320 l 1,102,-1
 430 315 l 1,103,-1
 451 315 l 1,104,-1
 467 309 l 1,105,-1
 478 299 l 1,106,-1
 493 294 l 1,107,-1
 509 288 l 1,108,-1
 515 272 l 1,109,-1
 515 209 l 1,110,-1
 509 194 l 1,111,-1
 499 183 l 1,0,-1
452 230 m 1,112,-1
 446 246 l 1,113,-1
 430 252 l 1,114,-1
 409 252 l 1,115,-1
 394 257 l 1,116,-1
 383 267 l 1,117,-1
 367 273 l 1,118,-1
 352 278 l 1,119,-1
 341 288 l 1,120,-1
 325 294 l 1,121,-1
 304 294 l 1,122,-1
 289 299 l 1,123,-1
 278 309 l 1,124,-1
 268 309 l 1,125,-1
 263 293 l 1,126,-1
 263 230 l 1,127,-1
 268 215 l 1,128,-1
 283 210 l 1,129,-1
 304 210 l 1,130,-1
 320 204 l 1,131,-1
 326 188 l 1,132,-1
 326 167 l 1,133,-1
 331 152 l 1,134,-1
 341 152 l 1,135,-1
 352 162 l 1,136,-1
 367 168 l 1,137,-1
 388 168 l 1,138,-1
 404 173 l 1,139,-1
 415 183 l 1,140,-1
 425 194 l 1,141,-1
 436 204 l 1,142,-1
 446 215 l 1,143,-1
 452 230 l 1,112,-1
EndSplineSet
Validated: 1
EndChar

StartChar: percent
Encoding: 264 37 8
Width: 400
GlyphClass: 2
Flags: W
LayerCount: 2
Fore
SplineSet
346 105 m 1,0,-1
 283 105 l 1,1,-1
 268 110 l 1,2,-1
 263 125 l 1,3,-1
 263 188 l 1,4,-1
 268 204 l 1,5,-1
 278 215 l 1,6,-1
 284 230 l 1,7,-1
 284 251 l 1,8,-1
 289 267 l 1,9,-1
 304 273 l 1,10,-1
 320 267 l 1,11,-1
 326 251 l 1,12,-1
 331 236 l 1,13,-1
 346 231 l 1,14,-1
 362 225 l 1,15,-1
 368 209 l 1,16,-1
 368 125 l 1,17,-1
 362 110 l 1,18,-1
 346 105 l 1,0,-1
331 477 m 1,19,-1
 326 461 l 1,20,-1
 320 446 l 1,21,-1
 310 435 l 1,22,-1
 299 425 l 1,23,-1
 289 414 l 1,24,-1
 284 398 l 1,25,-1
 278 383 l 1,26,-1
 268 372 l 1,27,-1
 257 362 l 1,28,-1
 247 351 l 1,29,-1
 236 341 l 1,30,-1
 226 330 l 1,31,-1
 221 314 l 1,32,-1
 215 299 l 1,33,-1
 205 288 l 1,34,-1
 194 278 l 1,35,-1
 184 267 l 1,36,-1
 173 257 l 1,37,-1
 163 246 l 1,38,-1
 158 230 l 1,39,-1
 152 215 l 1,40,-1
 142 204 l 1,41,-1
 137 188 l 1,42,-1
 131 173 l 1,43,-1
 121 162 l 1,44,-1
 110 152 l 1,45,-1
 100 141 l 1,46,-1
 95 125 l 1,47,-1
 89 110 l 1,48,-1
 73 105 l 1,49,-1
 58 110 l 1,50,-1
 53 125 l 1,51,-1
 53 167 l 1,52,-1
 58 183 l 1,53,-1
 68 194 l 1,54,-1
 79 204 l 1,55,-1
 89 215 l 1,56,-1
 95 230 l 1,57,-1
 100 246 l 1,58,-1
 110 257 l 1,59,-1
 116 272 l 1,60,-1
 121 288 l 1,61,-1
 131 299 l 1,62,-1
 142 309 l 1,63,-1
 152 320 l 1,64,-1
 163 330 l 1,65,-1
 173 341 l 1,66,-1
 173 351 l 1,67,-1
 157 357 l 1,68,-1
 136 357 l 1,69,-1
 121 362 l 1,70,-1
 110 372 l 1,71,-1
 94 378 l 1,72,-1
 79 383 l 1,73,-1
 68 393 l 1,74,-1
 58 404 l 1,75,-1
 47 414 l 1,76,-1
 37 425 l 1,77,-1
 32 440 l 1,78,-1
 32 524 l 1,79,-1
 37 540 l 1,80,-1
 52 546 l 1,81,-1
 157 546 l 1,82,-1
 173 540 l 1,83,-1
 184 530 l 1,84,-1
 194 519 l 1,85,-1
 200 503 l 1,86,-1
 200 419 l 1,87,-1
 205 404 l 1,88,-1
 215 404 l 1,89,-1
 226 414 l 1,90,-1
 236 425 l 1,91,-1
 242 440 l 1,92,-1
 247 456 l 1,93,-1
 257 467 l 1,94,-1
 268 477 l 1,95,-1
 278 488 l 1,96,-1
 284 503 l 1,97,-1
 289 519 l 1,98,-1
 299 530 l 1,99,-1
 310 540 l 1,100,-1
 325 546 l 1,101,-1
 341 540 l 1,102,-1
 347 524 l 1,103,-1
 347 503 l 1,104,-1
 341 488 l 1,105,-1
 331 477 l 1,19,-1
158 461 m 1,106,-1
 152 477 l 1,107,-1
 136 483 l 1,108,-1
 94 483 l 1,109,-1
 79 477 l 1,110,-1
 79 467 l 1,111,-1
 89 456 l 1,112,-1
 100 446 l 1,113,-1
 115 441 l 1,114,-1
 136 441 l 1,115,-1
 152 446 l 1,116,-1
 158 461 l 1,106,-1
EndSplineSet
Validated: 1
EndChar

StartChar: ampersand
Encoding: 265 38 9
Width: 442
GlyphClass: 2
Flags: W
LayerCount: 2
Fore
SplineSet
394 204 m 1,0,-1
 383 194 l 1,1,-1
 367 189 l 1,2,-1
 352 183 l 1,3,-1
 341 173 l 1,4,-1
 325 168 l 1,5,-1
 310 162 l 1,6,-1
 305 146 l 1,7,-1
 310 131 l 1,8,-1
 320 120 l 1,9,-1
 331 110 l 1,10,-1
 341 99 l 1,11,-1
 352 89 l 1,12,-1
 362 78 l 1,13,-1
 368 62 l 1,14,-1
 368 20 l 1,15,-1
 362 5 l 1,16,-1
 346 0 l 1,17,-1
 331 5 l 1,18,-1
 320 15 l 1,19,-1
 310 26 l 1,20,-1
 305 41 l 1,21,-1
 299 57 l 1,22,-1
 283 63 l 1,23,-1
 268 68 l 1,24,-1
 263 83 l 1,25,-1
 257 99 l 1,26,-1
 241 105 l 1,27,-1
 226 99 l 1,28,-1
 215 89 l 1,29,-1
 205 78 l 1,30,-1
 194 68 l 1,31,-1
 178 63 l 1,32,-1
 73 63 l 1,33,-1
 58 68 l 1,34,-1
 47 78 l 1,35,-1
 37 89 l 1,36,-1
 32 104 l 1,37,-1
 32 167 l 1,38,-1
 37 183 l 1,39,-1
 47 194 l 1,40,-1
 53 209 l 1,41,-1
 58 225 l 1,42,-1
 68 236 l 1,43,-1
 74 251 l 1,44,-1
 74 272 l 1,45,-1
 79 288 l 1,46,-1
 89 299 l 1,47,-1
 95 314 l 1,48,-1
 95 335 l 1,49,-1
 100 351 l 1,50,-1
 110 362 l 1,51,-1
 116 377 l 1,52,-1
 116 440 l 1,53,-1
 110 456 l 1,54,-1
 100 467 l 1,55,-1
 95 482 l 1,56,-1
 95 545 l 1,57,-1
 89 561 l 1,58,-1
 79 572 l 1,59,-1
 74 587 l 1,60,-1
 74 650 l 1,61,-1
 79 666 l 1,62,-1
 94 672 l 1,63,-1
 157 672 l 1,64,-1
 173 677 l 1,65,-1
 184 687 l 1,66,-1
 199 693 l 1,67,-1
 241 693 l 1,68,-1
 257 687 l 1,69,-1
 263 671 l 1,70,-1
 268 656 l 1,71,-1
 278 645 l 1,72,-1
 284 629 l 1,73,-1
 284 503 l 1,74,-1
 278 488 l 1,75,-1
 268 477 l 1,76,-1
 257 467 l 1,77,-1
 247 456 l 1,78,-1
 236 446 l 1,79,-1
 226 435 l 1,80,-1
 215 425 l 1,81,-1
 205 414 l 1,82,-1
 194 404 l 1,83,-1
 184 393 l 1,84,-1
 179 377 l 1,85,-1
 184 362 l 1,86,-1
 194 351 l 1,87,-1
 205 341 l 1,88,-1
 215 330 l 1,89,-1
 221 314 l 1,90,-1
 221 293 l 1,91,-1
 226 278 l 1,92,-1
 236 267 l 1,93,-1
 247 257 l 1,94,-1
 257 246 l 1,95,-1
 263 230 l 1,96,-1
 268 215 l 1,97,-1
 278 215 l 1,98,-1
 289 225 l 1,99,-1
 304 231 l 1,100,-1
 320 236 l 1,101,-1
 331 246 l 1,102,-1
 341 257 l 1,103,-1
 352 267 l 1,104,-1
 367 273 l 1,105,-1
 388 273 l 1,106,-1
 404 267 l 1,107,-1
 410 251 l 1,108,-1
 410 230 l 1,109,-1
 404 215 l 1,110,-1
 394 204 l 1,0,-1
242 566 m 1,111,-1
 242 587 l 1,112,-1
 236 603 l 1,113,-1
 226 614 l 1,114,-1
 215 624 l 1,115,-1
 205 624 l 1,116,-1
 194 614 l 1,117,-1
 184 603 l 1,118,-1
 173 593 l 1,119,-1
 163 582 l 1,120,-1
 158 566 l 1,121,-1
 152 551 l 1,122,-1
 142 540 l 1,123,-1
 137 524 l 1,124,-1
 142 509 l 1,125,-1
 152 498 l 1,126,-1
 163 488 l 1,127,-1
 173 488 l 1,128,-1
 184 498 l 1,129,-1
 194 509 l 1,130,-1
 205 519 l 1,131,-1
 215 530 l 1,132,-1
 226 540 l 1,133,-1
 236 551 l 1,134,-1
 242 566 l 1,111,-1
221 188 m 1,135,-1
 215 204 l 1,136,-1
 205 215 l 1,137,-1
 194 225 l 1,138,-1
 184 236 l 1,139,-1
 179 251 l 1,140,-1
 179 272 l 1,141,-1
 173 288 l 1,142,-1
 163 299 l 1,143,-1
 152 309 l 1,144,-1
 142 309 l 1,145,-1
 137 293 l 1,146,-1
 137 251 l 1,147,-1
 131 236 l 1,148,-1
 121 225 l 1,149,-1
 116 209 l 1,150,-1
 116 188 l 1,151,-1
 110 173 l 1,152,-1
 100 162 l 1,153,-1
 89 152 l 1,154,-1
 79 141 l 1,155,-1
 79 131 l 1,156,-1
 94 126 l 1,157,-1
 136 126 l 1,158,-1
 152 131 l 1,159,-1
 163 141 l 1,160,-1
 178 147 l 1,161,-1
 194 152 l 1,162,-1
 205 162 l 1,163,-1
 215 173 l 1,164,-1
 221 188 l 1,135,-1
EndSplineSet
Validated: 1
EndChar

StartChar: quotesingle
Encoding: 266 39 10
Width: 106
GlyphClass: 2
Flags: W
LayerCount: 2
Fore
SplineSet
52 504 m 1,0,-1
 37 509 l 1,1,-1
 32 524 l 1,2,-1
 32 629 l 1,3,-1
 37 645 l 1,4,-1
 52 651 l 1,5,-1
 68 645 l 1,6,-1
 74 629 l 1,7,-1
 74 524 l 1,8,-1
 68 509 l 1,9,-1
 52 504 l 1,0,-1
EndSplineSet
Validated: 1
EndChar

StartChar: parenleft
Encoding: 267 40 11
Width: 253
GlyphClass: 2
Flags: W
LayerCount: 2
Fore
SplineSet
199 -63 m 1,0,-1
 178 -63 l 1,1,-1
 163 -58 l 1,2,-1
 158 -43 l 1,3,-1
 152 -27 l 1,4,-1
 136 -21 l 1,5,-1
 121 -16 l 1,6,-1
 110 -6 l 1,7,-1
 100 5 l 1,8,-1
 89 15 l 1,9,-1
 79 26 l 1,10,-1
 74 41 l 1,11,-1
 68 57 l 1,12,-1
 58 68 l 1,13,-1
 53 83 l 1,14,-1
 47 99 l 1,15,-1
 37 110 l 1,16,-1
 32 125 l 1,17,-1
 32 377 l 1,18,-1
 37 393 l 1,19,-1
 47 404 l 1,20,-1
 53 419 l 1,21,-1
 53 440 l 1,22,-1
 58 456 l 1,23,-1
 68 467 l 1,24,-1
 74 482 l 1,25,-1
 79 498 l 1,26,-1
 89 509 l 1,27,-1
 95 524 l 1,28,-1
 100 540 l 1,29,-1
 110 551 l 1,30,-1
 121 561 l 1,31,-1
 131 572 l 1,32,-1
 142 582 l 1,33,-1
 152 593 l 1,34,-1
 163 603 l 1,35,-1
 178 609 l 1,36,-1
 194 603 l 1,37,-1
 200 587 l 1,38,-1
 200 545 l 1,39,-1
 194 530 l 1,40,-1
 184 519 l 1,41,-1
 173 509 l 1,42,-1
 163 498 l 1,43,-1
 152 488 l 1,44,-1
 142 477 l 1,45,-1
 131 467 l 1,46,-1
 121 456 l 1,47,-1
 116 440 l 1,48,-1
 110 425 l 1,49,-1
 100 414 l 1,50,-1
 95 398 l 1,51,-1
 95 377 l 1,52,-1
 89 362 l 1,53,-1
 79 351 l 1,54,-1
 74 335 l 1,55,-1
 74 167 l 1,56,-1
 79 152 l 1,57,-1
 89 141 l 1,58,-1
 95 125 l 1,59,-1
 100 110 l 1,60,-1
 110 99 l 1,61,-1
 121 89 l 1,62,-1
 131 78 l 1,63,-1
 142 68 l 1,64,-1
 152 57 l 1,65,-1
 163 47 l 1,66,-1
 173 36 l 1,67,-1
 184 26 l 1,68,-1
 194 15 l 1,69,-1
 205 5 l 1,70,-1
 215 -6 l 1,71,-1
 221 -22 l 1,72,-1
 221 -43 l 1,73,-1
 215 -58 l 1,74,-1
 199 -63 l 1,0,-1
EndSplineSet
Validated: 1
EndChar

StartChar: parenright
Encoding: 268 41 12
Width: 253
GlyphClass: 2
Flags: W
LayerCount: 2
Fore
SplineSet
205 99 m 1,0,-1
 194 89 l 1,1,-1
 184 78 l 1,2,-1
 173 68 l 1,3,-1
 163 57 l 1,4,-1
 152 47 l 1,5,-1
 142 36 l 1,6,-1
 137 20 l 1,7,-1
 131 5 l 1,8,-1
 115 0 l 1,9,-1
 100 -6 l 1,10,-1
 89 -16 l 1,11,-1
 79 -27 l 1,12,-1
 68 -37 l 1,13,-1
 52 -42 l 1,14,-1
 37 -37 l 1,15,-1
 32 -22 l 1,16,-1
 32 20 l 1,17,-1
 37 36 l 1,18,-1
 52 42 l 1,19,-1
 68 47 l 1,20,-1
 79 57 l 1,21,-1
 89 68 l 1,22,-1
 100 78 l 1,23,-1
 110 89 l 1,24,-1
 121 99 l 1,25,-1
 131 110 l 1,26,-1
 142 120 l 1,27,-1
 152 131 l 1,28,-1
 163 141 l 1,29,-1
 173 152 l 1,30,-1
 179 167 l 1,31,-1
 179 314 l 1,32,-1
 173 330 l 1,33,-1
 163 341 l 1,34,-1
 158 356 l 1,35,-1
 158 377 l 1,36,-1
 152 393 l 1,37,-1
 142 404 l 1,38,-1
 137 419 l 1,39,-1
 131 435 l 1,40,-1
 121 446 l 1,41,-1
 116 461 l 1,42,-1
 110 477 l 1,43,-1
 100 488 l 1,44,-1
 89 498 l 1,45,-1
 79 509 l 1,46,-1
 74 524 l 1,47,-1
 74 566 l 1,48,-1
 79 582 l 1,49,-1
 94 588 l 1,50,-1
 110 582 l 1,51,-1
 116 566 l 1,52,-1
 121 551 l 1,53,-1
 131 540 l 1,54,-1
 142 530 l 1,55,-1
 152 519 l 1,56,-1
 158 503 l 1,57,-1
 163 488 l 1,58,-1
 173 477 l 1,59,-1
 179 461 l 1,60,-1
 184 446 l 1,61,-1
 194 435 l 1,62,-1
 200 419 l 1,63,-1
 200 398 l 1,64,-1
 205 383 l 1,65,-1
 215 372 l 1,66,-1
 221 356 l 1,67,-1
 221 125 l 1,68,-1
 215 110 l 1,69,-1
 205 99 l 1,0,-1
EndSplineSet
Validated: 1
EndChar

StartChar: asterisk
Encoding: 269 42 13
Width: 400
GlyphClass: 2
Flags: W
LayerCount: 2
Fore
SplineSet
346 210 m 1,0,-1
 331 215 l 1,1,-1
 320 225 l 1,2,-1
 310 236 l 1,3,-1
 299 246 l 1,4,-1
 289 257 l 1,5,-1
 278 267 l 1,6,-1
 262 273 l 1,7,-1
 247 278 l 1,8,-1
 236 288 l 1,9,-1
 220 294 l 1,10,-1
 205 288 l 1,11,-1
 200 272 l 1,12,-1
 200 167 l 1,13,-1
 194 152 l 1,14,-1
 184 141 l 1,15,-1
 179 125 l 1,16,-1
 179 104 l 1,17,-1
 173 89 l 1,18,-1
 157 84 l 1,19,-1
 142 89 l 1,20,-1
 137 104 l 1,21,-1
 137 167 l 1,22,-1
 142 183 l 1,23,-1
 152 194 l 1,24,-1
 158 209 l 1,25,-1
 158 230 l 1,26,-1
 152 246 l 1,27,-1
 142 246 l 1,28,-1
 131 236 l 1,29,-1
 115 231 l 1,30,-1
 94 231 l 1,31,-1
 79 236 l 1,32,-1
 74 251 l 1,33,-1
 68 267 l 1,34,-1
 52 273 l 1,35,-1
 37 278 l 1,36,-1
 32 293 l 1,37,-1
 32 314 l 1,38,-1
 37 330 l 1,39,-1
 47 341 l 1,40,-1
 58 351 l 1,41,-1
 73 357 l 1,42,-1
 89 362 l 1,43,-1
 100 372 l 1,44,-1
 115 378 l 1,45,-1
 131 383 l 1,46,-1
 131 393 l 1,47,-1
 115 399 l 1,48,-1
 100 404 l 1,49,-1
 89 414 l 1,50,-1
 73 420 l 1,51,-1
 52 420 l 1,52,-1
 37 425 l 1,53,-1
 32 440 l 1,54,-1
 32 461 l 1,55,-1
 37 477 l 1,56,-1
 52 483 l 1,57,-1
 94 483 l 1,58,-1
 110 477 l 1,59,-1
 121 467 l 1,60,-1
 136 462 l 1,61,-1
 152 456 l 1,62,-1
 163 446 l 1,63,-1
 173 446 l 1,64,-1
 179 461 l 1,65,-1
 179 503 l 1,66,-1
 184 519 l 1,67,-1
 194 530 l 1,68,-1
 205 540 l 1,69,-1
 220 546 l 1,70,-1
 241 546 l 1,71,-1
 257 540 l 1,72,-1
 263 524 l 1,73,-1
 263 503 l 1,74,-1
 257 488 l 1,75,-1
 241 483 l 1,76,-1
 226 477 l 1,77,-1
 221 461 l 1,78,-1
 221 440 l 1,79,-1
 226 425 l 1,80,-1
 236 425 l 1,81,-1
 247 435 l 1,82,-1
 257 446 l 1,83,-1
 268 456 l 1,84,-1
 278 467 l 1,85,-1
 284 482 l 1,86,-1
 289 498 l 1,87,-1
 304 504 l 1,88,-1
 320 498 l 1,89,-1
 326 482 l 1,90,-1
 326 440 l 1,91,-1
 331 425 l 1,92,-1
 341 414 l 1,93,-1
 347 398 l 1,94,-1
 347 356 l 1,95,-1
 341 341 l 1,96,-1
 325 336 l 1,97,-1
 310 330 l 1,98,-1
 310 320 l 1,99,-1
 320 309 l 1,100,-1
 331 299 l 1,101,-1
 341 288 l 1,102,-1
 352 278 l 1,103,-1
 362 267 l 1,104,-1
 368 251 l 1,105,-1
 368 230 l 1,106,-1
 362 215 l 1,107,-1
 346 210 l 1,0,-1
EndSplineSet
Validated: 1
EndChar

StartChar: plus
Encoding: 270 43 14
Width: 274
GlyphClass: 2
Flags: W
LayerCount: 2
Fore
SplineSet
226 372 m 1,0,-1
 215 362 l 1,1,-1
 199 357 l 1,2,-1
 184 351 l 1,3,-1
 179 335 l 1,4,-1
 179 272 l 1,5,-1
 173 257 l 1,6,-1
 157 252 l 1,7,-1
 142 257 l 1,8,-1
 137 272 l 1,9,-1
 137 314 l 1,10,-1
 131 330 l 1,11,-1
 115 336 l 1,12,-1
 52 336 l 1,13,-1
 37 341 l 1,14,-1
 32 356 l 1,15,-1
 32 377 l 1,16,-1
 37 393 l 1,17,-1
 52 399 l 1,18,-1
 94 399 l 1,19,-1
 110 404 l 1,20,-1
 116 419 l 1,21,-1
 116 482 l 1,22,-1
 121 498 l 1,23,-1
 136 504 l 1,24,-1
 152 498 l 1,25,-1
 158 482 l 1,26,-1
 158 440 l 1,27,-1
 163 425 l 1,28,-1
 178 420 l 1,29,-1
 194 425 l 1,30,-1
 205 435 l 1,31,-1
 220 441 l 1,32,-1
 236 435 l 1,33,-1
 242 419 l 1,34,-1
 242 398 l 1,35,-1
 236 383 l 1,36,-1
 226 372 l 1,0,-1
EndSplineSet
Validated: 1
EndChar

StartChar: comma
Encoding: 271 44 15
Width: 169
GlyphClass: 2
Flags: W
LayerCount: 2
Fore
SplineSet
115 -63 m 1,0,-1
 100 -69 l 1,1,-1
 89 -79 l 1,2,-1
 73 -84 l 1,3,-1
 58 -79 l 1,4,-1
 47 -69 l 1,5,-1
 37 -58 l 1,6,-1
 32 -43 l 1,7,-1
 32 -22 l 1,8,-1
 37 -6 l 1,9,-1
 52 0 l 1,10,-1
 73 0 l 1,11,-1
 89 5 l 1,12,-1
 95 20 l 1,13,-1
 95 41 l 1,14,-1
 89 57 l 1,15,-1
 73 63 l 1,16,-1
 52 63 l 1,17,-1
 37 68 l 1,18,-1
 32 83 l 1,19,-1
 32 146 l 1,20,-1
 37 162 l 1,21,-1
 52 168 l 1,22,-1
 73 168 l 1,23,-1
 89 162 l 1,24,-1
 100 152 l 1,25,-1
 110 141 l 1,26,-1
 121 131 l 1,27,-1
 131 120 l 1,28,-1
 137 104 l 1,29,-1
 137 -43 l 1,30,-1
 131 -58 l 1,31,-1
 115 -63 l 1,0,-1
EndSplineSet
Validated: 1
EndChar

StartChar: hyphen
Encoding: 272 45 16
Width: 316
GlyphClass: 2
Flags: W
LayerCount: 2
Fore
SplineSet
262 231 m 1,0,-1
 241 231 l 1,1,-1
 226 225 l 1,2,-1
 215 215 l 1,3,-1
 199 210 l 1,4,-1
 157 210 l 1,5,-1
 142 204 l 1,6,-1
 131 194 l 1,7,-1
 115 189 l 1,8,-1
 94 189 l 1,9,-1
 79 183 l 1,10,-1
 68 173 l 1,11,-1
 52 168 l 1,12,-1
 37 173 l 1,13,-1
 32 188 l 1,14,-1
 32 230 l 1,15,-1
 37 246 l 1,16,-1
 52 252 l 1,17,-1
 73 252 l 1,18,-1
 89 257 l 1,19,-1
 100 267 l 1,20,-1
 115 273 l 1,21,-1
 157 273 l 1,22,-1
 173 278 l 1,23,-1
 184 288 l 1,24,-1
 199 294 l 1,25,-1
 262 294 l 1,26,-1
 278 288 l 1,27,-1
 284 272 l 1,28,-1
 284 251 l 1,29,-1
 278 236 l 1,30,-1
 262 231 l 1,0,-1
EndSplineSet
Validated: 1
EndChar

StartChar: period
Encoding: 273 46 17
Width: 127
GlyphClass: 2
Flags: W
LayerCount: 2
Fore
SplineSet
73 84 m 1,0,-1
 58 89 l 1,1,-1
 47 99 l 1,2,-1
 37 110 l 1,3,-1
 32 125 l 1,4,-1
 32 146 l 1,5,-1
 37 162 l 1,6,-1
 52 168 l 1,7,-1
 73 168 l 1,8,-1
 89 162 l 1,9,-1
 95 146 l 1,10,-1
 95 104 l 1,11,-1
 89 89 l 1,12,-1
 73 84 l 1,0,-1
EndSplineSet
Validated: 1
EndChar

StartChar: slash
Encoding: 274 47 18
Width: 316
GlyphClass: 2
Flags: W
LayerCount: 2
Fore
SplineSet
268 477 m 1,0,-1
 263 461 l 1,1,-1
 257 446 l 1,2,-1
 247 435 l 1,3,-1
 242 419 l 1,4,-1
 242 377 l 1,5,-1
 236 362 l 1,6,-1
 226 351 l 1,7,-1
 221 335 l 1,8,-1
 215 320 l 1,9,-1
 205 309 l 1,10,-1
 200 293 l 1,11,-1
 194 278 l 1,12,-1
 184 267 l 1,13,-1
 179 251 l 1,14,-1
 173 236 l 1,15,-1
 163 225 l 1,16,-1
 158 209 l 1,17,-1
 152 194 l 1,18,-1
 142 183 l 1,19,-1
 137 167 l 1,20,-1
 131 152 l 1,21,-1
 121 141 l 1,22,-1
 116 125 l 1,23,-1
 110 110 l 1,24,-1
 100 99 l 1,25,-1
 89 89 l 1,26,-1
 79 78 l 1,27,-1
 74 62 l 1,28,-1
 68 47 l 1,29,-1
 52 42 l 1,30,-1
 37 47 l 1,31,-1
 32 62 l 1,32,-1
 32 104 l 1,33,-1
 37 120 l 1,34,-1
 47 131 l 1,35,-1
 58 141 l 1,36,-1
 68 152 l 1,37,-1
 74 167 l 1,38,-1
 79 183 l 1,39,-1
 89 194 l 1,40,-1
 95 209 l 1,41,-1
 100 225 l 1,42,-1
 110 236 l 1,43,-1
 116 251 l 1,44,-1
 121 267 l 1,45,-1
 131 278 l 1,46,-1
 137 293 l 1,47,-1
 142 309 l 1,48,-1
 152 320 l 1,49,-1
 158 335 l 1,50,-1
 163 351 l 1,51,-1
 173 362 l 1,52,-1
 179 377 l 1,53,-1
 184 393 l 1,54,-1
 194 404 l 1,55,-1
 200 419 l 1,56,-1
 200 461 l 1,57,-1
 205 477 l 1,58,-1
 215 488 l 1,59,-1
 221 503 l 1,60,-1
 221 524 l 1,61,-1
 226 540 l 1,62,-1
 236 551 l 1,63,-1
 247 561 l 1,64,-1
 262 567 l 1,65,-1
 278 561 l 1,66,-1
 284 545 l 1,67,-1
 284 503 l 1,68,-1
 278 488 l 1,69,-1
 268 477 l 1,0,-1
EndSplineSet
Validated: 1
EndChar

StartChar: zero
Encoding: 275 48 19
Width: 400
GlyphClass: 2
Flags: W
LayerCount: 2
Fore
SplineSet
352 246 m 1,0,-1
 347 230 l 1,1,-1
 347 209 l 1,2,-1
 341 194 l 1,3,-1
 331 183 l 1,4,-1
 326 167 l 1,5,-1
 320 152 l 1,6,-1
 310 141 l 1,7,-1
 305 125 l 1,8,-1
 305 104 l 1,9,-1
 299 89 l 1,10,-1
 289 78 l 1,11,-1
 284 62 l 1,12,-1
 284 41 l 1,13,-1
 278 26 l 1,14,-1
 262 21 l 1,15,-1
 247 15 l 1,16,-1
 236 5 l 1,17,-1
 220 0 l 1,18,-1
 157 0 l 1,19,-1
 142 5 l 1,20,-1
 131 15 l 1,21,-1
 115 21 l 1,22,-1
 94 21 l 1,23,-1
 79 26 l 1,24,-1
 68 36 l 1,25,-1
 52 42 l 1,26,-1
 37 47 l 1,27,-1
 32 62 l 1,28,-1
 32 251 l 1,29,-1
 37 267 l 1,30,-1
 47 278 l 1,31,-1
 58 288 l 1,32,-1
 68 299 l 1,33,-1
 74 314 l 1,34,-1
 74 335 l 1,35,-1
 79 351 l 1,36,-1
 89 362 l 1,37,-1
 95 377 l 1,38,-1
 95 398 l 1,39,-1
 100 414 l 1,40,-1
 110 425 l 1,41,-1
 116 440 l 1,42,-1
 121 456 l 1,43,-1
 131 467 l 1,44,-1
 137 482 l 1,45,-1
 142 498 l 1,46,-1
 152 509 l 1,47,-1
 158 524 l 1,48,-1
 163 540 l 1,49,-1
 173 551 l 1,50,-1
 184 561 l 1,51,-1
 194 572 l 1,52,-1
 205 582 l 1,53,-1
 220 588 l 1,54,-1
 236 582 l 1,55,-1
 242 566 l 1,56,-1
 247 551 l 1,57,-1
 262 546 l 1,58,-1
 278 540 l 1,59,-1
 284 524 l 1,60,-1
 289 509 l 1,61,-1
 299 498 l 1,62,-1
 310 488 l 1,63,-1
 320 477 l 1,64,-1
 331 467 l 1,65,-1
 341 456 l 1,66,-1
 347 440 l 1,67,-1
 352 425 l 1,68,-1
 362 414 l 1,69,-1
 368 398 l 1,70,-1
 368 272 l 1,71,-1
 362 257 l 1,72,-1
 352 246 l 1,0,-1
326 335 m 1,73,-1
 326 356 l 1,74,-1
 320 372 l 1,75,-1
 310 383 l 1,76,-1
 299 393 l 1,77,-1
 289 404 l 1,78,-1
 284 419 l 1,79,-1
 278 435 l 1,80,-1
 268 446 l 1,81,-1
 257 456 l 1,82,-1
 247 467 l 1,83,-1
 236 477 l 1,84,-1
 220 483 l 1,85,-1
 205 477 l 1,86,-1
 194 467 l 1,87,-1
 184 456 l 1,88,-1
 184 446 l 1,89,-1
 194 435 l 1,90,-1
 200 419 l 1,91,-1
 200 356 l 1,92,-1
 205 341 l 1,93,-1
 215 330 l 1,94,-1
 221 314 l 1,95,-1
 221 272 l 1,96,-1
 226 257 l 1,97,-1
 236 246 l 1,98,-1
 242 230 l 1,99,-1
 242 146 l 1,100,-1
 247 131 l 1,101,-1
 257 131 l 1,102,-1
 263 146 l 1,103,-1
 263 167 l 1,104,-1
 268 183 l 1,105,-1
 278 194 l 1,106,-1
 284 209 l 1,107,-1
 289 225 l 1,108,-1
 299 236 l 1,109,-1
 305 251 l 1,110,-1
 305 293 l 1,111,-1
 310 309 l 1,112,-1
 320 320 l 1,113,-1
 326 335 l 1,73,-1
215 78 m 1,114,-1
 205 89 l 1,115,-1
 200 104 l 1,116,-1
 200 188 l 1,117,-1
 194 204 l 1,118,-1
 184 215 l 1,119,-1
 179 230 l 1,120,-1
 179 272 l 1,121,-1
 173 288 l 1,122,-1
 163 299 l 1,123,-1
 158 314 l 1,124,-1
 158 356 l 1,125,-1
 152 372 l 1,126,-1
 142 372 l 1,127,-1
 137 356 l 1,128,-1
 137 335 l 1,129,-1
 131 320 l 1,130,-1
 121 309 l 1,131,-1
 116 293 l 1,132,-1
 116 272 l 1,133,-1
 110 257 l 1,134,-1
 100 246 l 1,135,-1
 89 236 l 1,136,-1
 79 225 l 1,137,-1
 74 209 l 1,138,-1
 74 125 l 1,139,-1
 79 110 l 1,140,-1
 94 105 l 1,141,-1
 110 99 l 1,142,-1
 121 89 l 1,143,-1
 136 84 l 1,144,-1
 152 78 l 1,145,-1
 163 68 l 1,146,-1
 178 63 l 1,147,-1
 199 63 l 1,148,-1
 215 68 l 1,149,-1
 215 78 l 1,114,-1
EndSplineSet
Validated: 1
EndChar

StartChar: one
Encoding: 276 49 20
Width: 253
GlyphClass: 2
Flags: W
LayerCount: 2
Fore
SplineSet
199 42 m 1,0,-1
 178 42 l 1,1,-1
 163 36 l 1,2,-1
 152 26 l 1,3,-1
 136 21 l 1,4,-1
 52 21 l 1,5,-1
 37 26 l 1,6,-1
 32 41 l 1,7,-1
 32 62 l 1,8,-1
 37 78 l 1,9,-1
 52 84 l 1,10,-1
 73 84 l 1,11,-1
 89 89 l 1,12,-1
 95 104 l 1,13,-1
 95 146 l 1,14,-1
 100 162 l 1,15,-1
 110 173 l 1,16,-1
 116 188 l 1,17,-1
 116 356 l 1,18,-1
 110 372 l 1,19,-1
 100 372 l 1,20,-1
 89 362 l 1,21,-1
 73 357 l 1,22,-1
 52 357 l 1,23,-1
 37 362 l 1,24,-1
 32 377 l 1,25,-1
 32 398 l 1,26,-1
 37 414 l 1,27,-1
 47 425 l 1,28,-1
 58 435 l 1,29,-1
 73 441 l 1,30,-1
 89 446 l 1,31,-1
 95 461 l 1,32,-1
 100 477 l 1,33,-1
 115 483 l 1,34,-1
 136 483 l 1,35,-1
 152 477 l 1,36,-1
 158 461 l 1,37,-1
 158 146 l 1,38,-1
 152 131 l 1,39,-1
 142 120 l 1,40,-1
 142 110 l 1,41,-1
 157 105 l 1,42,-1
 199 105 l 1,43,-1
 215 99 l 1,44,-1
 221 83 l 1,45,-1
 221 62 l 1,46,-1
 215 47 l 1,47,-1
 199 42 l 1,0,-1
EndSplineSet
Validated: 1
EndChar

StartChar: two
Encoding: 277 50 21
Width: 547
GlyphClass: 2
Flags: W
LayerCount: 2
Fore
SplineSet
493 126 m 1,0,-1
 367 126 l 1,1,-1
 352 120 l 1,2,-1
 341 110 l 1,3,-1
 331 99 l 1,4,-1
 320 89 l 1,5,-1
 304 84 l 1,6,-1
 241 84 l 1,7,-1
 226 89 l 1,8,-1
 215 99 l 1,9,-1
 199 105 l 1,10,-1
 178 105 l 1,11,-1
 163 110 l 1,12,-1
 152 120 l 1,13,-1
 136 126 l 1,14,-1
 52 126 l 1,15,-1
 37 131 l 1,16,-1
 32 146 l 1,17,-1
 32 209 l 1,18,-1
 37 225 l 1,19,-1
 52 231 l 1,20,-1
 94 231 l 1,21,-1
 110 236 l 1,22,-1
 121 246 l 1,23,-1
 136 252 l 1,24,-1
 157 252 l 1,25,-1
 173 257 l 1,26,-1
 184 267 l 1,27,-1
 194 278 l 1,28,-1
 205 288 l 1,29,-1
 220 294 l 1,30,-1
 241 294 l 1,31,-1
 257 299 l 1,32,-1
 268 309 l 1,33,-1
 283 315 l 1,34,-1
 299 320 l 1,35,-1
 310 330 l 1,36,-1
 325 336 l 1,37,-1
 341 341 l 1,38,-1
 352 351 l 1,39,-1
 362 362 l 1,40,-1
 368 377 l 1,41,-1
 368 398 l 1,42,-1
 362 414 l 1,43,-1
 352 425 l 1,44,-1
 341 435 l 1,45,-1
 325 441 l 1,46,-1
 262 441 l 1,47,-1
 247 435 l 1,48,-1
 236 425 l 1,49,-1
 220 420 l 1,50,-1
 199 420 l 1,51,-1
 184 414 l 1,52,-1
 173 404 l 1,53,-1
 163 393 l 1,54,-1
 152 383 l 1,55,-1
 142 372 l 1,56,-1
 131 362 l 1,57,-1
 115 357 l 1,58,-1
 100 362 l 1,59,-1
 95 377 l 1,60,-1
 95 419 l 1,61,-1
 100 435 l 1,62,-1
 110 446 l 1,63,-1
 121 456 l 1,64,-1
 136 462 l 1,65,-1
 152 467 l 1,66,-1
 163 477 l 1,67,-1
 178 483 l 1,68,-1
 199 483 l 1,69,-1
 215 488 l 1,70,-1
 226 498 l 1,71,-1
 241 504 l 1,72,-1
 367 504 l 1,73,-1
 383 498 l 1,74,-1
 394 488 l 1,75,-1
 404 477 l 1,76,-1
 410 461 l 1,77,-1
 410 335 l 1,78,-1
 404 320 l 1,79,-1
 394 309 l 1,80,-1
 383 299 l 1,81,-1
 373 288 l 1,82,-1
 362 278 l 1,83,-1
 346 273 l 1,84,-1
 331 267 l 1,85,-1
 320 257 l 1,86,-1
 304 252 l 1,87,-1
 289 246 l 1,88,-1
 278 236 l 1,89,-1
 262 231 l 1,90,-1
 247 225 l 1,91,-1
 236 215 l 1,92,-1
 220 210 l 1,93,-1
 205 204 l 1,94,-1
 194 194 l 1,95,-1
 184 183 l 1,96,-1
 184 173 l 1,97,-1
 199 168 l 1,98,-1
 241 168 l 1,99,-1
 257 162 l 1,100,-1
 268 152 l 1,101,-1
 278 152 l 1,102,-1
 289 162 l 1,103,-1
 304 168 l 1,104,-1
 320 173 l 1,105,-1
 331 183 l 1,106,-1
 346 189 l 1,107,-1
 493 189 l 1,108,-1
 509 183 l 1,109,-1
 515 167 l 1,110,-1
 515 146 l 1,111,-1
 509 131 l 1,112,-1
 493 126 l 1,0,-1
EndSplineSet
Validated: 1
EndChar

StartChar: three
Encoding: 278 51 22
Width: 547
GlyphClass: 2
Flags: W
LayerCount: 2
Fore
SplineSet
493 189 m 1,0,-1
 478 183 l 1,1,-1
 467 173 l 1,2,-1
 451 168 l 1,3,-1
 409 168 l 1,4,-1
 394 162 l 1,5,-1
 383 152 l 1,6,-1
 367 147 l 1,7,-1
 325 147 l 1,8,-1
 310 141 l 1,9,-1
 299 131 l 1,10,-1
 283 126 l 1,11,-1
 241 126 l 1,12,-1
 226 120 l 1,13,-1
 215 110 l 1,14,-1
 199 105 l 1,15,-1
 52 105 l 1,16,-1
 37 110 l 1,17,-1
 32 125 l 1,18,-1
 32 146 l 1,19,-1
 37 162 l 1,20,-1
 52 168 l 1,21,-1
 178 168 l 1,22,-1
 194 173 l 1,23,-1
 205 183 l 1,24,-1
 220 189 l 1,25,-1
 262 189 l 1,26,-1
 278 194 l 1,27,-1
 289 204 l 1,28,-1
 304 210 l 1,29,-1
 346 210 l 1,30,-1
 362 215 l 1,31,-1
 373 225 l 1,32,-1
 388 231 l 1,33,-1
 430 231 l 1,34,-1
 446 236 l 1,35,-1
 457 246 l 1,36,-1
 467 257 l 1,37,-1
 473 272 l 1,38,-1
 467 288 l 1,39,-1
 457 299 l 1,40,-1
 446 309 l 1,41,-1
 430 315 l 1,42,-1
 262 315 l 1,43,-1
 247 320 l 1,44,-1
 242 335 l 1,45,-1
 242 356 l 1,46,-1
 247 372 l 1,47,-1
 262 378 l 1,48,-1
 278 383 l 1,49,-1
 289 393 l 1,50,-1
 304 399 l 1,51,-1
 367 399 l 1,52,-1
 383 404 l 1,53,-1
 394 414 l 1,54,-1
 404 425 l 1,55,-1
 415 435 l 1,56,-1
 425 446 l 1,57,-1
 436 456 l 1,58,-1
 446 467 l 1,59,-1
 446 477 l 1,60,-1
 430 483 l 1,61,-1
 283 483 l 1,62,-1
 268 477 l 1,63,-1
 257 467 l 1,64,-1
 241 462 l 1,65,-1
 226 467 l 1,66,-1
 215 477 l 1,67,-1
 205 488 l 1,68,-1
 200 503 l 1,69,-1
 200 524 l 1,70,-1
 205 540 l 1,71,-1
 220 546 l 1,72,-1
 451 546 l 1,73,-1
 467 540 l 1,74,-1
 478 530 l 1,75,-1
 488 519 l 1,76,-1
 494 503 l 1,77,-1
 494 419 l 1,78,-1
 488 404 l 1,79,-1
 478 393 l 1,80,-1
 478 383 l 1,81,-1
 488 372 l 1,82,-1
 499 362 l 1,83,-1
 509 351 l 1,84,-1
 515 335 l 1,85,-1
 515 209 l 1,86,-1
 509 194 l 1,87,-1
 493 189 l 1,0,-1
EndSplineSet
Validated: 1
EndChar

StartChar: four
Encoding: 279 52 23
Width: 631
GlyphClass: 2
Flags: W
LayerCount: 2
Fore
SplineSet
583 414 m 1,0,-1
 572 404 l 1,1,-1
 556 399 l 1,2,-1
 514 399 l 1,3,-1
 499 393 l 1,4,-1
 488 383 l 1,5,-1
 472 378 l 1,6,-1
 451 378 l 1,7,-1
 436 372 l 1,8,-1
 425 362 l 1,9,-1
 409 357 l 1,10,-1
 346 357 l 1,11,-1
 331 351 l 1,12,-1
 326 335 l 1,13,-1
 326 251 l 1,14,-1
 331 236 l 1,15,-1
 341 225 l 1,16,-1
 347 209 l 1,17,-1
 347 146 l 1,18,-1
 341 131 l 1,19,-1
 325 126 l 1,20,-1
 310 131 l 1,21,-1
 305 146 l 1,22,-1
 299 162 l 1,23,-1
 289 173 l 1,24,-1
 284 188 l 1,25,-1
 284 314 l 1,26,-1
 278 330 l 1,27,-1
 268 341 l 1,28,-1
 257 351 l 1,29,-1
 241 357 l 1,30,-1
 226 351 l 1,31,-1
 215 341 l 1,32,-1
 199 336 l 1,33,-1
 184 330 l 1,34,-1
 173 320 l 1,35,-1
 157 315 l 1,36,-1
 142 309 l 1,37,-1
 131 299 l 1,38,-1
 115 294 l 1,39,-1
 100 288 l 1,40,-1
 89 278 l 1,41,-1
 73 273 l 1,42,-1
 52 273 l 1,43,-1
 37 278 l 1,44,-1
 32 293 l 1,45,-1
 32 314 l 1,46,-1
 37 330 l 1,47,-1
 47 341 l 1,48,-1
 53 356 l 1,49,-1
 58 372 l 1,50,-1
 68 383 l 1,51,-1
 79 393 l 1,52,-1
 89 404 l 1,53,-1
 95 419 l 1,54,-1
 100 435 l 1,55,-1
 110 446 l 1,56,-1
 121 456 l 1,57,-1
 131 467 l 1,58,-1
 137 482 l 1,59,-1
 142 498 l 1,60,-1
 152 509 l 1,61,-1
 163 519 l 1,62,-1
 173 530 l 1,63,-1
 179 545 l 1,64,-1
 184 561 l 1,65,-1
 194 572 l 1,66,-1
 205 582 l 1,67,-1
 220 588 l 1,68,-1
 236 593 l 1,69,-1
 242 608 l 1,70,-1
 242 629 l 1,71,-1
 247 645 l 1,72,-1
 262 651 l 1,73,-1
 283 651 l 1,74,-1
 299 645 l 1,75,-1
 305 629 l 1,76,-1
 305 608 l 1,77,-1
 299 593 l 1,78,-1
 289 582 l 1,79,-1
 284 566 l 1,80,-1
 284 524 l 1,81,-1
 289 509 l 1,82,-1
 299 498 l 1,83,-1
 305 482 l 1,84,-1
 305 440 l 1,85,-1
 310 425 l 1,86,-1
 325 420 l 1,87,-1
 388 420 l 1,88,-1
 404 425 l 1,89,-1
 415 435 l 1,90,-1
 430 441 l 1,91,-1
 446 446 l 1,92,-1
 457 456 l 1,93,-1
 472 462 l 1,94,-1
 535 462 l 1,95,-1
 551 467 l 1,96,-1
 562 477 l 1,97,-1
 577 483 l 1,98,-1
 593 477 l 1,99,-1
 599 461 l 1,100,-1
 599 440 l 1,101,-1
 593 425 l 1,102,-1
 583 414 l 1,0,-1
263 440 m 1,103,-1
 257 456 l 1,104,-1
 247 467 l 1,105,-1
 242 482 l 1,106,-1
 242 503 l 1,107,-1
 236 519 l 1,108,-1
 226 519 l 1,109,-1
 221 503 l 1,110,-1
 215 488 l 1,111,-1
 205 477 l 1,112,-1
 194 467 l 1,113,-1
 184 456 l 1,114,-1
 179 440 l 1,115,-1
 173 425 l 1,116,-1
 163 414 l 1,117,-1
 163 404 l 1,118,-1
 178 399 l 1,119,-1
 194 404 l 1,120,-1
 205 414 l 1,121,-1
 220 420 l 1,122,-1
 241 420 l 1,123,-1
 257 425 l 1,124,-1
 263 440 l 1,103,-1
EndSplineSet
Validated: 1
EndChar

StartChar: five
Encoding: 280 53 24
Width: 526
GlyphClass: 2
Flags: W
LayerCount: 2
Fore
SplineSet
472 567 m 1,0,-1
 304 567 l 1,1,-1
 289 561 l 1,2,-1
 284 545 l 1,3,-1
 284 482 l 1,4,-1
 278 467 l 1,5,-1
 268 456 l 1,6,-1
 268 446 l 1,7,-1
 283 441 l 1,8,-1
 388 441 l 1,9,-1
 404 435 l 1,10,-1
 415 425 l 1,11,-1
 430 420 l 1,12,-1
 446 414 l 1,13,-1
 452 398 l 1,14,-1
 452 209 l 1,15,-1
 446 194 l 1,16,-1
 430 189 l 1,17,-1
 415 183 l 1,18,-1
 404 173 l 1,19,-1
 394 162 l 1,20,-1
 383 152 l 1,21,-1
 367 147 l 1,22,-1
 352 141 l 1,23,-1
 341 131 l 1,24,-1
 325 126 l 1,25,-1
 262 126 l 1,26,-1
 247 131 l 1,27,-1
 236 141 l 1,28,-1
 220 147 l 1,29,-1
 52 147 l 1,30,-1
 37 152 l 1,31,-1
 32 167 l 1,32,-1
 32 188 l 1,33,-1
 37 204 l 1,34,-1
 52 210 l 1,35,-1
 241 210 l 1,36,-1
 257 204 l 1,37,-1
 268 194 l 1,38,-1
 283 189 l 1,39,-1
 299 194 l 1,40,-1
 310 204 l 1,41,-1
 325 210 l 1,42,-1
 346 210 l 1,43,-1
 362 215 l 1,44,-1
 373 225 l 1,45,-1
 383 236 l 1,46,-1
 394 246 l 1,47,-1
 404 257 l 1,48,-1
 410 272 l 1,49,-1
 410 335 l 1,50,-1
 404 351 l 1,51,-1
 394 362 l 1,52,-1
 383 372 l 1,53,-1
 367 378 l 1,54,-1
 241 378 l 1,55,-1
 226 372 l 1,56,-1
 215 362 l 1,57,-1
 199 357 l 1,58,-1
 184 362 l 1,59,-1
 179 377 l 1,60,-1
 179 419 l 1,61,-1
 184 435 l 1,62,-1
 194 446 l 1,63,-1
 205 456 l 1,64,-1
 215 467 l 1,65,-1
 221 482 l 1,66,-1
 226 498 l 1,67,-1
 236 509 l 1,68,-1
 242 524 l 1,69,-1
 242 608 l 1,70,-1
 247 624 l 1,71,-1
 262 630 l 1,72,-1
 430 630 l 1,73,-1
 446 635 l 1,74,-1
 457 645 l 1,75,-1
 472 651 l 1,76,-1
 488 645 l 1,77,-1
 494 629 l 1,78,-1
 494 587 l 1,79,-1
 488 572 l 1,80,-1
 472 567 l 1,0,-1
EndSplineSet
Validated: 1
EndChar

StartChar: six
Encoding: 281 54 25
Width: 358
GlyphClass: 2
Flags: W
LayerCount: 2
Fore
SplineSet
310 246 m 1,0,-1
 299 236 l 1,1,-1
 283 231 l 1,2,-1
 73 231 l 1,3,-1
 58 236 l 1,4,-1
 47 246 l 1,5,-1
 37 257 l 1,6,-1
 32 272 l 1,7,-1
 32 482 l 1,8,-1
 37 498 l 1,9,-1
 47 509 l 1,10,-1
 53 524 l 1,11,-1
 53 545 l 1,12,-1
 58 561 l 1,13,-1
 68 572 l 1,14,-1
 79 582 l 1,15,-1
 89 593 l 1,16,-1
 95 608 l 1,17,-1
 100 624 l 1,18,-1
 110 635 l 1,19,-1
 121 645 l 1,20,-1
 136 651 l 1,21,-1
 157 651 l 1,22,-1
 173 645 l 1,23,-1
 179 629 l 1,24,-1
 179 608 l 1,25,-1
 173 593 l 1,26,-1
 163 582 l 1,27,-1
 152 572 l 1,28,-1
 142 561 l 1,29,-1
 131 551 l 1,30,-1
 121 540 l 1,31,-1
 116 524 l 1,32,-1
 110 509 l 1,33,-1
 100 498 l 1,34,-1
 95 482 l 1,35,-1
 89 467 l 1,36,-1
 79 456 l 1,37,-1
 74 440 l 1,38,-1
 74 398 l 1,39,-1
 79 383 l 1,40,-1
 89 383 l 1,41,-1
 100 393 l 1,42,-1
 110 404 l 1,43,-1
 121 414 l 1,44,-1
 131 425 l 1,45,-1
 142 435 l 1,46,-1
 157 441 l 1,47,-1
 241 441 l 1,48,-1
 257 435 l 1,49,-1
 268 425 l 1,50,-1
 278 414 l 1,51,-1
 289 404 l 1,52,-1
 299 393 l 1,53,-1
 305 377 l 1,54,-1
 310 362 l 1,55,-1
 320 351 l 1,56,-1
 326 335 l 1,57,-1
 326 272 l 1,58,-1
 320 257 l 1,59,-1
 310 246 l 1,0,-1
263 314 m 1,60,-1
 257 330 l 1,61,-1
 247 341 l 1,62,-1
 236 351 l 1,63,-1
 226 362 l 1,64,-1
 215 372 l 1,65,-1
 199 378 l 1,66,-1
 184 372 l 1,67,-1
 173 362 l 1,68,-1
 157 357 l 1,69,-1
 142 351 l 1,70,-1
 137 335 l 1,71,-1
 131 320 l 1,72,-1
 121 309 l 1,73,-1
 121 299 l 1,74,-1
 136 294 l 1,75,-1
 241 294 l 1,76,-1
 257 299 l 1,77,-1
 263 314 l 1,60,-1
EndSplineSet
Validated: 1
EndChar

StartChar: seven
Encoding: 282 55 26
Width: 358
GlyphClass: 2
Flags: W
LayerCount: 2
Fore
SplineSet
310 561 m 1,0,-1
 305 545 l 1,1,-1
 305 419 l 1,2,-1
 299 404 l 1,3,-1
 289 393 l 1,4,-1
 284 377 l 1,5,-1
 284 314 l 1,6,-1
 278 299 l 1,7,-1
 268 288 l 1,8,-1
 263 272 l 1,9,-1
 263 209 l 1,10,-1
 257 194 l 1,11,-1
 241 189 l 1,12,-1
 226 194 l 1,13,-1
 221 209 l 1,14,-1
 221 314 l 1,15,-1
 226 330 l 1,16,-1
 236 341 l 1,17,-1
 242 356 l 1,18,-1
 242 419 l 1,19,-1
 247 435 l 1,20,-1
 257 446 l 1,21,-1
 263 461 l 1,22,-1
 263 566 l 1,23,-1
 257 582 l 1,24,-1
 241 588 l 1,25,-1
 115 588 l 1,26,-1
 100 582 l 1,27,-1
 95 566 l 1,28,-1
 95 503 l 1,29,-1
 100 488 l 1,30,-1
 110 477 l 1,31,-1
 116 461 l 1,32,-1
 116 440 l 1,33,-1
 110 425 l 1,34,-1
 100 414 l 1,35,-1
 89 404 l 1,36,-1
 73 399 l 1,37,-1
 58 404 l 1,38,-1
 53 419 l 1,39,-1
 53 545 l 1,40,-1
 47 561 l 1,41,-1
 37 572 l 1,42,-1
 32 587 l 1,43,-1
 32 650 l 1,44,-1
 37 666 l 1,45,-1
 52 672 l 1,46,-1
 73 672 l 1,47,-1
 89 666 l 1,48,-1
 100 656 l 1,49,-1
 115 651 l 1,50,-1
 304 651 l 1,51,-1
 320 645 l 1,52,-1
 326 629 l 1,53,-1
 326 587 l 1,54,-1
 320 572 l 1,55,-1
 310 561 l 1,0,-1
EndSplineSet
Validated: 1
EndChar

StartChar: eight
Encoding: 283 56 27
Width: 358
GlyphClass: 2
Flags: W
LayerCount: 2
Fore
SplineSet
304 420 m 1,0,-1
 241 420 l 1,1,-1
 226 414 l 1,2,-1
 221 398 l 1,3,-1
 226 383 l 1,4,-1
 236 372 l 1,5,-1
 247 362 l 1,6,-1
 257 351 l 1,7,-1
 263 335 l 1,8,-1
 263 251 l 1,9,-1
 257 236 l 1,10,-1
 247 225 l 1,11,-1
 236 215 l 1,12,-1
 220 210 l 1,13,-1
 73 210 l 1,14,-1
 58 215 l 1,15,-1
 53 230 l 1,16,-1
 53 314 l 1,17,-1
 58 330 l 1,18,-1
 68 341 l 1,19,-1
 79 351 l 1,20,-1
 89 362 l 1,21,-1
 100 372 l 1,22,-1
 110 383 l 1,23,-1
 110 393 l 1,24,-1
 100 404 l 1,25,-1
 89 414 l 1,26,-1
 79 425 l 1,27,-1
 68 435 l 1,28,-1
 58 446 l 1,29,-1
 47 456 l 1,30,-1
 37 467 l 1,31,-1
 32 482 l 1,32,-1
 32 587 l 1,33,-1
 37 603 l 1,34,-1
 52 609 l 1,35,-1
 115 609 l 1,36,-1
 131 603 l 1,37,-1
 142 593 l 1,38,-1
 157 588 l 1,39,-1
 173 582 l 1,40,-1
 184 572 l 1,41,-1
 194 561 l 1,42,-1
 205 551 l 1,43,-1
 220 546 l 1,44,-1
 236 540 l 1,45,-1
 247 530 l 1,46,-1
 257 519 l 1,47,-1
 268 509 l 1,48,-1
 278 498 l 1,49,-1
 289 488 l 1,50,-1
 304 483 l 1,51,-1
 320 477 l 1,52,-1
 326 461 l 1,53,-1
 326 440 l 1,54,-1
 320 425 l 1,55,-1
 304 420 l 1,0,-1
221 293 m 1,56,-1
 215 309 l 1,57,-1
 205 320 l 1,58,-1
 194 330 l 1,59,-1
 178 336 l 1,60,-1
 157 336 l 1,61,-1
 142 330 l 1,62,-1
 137 314 l 1,63,-1
 131 299 l 1,64,-1
 121 288 l 1,65,-1
 121 278 l 1,66,-1
 136 273 l 1,67,-1
 199 273 l 1,68,-1
 215 278 l 1,69,-1
 221 293 l 1,56,-1
194 477 m 1,70,-1
 184 488 l 1,71,-1
 173 498 l 1,72,-1
 163 509 l 1,73,-1
 152 519 l 1,74,-1
 136 525 l 1,75,-1
 121 530 l 1,76,-1
 110 540 l 1,77,-1
 94 546 l 1,78,-1
 79 540 l 1,79,-1
 79 530 l 1,80,-1
 89 519 l 1,81,-1
 95 503 l 1,82,-1
 100 488 l 1,83,-1
 110 477 l 1,84,-1
 121 467 l 1,85,-1
 131 456 l 1,86,-1
 142 446 l 1,87,-1
 152 446 l 1,88,-1
 163 456 l 1,89,-1
 178 462 l 1,90,-1
 194 467 l 1,91,-1
 194 477 l 1,70,-1
EndSplineSet
Validated: 1
EndChar

StartChar: nine
Encoding: 284 57 28
Width: 295
GlyphClass: 2
Flags: W
LayerCount: 2
Fore
SplineSet
241 84 m 1,0,-1
 226 89 l 1,1,-1
 221 104 l 1,2,-1
 221 335 l 1,3,-1
 215 351 l 1,4,-1
 205 362 l 1,5,-1
 200 377 l 1,6,-1
 200 398 l 1,7,-1
 194 414 l 1,8,-1
 184 414 l 1,9,-1
 173 404 l 1,10,-1
 157 399 l 1,11,-1
 52 399 l 1,12,-1
 37 404 l 1,13,-1
 32 419 l 1,14,-1
 32 566 l 1,15,-1
 37 582 l 1,16,-1
 47 593 l 1,17,-1
 53 608 l 1,18,-1
 58 624 l 1,19,-1
 68 635 l 1,20,-1
 79 645 l 1,21,-1
 89 656 l 1,22,-1
 100 666 l 1,23,-1
 115 672 l 1,24,-1
 136 672 l 1,25,-1
 152 677 l 1,26,-1
 163 687 l 1,27,-1
 178 693 l 1,28,-1
 194 687 l 1,29,-1
 205 677 l 1,30,-1
 215 666 l 1,31,-1
 226 656 l 1,32,-1
 236 645 l 1,33,-1
 242 629 l 1,34,-1
 242 440 l 1,35,-1
 247 425 l 1,36,-1
 257 414 l 1,37,-1
 263 398 l 1,38,-1
 263 104 l 1,39,-1
 257 89 l 1,40,-1
 241 84 l 1,0,-1
179 503 m 1,41,-1
 179 566 l 1,42,-1
 173 582 l 1,43,-1
 163 593 l 1,44,-1
 152 603 l 1,45,-1
 136 609 l 1,46,-1
 121 603 l 1,47,-1
 110 593 l 1,48,-1
 100 582 l 1,49,-1
 95 566 l 1,50,-1
 89 551 l 1,51,-1
 79 540 l 1,52,-1
 74 524 l 1,53,-1
 74 482 l 1,54,-1
 79 467 l 1,55,-1
 94 462 l 1,56,-1
 136 462 l 1,57,-1
 152 467 l 1,58,-1
 163 477 l 1,59,-1
 173 488 l 1,60,-1
 179 503 l 1,41,-1
EndSplineSet
Validated: 1
EndChar

StartChar: colon
Encoding: 285 58 29
Width: 169
GlyphClass: 2
Flags: W
LayerCount: 2
Fore
SplineSet
115 189 m 1,0,-1
 73 189 l 1,1,-1
 58 194 l 1,2,-1
 53 209 l 1,3,-1
 53 230 l 1,4,-1
 58 246 l 1,5,-1
 68 257 l 1,6,-1
 79 267 l 1,7,-1
 94 273 l 1,8,-1
 115 273 l 1,9,-1
 131 267 l 1,10,-1
 137 251 l 1,11,-1
 137 209 l 1,12,-1
 131 194 l 1,13,-1
 115 189 l 1,0,-1
94 315 m 1,14,-1
 52 315 l 1,15,-1
 37 320 l 1,16,-1
 32 335 l 1,17,-1
 32 356 l 1,18,-1
 37 372 l 1,19,-1
 47 383 l 1,20,-1
 53 398 l 1,21,-1
 53 419 l 1,22,-1
 58 435 l 1,23,-1
 73 441 l 1,24,-1
 89 435 l 1,25,-1
 95 419 l 1,26,-1
 95 398 l 1,27,-1
 100 383 l 1,28,-1
 110 372 l 1,29,-1
 116 356 l 1,30,-1
 116 335 l 1,31,-1
 110 320 l 1,32,-1
 94 315 l 1,14,-1
EndSplineSet
Validated: 1
EndChar

StartChar: semicolon
Encoding: 286 59 30
Width: 169
GlyphClass: 2
Flags: W
LayerCount: 2
Fore
SplineSet
121 36 m 1,0,-1
 110 26 l 1,1,-1
 100 15 l 1,2,-1
 89 5 l 1,3,-1
 73 0 l 1,4,-1
 58 5 l 1,5,-1
 53 20 l 1,6,-1
 53 41 l 1,7,-1
 58 57 l 1,8,-1
 68 68 l 1,9,-1
 79 78 l 1,10,-1
 89 89 l 1,11,-1
 95 104 l 1,12,-1
 95 125 l 1,13,-1
 89 141 l 1,14,-1
 73 147 l 1,15,-1
 52 147 l 1,16,-1
 37 152 l 1,17,-1
 32 167 l 1,18,-1
 32 209 l 1,19,-1
 37 225 l 1,20,-1
 47 236 l 1,21,-1
 53 251 l 1,22,-1
 58 267 l 1,23,-1
 73 273 l 1,24,-1
 89 267 l 1,25,-1
 95 251 l 1,26,-1
 100 236 l 1,27,-1
 110 225 l 1,28,-1
 121 215 l 1,29,-1
 131 204 l 1,30,-1
 137 188 l 1,31,-1
 137 62 l 1,32,-1
 131 47 l 1,33,-1
 121 36 l 1,0,-1
94 336 m 1,34,-1
 73 336 l 1,35,-1
 58 341 l 1,36,-1
 53 356 l 1,37,-1
 53 419 l 1,38,-1
 58 435 l 1,39,-1
 73 441 l 1,40,-1
 94 441 l 1,41,-1
 110 435 l 1,42,-1
 116 419 l 1,43,-1
 116 356 l 1,44,-1
 110 341 l 1,45,-1
 94 336 l 1,34,-1
EndSplineSet
Validated: 1
EndChar

StartChar: less
Encoding: 287 60 31
Width: 295
GlyphClass: 2
Flags: W
LayerCount: 2
Fore
SplineSet
241 168 m 1,0,-1
 226 173 l 1,1,-1
 215 183 l 1,2,-1
 199 189 l 1,3,-1
 184 194 l 1,4,-1
 173 204 l 1,5,-1
 157 210 l 1,6,-1
 142 215 l 1,7,-1
 131 225 l 1,8,-1
 121 236 l 1,9,-1
 110 246 l 1,10,-1
 100 257 l 1,11,-1
 89 267 l 1,12,-1
 73 273 l 1,13,-1
 58 278 l 1,14,-1
 47 288 l 1,15,-1
 37 299 l 1,16,-1
 32 314 l 1,17,-1
 32 356 l 1,18,-1
 37 372 l 1,19,-1
 47 383 l 1,20,-1
 58 393 l 1,21,-1
 68 404 l 1,22,-1
 79 414 l 1,23,-1
 89 425 l 1,24,-1
 95 440 l 1,25,-1
 100 456 l 1,26,-1
 115 462 l 1,27,-1
 131 467 l 1,28,-1
 137 482 l 1,29,-1
 142 498 l 1,30,-1
 152 509 l 1,31,-1
 163 519 l 1,32,-1
 178 525 l 1,33,-1
 241 525 l 1,34,-1
 257 519 l 1,35,-1
 263 503 l 1,36,-1
 263 482 l 1,37,-1
 257 467 l 1,38,-1
 241 462 l 1,39,-1
 220 462 l 1,40,-1
 205 456 l 1,41,-1
 194 446 l 1,42,-1
 184 435 l 1,43,-1
 173 425 l 1,44,-1
 163 414 l 1,45,-1
 152 404 l 1,46,-1
 142 393 l 1,47,-1
 131 383 l 1,48,-1
 121 372 l 1,49,-1
 110 362 l 1,50,-1
 100 351 l 1,51,-1
 100 341 l 1,52,-1
 110 330 l 1,53,-1
 121 320 l 1,54,-1
 131 309 l 1,55,-1
 142 299 l 1,56,-1
 152 288 l 1,57,-1
 163 278 l 1,58,-1
 178 273 l 1,59,-1
 194 267 l 1,60,-1
 205 257 l 1,61,-1
 220 252 l 1,62,-1
 236 246 l 1,63,-1
 247 236 l 1,64,-1
 257 225 l 1,65,-1
 263 209 l 1,66,-1
 263 188 l 1,67,-1
 257 173 l 1,68,-1
 241 168 l 1,0,-1
EndSplineSet
Validated: 1
EndChar

StartChar: equal
Encoding: 288 61 32
Width: 316
GlyphClass: 2
Flags: W
LayerCount: 2
Fore
SplineSet
262 441 m 1,0,-1
 220 441 l 1,1,-1
 205 435 l 1,2,-1
 194 425 l 1,3,-1
 178 420 l 1,4,-1
 52 420 l 1,5,-1
 37 425 l 1,6,-1
 32 440 l 1,7,-1
 32 461 l 1,8,-1
 37 477 l 1,9,-1
 52 483 l 1,10,-1
 157 483 l 1,11,-1
 173 488 l 1,12,-1
 184 498 l 1,13,-1
 199 504 l 1,14,-1
 262 504 l 1,15,-1
 278 498 l 1,16,-1
 284 482 l 1,17,-1
 284 461 l 1,18,-1
 278 446 l 1,19,-1
 262 441 l 1,0,-1
199 273 m 1,20,-1
 94 273 l 1,21,-1
 79 278 l 1,22,-1
 74 293 l 1,23,-1
 74 335 l 1,24,-1
 79 351 l 1,25,-1
 94 357 l 1,26,-1
 110 351 l 1,27,-1
 121 341 l 1,28,-1
 136 336 l 1,29,-1
 199 336 l 1,30,-1
 215 330 l 1,31,-1
 221 314 l 1,32,-1
 221 293 l 1,33,-1
 215 278 l 1,34,-1
 199 273 l 1,20,-1
EndSplineSet
Validated: 1
EndChar

StartChar: greater
Encoding: 289 62 33
Width: 253
GlyphClass: 2
Flags: W
LayerCount: 2
Fore
SplineSet
205 330 m 1,0,-1
 200 314 l 1,1,-1
 194 299 l 1,2,-1
 178 294 l 1,3,-1
 163 288 l 1,4,-1
 158 272 l 1,5,-1
 152 257 l 1,6,-1
 142 246 l 1,7,-1
 131 236 l 1,8,-1
 121 225 l 1,9,-1
 116 209 l 1,10,-1
 110 194 l 1,11,-1
 100 183 l 1,12,-1
 89 173 l 1,13,-1
 73 168 l 1,14,-1
 58 173 l 1,15,-1
 53 188 l 1,16,-1
 53 209 l 1,17,-1
 58 225 l 1,18,-1
 68 236 l 1,19,-1
 74 251 l 1,20,-1
 79 267 l 1,21,-1
 89 278 l 1,22,-1
 100 288 l 1,23,-1
 110 299 l 1,24,-1
 116 314 l 1,25,-1
 121 330 l 1,26,-1
 131 341 l 1,27,-1
 142 351 l 1,28,-1
 152 362 l 1,29,-1
 158 377 l 1,30,-1
 152 393 l 1,31,-1
 142 404 l 1,32,-1
 131 414 l 1,33,-1
 121 425 l 1,34,-1
 110 435 l 1,35,-1
 100 446 l 1,36,-1
 89 456 l 1,37,-1
 79 467 l 1,38,-1
 68 477 l 1,39,-1
 52 483 l 1,40,-1
 37 488 l 1,41,-1
 32 503 l 1,42,-1
 32 524 l 1,43,-1
 37 540 l 1,44,-1
 52 546 l 1,45,-1
 73 546 l 1,46,-1
 89 540 l 1,47,-1
 100 530 l 1,48,-1
 110 519 l 1,49,-1
 121 509 l 1,50,-1
 131 498 l 1,51,-1
 142 488 l 1,52,-1
 157 483 l 1,53,-1
 173 477 l 1,54,-1
 184 467 l 1,55,-1
 194 456 l 1,56,-1
 205 446 l 1,57,-1
 215 435 l 1,58,-1
 221 419 l 1,59,-1
 221 356 l 1,60,-1
 215 341 l 1,61,-1
 205 330 l 1,0,-1
EndSplineSet
Validated: 1
EndChar

StartChar: question
Encoding: 290 63 34
Width: 610
GlyphClass: 2
Flags: W
LayerCount: 2
Fore
SplineSet
562 393 m 1,0,-1
 551 383 l 1,1,-1
 541 372 l 1,2,-1
 530 362 l 1,3,-1
 520 351 l 1,4,-1
 509 341 l 1,5,-1
 499 330 l 1,6,-1
 488 320 l 1,7,-1
 478 309 l 1,8,-1
 467 299 l 1,9,-1
 457 288 l 1,10,-1
 446 278 l 1,11,-1
 430 273 l 1,12,-1
 415 267 l 1,13,-1
 404 257 l 1,14,-1
 394 246 l 1,15,-1
 383 236 l 1,16,-1
 367 231 l 1,17,-1
 241 231 l 1,18,-1
 226 225 l 1,19,-1
 215 215 l 1,20,-1
 205 204 l 1,21,-1
 194 194 l 1,22,-1
 184 183 l 1,23,-1
 179 167 l 1,24,-1
 173 152 l 1,25,-1
 157 147 l 1,26,-1
 142 152 l 1,27,-1
 137 167 l 1,28,-1
 137 230 l 1,29,-1
 142 246 l 1,30,-1
 152 257 l 1,31,-1
 163 267 l 1,32,-1
 178 273 l 1,33,-1
 194 278 l 1,34,-1
 205 288 l 1,35,-1
 220 294 l 1,36,-1
 325 294 l 1,37,-1
 341 299 l 1,38,-1
 352 309 l 1,39,-1
 367 315 l 1,40,-1
 383 320 l 1,41,-1
 394 330 l 1,42,-1
 404 341 l 1,43,-1
 415 351 l 1,44,-1
 430 357 l 1,45,-1
 446 362 l 1,46,-1
 457 372 l 1,47,-1
 467 383 l 1,48,-1
 478 393 l 1,49,-1
 488 404 l 1,50,-1
 499 414 l 1,51,-1
 509 425 l 1,52,-1
 520 435 l 1,53,-1
 530 446 l 1,54,-1
 536 461 l 1,55,-1
 530 477 l 1,56,-1
 520 488 l 1,57,-1
 515 503 l 1,58,-1
 515 608 l 1,59,-1
 509 624 l 1,60,-1
 499 635 l 1,61,-1
 488 645 l 1,62,-1
 472 651 l 1,63,-1
 430 651 l 1,64,-1
 415 645 l 1,65,-1
 404 635 l 1,66,-1
 388 630 l 1,67,-1
 346 630 l 1,68,-1
 331 624 l 1,69,-1
 320 614 l 1,70,-1
 304 609 l 1,71,-1
 283 609 l 1,72,-1
 268 603 l 1,73,-1
 257 593 l 1,74,-1
 241 588 l 1,75,-1
 220 588 l 1,76,-1
 205 582 l 1,77,-1
 194 572 l 1,78,-1
 178 567 l 1,79,-1
 163 561 l 1,80,-1
 152 551 l 1,81,-1
 136 546 l 1,82,-1
 121 540 l 1,83,-1
 110 530 l 1,84,-1
 94 525 l 1,85,-1
 79 519 l 1,86,-1
 68 509 l 1,87,-1
 52 504 l 1,88,-1
 37 509 l 1,89,-1
 32 524 l 1,90,-1
 32 545 l 1,91,-1
 37 561 l 1,92,-1
 47 572 l 1,93,-1
 58 582 l 1,94,-1
 68 593 l 1,95,-1
 79 603 l 1,96,-1
 94 609 l 1,97,-1
 110 614 l 1,98,-1
 121 624 l 1,99,-1
 136 630 l 1,100,-1
 157 630 l 1,101,-1
 173 635 l 1,102,-1
 184 645 l 1,103,-1
 199 651 l 1,104,-1
 220 651 l 1,105,-1
 236 656 l 1,106,-1
 247 666 l 1,107,-1
 262 672 l 1,108,-1
 283 672 l 1,109,-1
 299 677 l 1,110,-1
 310 687 l 1,111,-1
 325 693 l 1,112,-1
 367 693 l 1,113,-1
 383 698 l 1,114,-1
 394 708 l 1,115,-1
 409 714 l 1,116,-1
 514 714 l 1,117,-1
 530 708 l 1,118,-1
 536 692 l 1,119,-1
 541 677 l 1,120,-1
 551 666 l 1,121,-1
 557 650 l 1,122,-1
 557 566 l 1,123,-1
 562 551 l 1,124,-1
 572 540 l 1,125,-1
 578 524 l 1,126,-1
 578 419 l 1,127,-1
 572 404 l 1,128,-1
 562 393 l 1,0,-1
199 0 m 1,129,-1
 178 0 l 1,130,-1
 163 5 l 1,131,-1
 158 20 l 1,132,-1
 158 62 l 1,133,-1
 163 78 l 1,134,-1
 178 84 l 1,135,-1
 199 84 l 1,136,-1
 215 78 l 1,137,-1
 221 62 l 1,138,-1
 221 20 l 1,139,-1
 215 5 l 1,140,-1
 199 0 l 1,129,-1
EndSplineSet
Validated: 1
EndChar

StartChar: at
Encoding: 291 64 35
Width: 505
GlyphClass: 2
Flags: W
LayerCount: 2
Fore
SplineSet
457 267 m 1,0,-1
 452 251 l 1,1,-1
 446 236 l 1,2,-1
 430 231 l 1,3,-1
 415 225 l 1,4,-1
 404 215 l 1,5,-1
 388 210 l 1,6,-1
 346 210 l 1,7,-1
 331 215 l 1,8,-1
 320 225 l 1,9,-1
 310 236 l 1,10,-1
 299 246 l 1,11,-1
 283 252 l 1,12,-1
 268 246 l 1,13,-1
 257 236 l 1,14,-1
 241 231 l 1,15,-1
 157 231 l 1,16,-1
 142 236 l 1,17,-1
 137 251 l 1,18,-1
 131 267 l 1,19,-1
 121 278 l 1,20,-1
 116 293 l 1,21,-1
 116 377 l 1,22,-1
 121 393 l 1,23,-1
 131 404 l 1,24,-1
 142 414 l 1,25,-1
 152 425 l 1,26,-1
 163 435 l 1,27,-1
 173 446 l 1,28,-1
 184 456 l 1,29,-1
 199 462 l 1,30,-1
 241 462 l 1,31,-1
 257 467 l 1,32,-1
 257 477 l 1,33,-1
 247 488 l 1,34,-1
 236 498 l 1,35,-1
 220 504 l 1,36,-1
 157 504 l 1,37,-1
 142 498 l 1,38,-1
 131 488 l 1,39,-1
 115 483 l 1,40,-1
 100 477 l 1,41,-1
 95 461 l 1,42,-1
 89 446 l 1,43,-1
 79 435 l 1,44,-1
 74 419 l 1,45,-1
 74 314 l 1,46,-1
 79 299 l 1,47,-1
 89 288 l 1,48,-1
 95 272 l 1,49,-1
 95 230 l 1,50,-1
 100 215 l 1,51,-1
 110 204 l 1,52,-1
 121 194 l 1,53,-1
 136 189 l 1,54,-1
 241 189 l 1,55,-1
 257 183 l 1,56,-1
 268 173 l 1,57,-1
 283 168 l 1,58,-1
 346 168 l 1,59,-1
 362 162 l 1,60,-1
 368 146 l 1,61,-1
 368 125 l 1,62,-1
 362 110 l 1,63,-1
 346 105 l 1,64,-1
 262 105 l 1,65,-1
 247 110 l 1,66,-1
 236 120 l 1,67,-1
 220 126 l 1,68,-1
 115 126 l 1,69,-1
 100 131 l 1,70,-1
 89 141 l 1,71,-1
 79 152 l 1,72,-1
 68 162 l 1,73,-1
 58 173 l 1,74,-1
 53 188 l 1,75,-1
 53 230 l 1,76,-1
 47 246 l 1,77,-1
 37 257 l 1,78,-1
 32 272 l 1,79,-1
 32 482 l 1,80,-1
 37 498 l 1,81,-1
 47 509 l 1,82,-1
 53 524 l 1,83,-1
 58 540 l 1,84,-1
 73 546 l 1,85,-1
 89 551 l 1,86,-1
 100 561 l 1,87,-1
 115 567 l 1,88,-1
 262 567 l 1,89,-1
 278 561 l 1,90,-1
 289 551 l 1,91,-1
 299 540 l 1,92,-1
 310 530 l 1,93,-1
 320 519 l 1,94,-1
 331 509 l 1,95,-1
 341 498 l 1,96,-1
 352 488 l 1,97,-1
 362 477 l 1,98,-1
 373 467 l 1,99,-1
 383 456 l 1,100,-1
 394 446 l 1,101,-1
 409 441 l 1,102,-1
 425 435 l 1,103,-1
 436 425 l 1,104,-1
 446 414 l 1,105,-1
 457 404 l 1,106,-1
 467 393 l 1,107,-1
 473 377 l 1,108,-1
 473 293 l 1,109,-1
 467 278 l 1,110,-1
 457 267 l 1,0,-1
431 335 m 1,111,-1
 425 351 l 1,112,-1
 415 362 l 1,113,-1
 404 372 l 1,114,-1
 388 378 l 1,115,-1
 373 383 l 1,116,-1
 362 393 l 1,117,-1
 346 399 l 1,118,-1
 325 399 l 1,119,-1
 310 393 l 1,120,-1
 305 377 l 1,121,-1
 310 362 l 1,122,-1
 320 351 l 1,123,-1
 326 335 l 1,124,-1
 331 320 l 1,125,-1
 341 309 l 1,126,-1
 352 299 l 1,127,-1
 362 288 l 1,128,-1
 373 278 l 1,129,-1
 383 278 l 1,130,-1
 394 288 l 1,131,-1
 404 299 l 1,132,-1
 415 309 l 1,133,-1
 425 320 l 1,134,-1
 431 335 l 1,111,-1
263 335 m 1,135,-1
 263 377 l 1,136,-1
 257 393 l 1,137,-1
 241 399 l 1,138,-1
 220 399 l 1,139,-1
 205 393 l 1,140,-1
 194 383 l 1,141,-1
 184 372 l 1,142,-1
 179 356 l 1,143,-1
 173 341 l 1,144,-1
 163 330 l 1,145,-1
 163 320 l 1,146,-1
 173 309 l 1,147,-1
 184 299 l 1,148,-1
 199 294 l 1,149,-1
 220 294 l 1,150,-1
 236 299 l 1,151,-1
 247 309 l 1,152,-1
 257 320 l 1,153,-1
 263 335 l 1,135,-1
EndSplineSet
Validated: 1
EndChar

StartChar: A
Encoding: 292 65 36
Width: 526
GlyphClass: 2
Flags: W
LayerCount: 2
Fore
SplineSet
472 -21 m 1,0,-1
 457 -16 l 1,1,-1
 452 -1 l 1,2,-1
 446 15 l 1,3,-1
 436 26 l 1,4,-1
 431 41 l 1,5,-1
 431 125 l 1,6,-1
 425 141 l 1,7,-1
 415 152 l 1,8,-1
 410 167 l 1,9,-1
 404 183 l 1,10,-1
 394 194 l 1,11,-1
 389 209 l 1,12,-1
 383 225 l 1,13,-1
 367 231 l 1,14,-1
 325 231 l 1,15,-1
 310 236 l 1,16,-1
 299 246 l 1,17,-1
 283 252 l 1,18,-1
 220 252 l 1,19,-1
 205 246 l 1,20,-1
 194 236 l 1,21,-1
 178 231 l 1,22,-1
 157 231 l 1,23,-1
 142 225 l 1,24,-1
 131 215 l 1,25,-1
 121 204 l 1,26,-1
 110 194 l 1,27,-1
 100 183 l 1,28,-1
 95 167 l 1,29,-1
 95 125 l 1,30,-1
 89 110 l 1,31,-1
 79 99 l 1,32,-1
 74 83 l 1,33,-1
 74 20 l 1,34,-1
 68 5 l 1,35,-1
 52 0 l 1,36,-1
 37 5 l 1,37,-1
 32 20 l 1,38,-1
 32 125 l 1,39,-1
 37 141 l 1,40,-1
 47 152 l 1,41,-1
 53 167 l 1,42,-1
 53 230 l 1,43,-1
 58 246 l 1,44,-1
 68 257 l 1,45,-1
 79 267 l 1,46,-1
 89 278 l 1,47,-1
 100 288 l 1,48,-1
 110 299 l 1,49,-1
 116 314 l 1,50,-1
 116 377 l 1,51,-1
 121 393 l 1,52,-1
 131 404 l 1,53,-1
 142 414 l 1,54,-1
 152 425 l 1,55,-1
 158 440 l 1,56,-1
 163 456 l 1,57,-1
 173 467 l 1,58,-1
 179 482 l 1,59,-1
 179 503 l 1,60,-1
 184 519 l 1,61,-1
 194 530 l 1,62,-1
 200 545 l 1,63,-1
 200 566 l 1,64,-1
 205 582 l 1,65,-1
 215 593 l 1,66,-1
 221 608 l 1,67,-1
 226 624 l 1,68,-1
 241 630 l 1,69,-1
 257 624 l 1,70,-1
 268 614 l 1,71,-1
 278 603 l 1,72,-1
 284 587 l 1,73,-1
 289 572 l 1,74,-1
 299 561 l 1,75,-1
 305 545 l 1,76,-1
 310 530 l 1,77,-1
 320 519 l 1,78,-1
 326 503 l 1,79,-1
 326 482 l 1,80,-1
 331 467 l 1,81,-1
 341 456 l 1,82,-1
 347 440 l 1,83,-1
 352 425 l 1,84,-1
 362 414 l 1,85,-1
 368 398 l 1,86,-1
 373 383 l 1,87,-1
 383 372 l 1,88,-1
 389 356 l 1,89,-1
 389 335 l 1,90,-1
 394 320 l 1,91,-1
 404 309 l 1,92,-1
 410 293 l 1,93,-1
 415 278 l 1,94,-1
 425 267 l 1,95,-1
 431 251 l 1,96,-1
 436 236 l 1,97,-1
 446 225 l 1,98,-1
 457 215 l 1,99,-1
 467 204 l 1,100,-1
 473 188 l 1,101,-1
 473 104 l 1,102,-1
 478 89 l 1,103,-1
 488 78 l 1,104,-1
 494 62 l 1,105,-1
 494 -1 l 1,106,-1
 488 -16 l 1,107,-1
 472 -21 l 1,0,-1
326 335 m 1,108,-1
 320 351 l 1,109,-1
 310 362 l 1,110,-1
 305 377 l 1,111,-1
 305 398 l 1,112,-1
 299 414 l 1,113,-1
 289 425 l 1,114,-1
 284 440 l 1,115,-1
 278 456 l 1,116,-1
 268 467 l 1,117,-1
 263 482 l 1,118,-1
 257 498 l 1,119,-1
 247 498 l 1,120,-1
 242 482 l 1,121,-1
 236 467 l 1,122,-1
 226 456 l 1,123,-1
 221 440 l 1,124,-1
 221 419 l 1,125,-1
 215 404 l 1,126,-1
 205 393 l 1,127,-1
 194 383 l 1,128,-1
 184 372 l 1,129,-1
 179 356 l 1,130,-1
 173 341 l 1,131,-1
 163 330 l 1,132,-1
 163 320 l 1,133,-1
 178 315 l 1,134,-1
 304 315 l 1,135,-1
 320 320 l 1,136,-1
 326 335 l 1,108,-1
EndSplineSet
Validated: 1
EndChar

StartChar: B
Encoding: 293 66 37
Width: 442
GlyphClass: 2
Flags: W
LayerCount: 2
Fore
SplineSet
394 57 m 1,0,-1
 383 47 l 1,1,-1
 367 42 l 1,2,-1
 352 36 l 1,3,-1
 341 26 l 1,4,-1
 325 21 l 1,5,-1
 157 21 l 1,6,-1
 142 15 l 1,7,-1
 131 5 l 1,8,-1
 115 0 l 1,9,-1
 100 5 l 1,10,-1
 95 20 l 1,11,-1
 89 36 l 1,12,-1
 79 47 l 1,13,-1
 74 62 l 1,14,-1
 79 78 l 1,15,-1
 89 89 l 1,16,-1
 95 104 l 1,17,-1
 95 251 l 1,18,-1
 89 267 l 1,19,-1
 73 273 l 1,20,-1
 52 273 l 1,21,-1
 37 278 l 1,22,-1
 32 293 l 1,23,-1
 32 314 l 1,24,-1
 37 330 l 1,25,-1
 52 336 l 1,26,-1
 68 341 l 1,27,-1
 74 356 l 1,28,-1
 74 419 l 1,29,-1
 68 435 l 1,30,-1
 58 446 l 1,31,-1
 53 461 l 1,32,-1
 53 566 l 1,33,-1
 58 582 l 1,34,-1
 68 593 l 1,35,-1
 79 603 l 1,36,-1
 94 609 l 1,37,-1
 199 609 l 1,38,-1
 215 603 l 1,39,-1
 226 593 l 1,40,-1
 241 588 l 1,41,-1
 262 588 l 1,42,-1
 278 582 l 1,43,-1
 289 572 l 1,44,-1
 299 561 l 1,45,-1
 305 545 l 1,46,-1
 310 530 l 1,47,-1
 320 519 l 1,48,-1
 326 503 l 1,49,-1
 331 488 l 1,50,-1
 341 477 l 1,51,-1
 347 461 l 1,52,-1
 347 398 l 1,53,-1
 341 383 l 1,54,-1
 325 378 l 1,55,-1
 310 372 l 1,56,-1
 299 362 l 1,57,-1
 289 351 l 1,58,-1
 284 335 l 1,59,-1
 289 320 l 1,60,-1
 304 315 l 1,61,-1
 320 309 l 1,62,-1
 331 299 l 1,63,-1
 346 294 l 1,64,-1
 362 288 l 1,65,-1
 373 278 l 1,66,-1
 383 267 l 1,67,-1
 394 257 l 1,68,-1
 404 246 l 1,69,-1
 410 230 l 1,70,-1
 410 83 l 1,71,-1
 404 68 l 1,72,-1
 394 57 l 1,0,-1
368 125 m 1,73,-1
 368 188 l 1,74,-1
 362 204 l 1,75,-1
 352 215 l 1,76,-1
 341 225 l 1,77,-1
 325 231 l 1,78,-1
 310 236 l 1,79,-1
 299 246 l 1,80,-1
 283 252 l 1,81,-1
 262 252 l 1,82,-1
 247 257 l 1,83,-1
 236 267 l 1,84,-1
 220 273 l 1,85,-1
 157 273 l 1,86,-1
 142 267 l 1,87,-1
 137 251 l 1,88,-1
 137 83 l 1,89,-1
 142 68 l 1,90,-1
 157 63 l 1,91,-1
 304 63 l 1,92,-1
 320 68 l 1,93,-1
 331 78 l 1,94,-1
 341 89 l 1,95,-1
 352 99 l 1,96,-1
 362 110 l 1,97,-1
 368 125 l 1,73,-1
305 440 m 1,98,-1
 299 456 l 1,99,-1
 289 467 l 1,100,-1
 278 477 l 1,101,-1
 268 488 l 1,102,-1
 263 503 l 1,103,-1
 257 519 l 1,104,-1
 247 530 l 1,105,-1
 236 540 l 1,106,-1
 220 546 l 1,107,-1
 205 551 l 1,108,-1
 194 561 l 1,109,-1
 178 567 l 1,110,-1
 136 567 l 1,111,-1
 121 561 l 1,112,-1
 110 551 l 1,113,-1
 100 540 l 1,114,-1
 95 524 l 1,115,-1
 95 503 l 1,116,-1
 100 488 l 1,117,-1
 110 477 l 1,118,-1
 116 461 l 1,119,-1
 116 377 l 1,120,-1
 121 362 l 1,121,-1
 131 351 l 1,122,-1
 142 341 l 1,123,-1
 157 336 l 1,124,-1
 173 341 l 1,125,-1
 184 351 l 1,126,-1
 194 362 l 1,127,-1
 205 372 l 1,128,-1
 220 378 l 1,129,-1
 236 383 l 1,130,-1
 247 393 l 1,131,-1
 262 399 l 1,132,-1
 278 404 l 1,133,-1
 289 414 l 1,134,-1
 299 425 l 1,135,-1
 305 440 l 1,98,-1
EndSplineSet
Validated: 1
EndChar

StartChar: C
Encoding: 294 67 38
Width: 547
GlyphClass: 2
Flags: W
LayerCount: 2
Fore
SplineSet
499 120 m 1,0,-1
 488 110 l 1,1,-1
 478 99 l 1,2,-1
 467 89 l 1,3,-1
 451 84 l 1,4,-1
 436 78 l 1,5,-1
 425 68 l 1,6,-1
 415 57 l 1,7,-1
 404 47 l 1,8,-1
 388 42 l 1,9,-1
 373 36 l 1,10,-1
 362 26 l 1,11,-1
 346 21 l 1,12,-1
 136 21 l 1,13,-1
 121 26 l 1,14,-1
 110 36 l 1,15,-1
 100 47 l 1,16,-1
 89 57 l 1,17,-1
 79 68 l 1,18,-1
 68 78 l 1,19,-1
 58 89 l 1,20,-1
 53 104 l 1,21,-1
 53 146 l 1,22,-1
 47 162 l 1,23,-1
 37 173 l 1,24,-1
 32 188 l 1,25,-1
 32 419 l 1,26,-1
 37 435 l 1,27,-1
 47 446 l 1,28,-1
 53 461 l 1,29,-1
 53 482 l 1,30,-1
 58 498 l 1,31,-1
 68 509 l 1,32,-1
 79 519 l 1,33,-1
 89 530 l 1,34,-1
 100 540 l 1,35,-1
 110 551 l 1,36,-1
 121 561 l 1,37,-1
 131 572 l 1,38,-1
 142 582 l 1,39,-1
 157 588 l 1,40,-1
 178 588 l 1,41,-1
 194 593 l 1,42,-1
 205 603 l 1,43,-1
 220 609 l 1,44,-1
 325 609 l 1,45,-1
 341 603 l 1,46,-1
 352 593 l 1,47,-1
 362 582 l 1,48,-1
 368 566 l 1,49,-1
 373 551 l 1,50,-1
 383 540 l 1,51,-1
 389 524 l 1,52,-1
 394 509 l 1,53,-1
 404 498 l 1,54,-1
 410 482 l 1,55,-1
 415 467 l 1,56,-1
 425 456 l 1,57,-1
 431 440 l 1,58,-1
 436 425 l 1,59,-1
 451 420 l 1,60,-1
 467 414 l 1,61,-1
 473 398 l 1,62,-1
 473 356 l 1,63,-1
 467 341 l 1,64,-1
 451 336 l 1,65,-1
 409 336 l 1,66,-1
 394 341 l 1,67,-1
 389 356 l 1,68,-1
 389 398 l 1,69,-1
 383 414 l 1,70,-1
 373 425 l 1,71,-1
 368 440 l 1,72,-1
 362 456 l 1,73,-1
 352 467 l 1,74,-1
 341 477 l 1,75,-1
 331 488 l 1,76,-1
 326 503 l 1,77,-1
 326 524 l 1,78,-1
 320 540 l 1,79,-1
 304 546 l 1,80,-1
 262 546 l 1,81,-1
 247 540 l 1,82,-1
 236 530 l 1,83,-1
 220 525 l 1,84,-1
 199 525 l 1,85,-1
 184 519 l 1,86,-1
 173 509 l 1,87,-1
 157 504 l 1,88,-1
 142 498 l 1,89,-1
 137 482 l 1,90,-1
 131 467 l 1,91,-1
 115 462 l 1,92,-1
 100 456 l 1,93,-1
 95 440 l 1,94,-1
 95 419 l 1,95,-1
 89 404 l 1,96,-1
 79 393 l 1,97,-1
 74 377 l 1,98,-1
 74 230 l 1,99,-1
 79 215 l 1,100,-1
 89 204 l 1,101,-1
 95 188 l 1,102,-1
 95 167 l 1,103,-1
 100 152 l 1,104,-1
 110 141 l 1,105,-1
 116 125 l 1,106,-1
 121 110 l 1,107,-1
 136 105 l 1,108,-1
 152 99 l 1,109,-1
 163 89 l 1,110,-1
 178 84 l 1,111,-1
 325 84 l 1,112,-1
 341 89 l 1,113,-1
 352 99 l 1,114,-1
 367 105 l 1,115,-1
 383 110 l 1,116,-1
 394 120 l 1,117,-1
 404 131 l 1,118,-1
 415 141 l 1,119,-1
 430 147 l 1,120,-1
 493 147 l 1,121,-1
 509 141 l 1,122,-1
 509 131 l 1,123,-1
 499 120 l 1,0,-1
EndSplineSet
Validated: 1
EndChar

StartChar: D
Encoding: 295 68 39
Width: 463
GlyphClass: 2
Flags: W
LayerCount: 2
Fore
SplineSet
415 99 m 1,0,-1
 410 83 l 1,1,-1
 404 68 l 1,2,-1
 388 63 l 1,3,-1
 373 57 l 1,4,-1
 362 47 l 1,5,-1
 346 42 l 1,6,-1
 331 36 l 1,7,-1
 320 26 l 1,8,-1
 304 21 l 1,9,-1
 289 15 l 1,10,-1
 278 5 l 1,11,-1
 262 0 l 1,12,-1
 247 -6 l 1,13,-1
 236 -16 l 1,14,-1
 220 -21 l 1,15,-1
 94 -21 l 1,16,-1
 79 -16 l 1,17,-1
 68 -6 l 1,18,-1
 58 5 l 1,19,-1
 47 15 l 1,20,-1
 37 26 l 1,21,-1
 32 41 l 1,22,-1
 32 104 l 1,23,-1
 37 120 l 1,24,-1
 47 131 l 1,25,-1
 47 141 l 1,26,-1
 37 152 l 1,27,-1
 32 167 l 1,28,-1
 32 545 l 1,29,-1
 37 561 l 1,30,-1
 47 572 l 1,31,-1
 58 582 l 1,32,-1
 73 588 l 1,33,-1
 89 582 l 1,34,-1
 100 572 l 1,35,-1
 115 567 l 1,36,-1
 241 567 l 1,37,-1
 257 561 l 1,38,-1
 268 551 l 1,39,-1
 283 546 l 1,40,-1
 299 540 l 1,41,-1
 310 530 l 1,42,-1
 320 519 l 1,43,-1
 331 509 l 1,44,-1
 341 498 l 1,45,-1
 352 488 l 1,46,-1
 362 477 l 1,47,-1
 373 467 l 1,48,-1
 383 456 l 1,49,-1
 394 446 l 1,50,-1
 404 435 l 1,51,-1
 410 419 l 1,52,-1
 415 404 l 1,53,-1
 425 393 l 1,54,-1
 431 377 l 1,55,-1
 431 125 l 1,56,-1
 425 110 l 1,57,-1
 415 99 l 1,0,-1
389 167 m 1,58,-1
 389 314 l 1,59,-1
 383 330 l 1,60,-1
 373 341 l 1,61,-1
 368 356 l 1,62,-1
 362 372 l 1,63,-1
 352 383 l 1,64,-1
 347 398 l 1,65,-1
 341 414 l 1,66,-1
 325 420 l 1,67,-1
 310 425 l 1,68,-1
 305 440 l 1,69,-1
 299 456 l 1,70,-1
 283 462 l 1,71,-1
 268 467 l 1,72,-1
 257 477 l 1,73,-1
 241 483 l 1,74,-1
 226 488 l 1,75,-1
 215 498 l 1,76,-1
 199 504 l 1,77,-1
 136 504 l 1,78,-1
 121 498 l 1,79,-1
 110 488 l 1,80,-1
 94 483 l 1,81,-1
 79 477 l 1,82,-1
 74 461 l 1,83,-1
 74 230 l 1,84,-1
 79 215 l 1,85,-1
 89 204 l 1,86,-1
 95 188 l 1,87,-1
 95 83 l 1,88,-1
 100 68 l 1,89,-1
 110 57 l 1,90,-1
 121 47 l 1,91,-1
 136 42 l 1,92,-1
 178 42 l 1,93,-1
 194 47 l 1,94,-1
 205 57 l 1,95,-1
 220 63 l 1,96,-1
 236 68 l 1,97,-1
 247 78 l 1,98,-1
 262 84 l 1,99,-1
 278 89 l 1,100,-1
 289 99 l 1,101,-1
 304 105 l 1,102,-1
 325 105 l 1,103,-1
 341 110 l 1,104,-1
 352 120 l 1,105,-1
 362 131 l 1,106,-1
 373 141 l 1,107,-1
 383 152 l 1,108,-1
 389 167 l 1,58,-1
EndSplineSet
Validated: 1
EndChar

StartChar: E
Encoding: 296 69 40
Width: 358
GlyphClass: 2
Flags: W
LayerCount: 2
Fore
SplineSet
304 42 m 1,0,-1
 289 36 l 1,1,-1
 278 26 l 1,2,-1
 262 21 l 1,3,-1
 157 21 l 1,4,-1
 142 15 l 1,5,-1
 131 5 l 1,6,-1
 115 0 l 1,7,-1
 52 0 l 1,8,-1
 37 5 l 1,9,-1
 32 20 l 1,10,-1
 32 461 l 1,11,-1
 37 477 l 1,12,-1
 47 488 l 1,13,-1
 53 503 l 1,14,-1
 53 566 l 1,15,-1
 58 582 l 1,16,-1
 73 588 l 1,17,-1
 262 588 l 1,18,-1
 278 582 l 1,19,-1
 289 572 l 1,20,-1
 299 561 l 1,21,-1
 305 545 l 1,22,-1
 305 524 l 1,23,-1
 299 509 l 1,24,-1
 283 504 l 1,25,-1
 262 504 l 1,26,-1
 247 509 l 1,27,-1
 236 519 l 1,28,-1
 220 525 l 1,29,-1
 115 525 l 1,30,-1
 100 519 l 1,31,-1
 95 503 l 1,32,-1
 95 461 l 1,33,-1
 89 446 l 1,34,-1
 79 435 l 1,35,-1
 74 419 l 1,36,-1
 74 356 l 1,37,-1
 79 341 l 1,38,-1
 94 336 l 1,39,-1
 220 336 l 1,40,-1
 236 330 l 1,41,-1
 242 314 l 1,42,-1
 242 293 l 1,43,-1
 236 278 l 1,44,-1
 220 273 l 1,45,-1
 94 273 l 1,46,-1
 79 267 l 1,47,-1
 74 251 l 1,48,-1
 74 83 l 1,49,-1
 79 68 l 1,50,-1
 94 63 l 1,51,-1
 110 68 l 1,52,-1
 121 78 l 1,53,-1
 136 84 l 1,54,-1
 178 84 l 1,55,-1
 194 89 l 1,56,-1
 205 99 l 1,57,-1
 220 105 l 1,58,-1
 262 105 l 1,59,-1
 278 110 l 1,60,-1
 289 120 l 1,61,-1
 304 126 l 1,62,-1
 320 120 l 1,63,-1
 326 104 l 1,64,-1
 326 62 l 1,65,-1
 320 47 l 1,66,-1
 304 42 l 1,0,-1
EndSplineSet
Validated: 1
EndChar

StartChar: F
Encoding: 297 70 41
Width: 337
GlyphClass: 2
Flags: W
LayerCount: 2
Fore
SplineSet
283 273 m 1,0,-1
 157 273 l 1,1,-1
 142 267 l 1,2,-1
 131 257 l 1,3,-1
 115 252 l 1,4,-1
 100 246 l 1,5,-1
 95 230 l 1,6,-1
 95 188 l 1,7,-1
 100 173 l 1,8,-1
 110 162 l 1,9,-1
 116 146 l 1,10,-1
 116 125 l 1,11,-1
 121 110 l 1,12,-1
 131 99 l 1,13,-1
 137 83 l 1,14,-1
 137 62 l 1,15,-1
 131 47 l 1,16,-1
 121 36 l 1,17,-1
 116 20 l 1,18,-1
 110 5 l 1,19,-1
 94 0 l 1,20,-1
 79 5 l 1,21,-1
 74 20 l 1,22,-1
 74 104 l 1,23,-1
 68 120 l 1,24,-1
 58 131 l 1,25,-1
 53 146 l 1,26,-1
 53 293 l 1,27,-1
 47 309 l 1,28,-1
 37 320 l 1,29,-1
 32 335 l 1,30,-1
 32 587 l 1,31,-1
 37 603 l 1,32,-1
 52 609 l 1,33,-1
 283 609 l 1,34,-1
 299 603 l 1,35,-1
 305 587 l 1,36,-1
 305 566 l 1,37,-1
 299 551 l 1,38,-1
 283 546 l 1,39,-1
 115 546 l 1,40,-1
 100 540 l 1,41,-1
 89 530 l 1,42,-1
 79 519 l 1,43,-1
 79 509 l 1,44,-1
 89 498 l 1,45,-1
 95 482 l 1,46,-1
 95 356 l 1,47,-1
 100 341 l 1,48,-1
 115 336 l 1,49,-1
 283 336 l 1,50,-1
 299 330 l 1,51,-1
 305 314 l 1,52,-1
 305 293 l 1,53,-1
 299 278 l 1,54,-1
 283 273 l 1,0,-1
EndSplineSet
Validated: 1
EndChar

StartChar: G
Encoding: 298 71 42
Width: 610
GlyphClass: 2
Flags: W
LayerCount: 2
Fore
SplineSet
562 120 m 1,0,-1
 557 104 l 1,1,-1
 551 89 l 1,2,-1
 535 84 l 1,3,-1
 514 84 l 1,4,-1
 499 78 l 1,5,-1
 494 62 l 1,6,-1
 494 41 l 1,7,-1
 488 26 l 1,8,-1
 478 15 l 1,9,-1
 473 -1 l 1,10,-1
 467 -16 l 1,11,-1
 451 -21 l 1,12,-1
 241 -21 l 1,13,-1
 226 -16 l 1,14,-1
 215 -6 l 1,15,-1
 199 0 l 1,16,-1
 184 5 l 1,17,-1
 173 15 l 1,18,-1
 157 21 l 1,19,-1
 142 26 l 1,20,-1
 131 36 l 1,21,-1
 121 47 l 1,22,-1
 110 57 l 1,23,-1
 100 68 l 1,24,-1
 95 83 l 1,25,-1
 89 99 l 1,26,-1
 73 105 l 1,27,-1
 58 110 l 1,28,-1
 53 125 l 1,29,-1
 47 141 l 1,30,-1
 37 152 l 1,31,-1
 32 167 l 1,32,-1
 32 272 l 1,33,-1
 37 288 l 1,34,-1
 47 299 l 1,35,-1
 53 314 l 1,36,-1
 58 330 l 1,37,-1
 68 341 l 1,38,-1
 74 356 l 1,39,-1
 79 372 l 1,40,-1
 89 383 l 1,41,-1
 100 393 l 1,42,-1
 110 404 l 1,43,-1
 116 419 l 1,44,-1
 121 435 l 1,45,-1
 131 446 l 1,46,-1
 137 461 l 1,47,-1
 142 477 l 1,48,-1
 152 488 l 1,49,-1
 158 503 l 1,50,-1
 163 519 l 1,51,-1
 173 530 l 1,52,-1
 184 540 l 1,53,-1
 199 546 l 1,54,-1
 215 551 l 1,55,-1
 226 561 l 1,56,-1
 241 567 l 1,57,-1
 262 567 l 1,58,-1
 278 572 l 1,59,-1
 289 582 l 1,60,-1
 304 588 l 1,61,-1
 367 588 l 1,62,-1
 383 582 l 1,63,-1
 394 572 l 1,64,-1
 409 567 l 1,65,-1
 425 561 l 1,66,-1
 436 551 l 1,67,-1
 451 546 l 1,68,-1
 467 540 l 1,69,-1
 478 530 l 1,70,-1
 493 525 l 1,71,-1
 509 519 l 1,72,-1
 515 503 l 1,73,-1
 515 482 l 1,74,-1
 509 467 l 1,75,-1
 493 462 l 1,76,-1
 451 462 l 1,77,-1
 436 467 l 1,78,-1
 425 477 l 1,79,-1
 409 483 l 1,80,-1
 394 488 l 1,81,-1
 383 498 l 1,82,-1
 367 504 l 1,83,-1
 352 509 l 1,84,-1
 341 519 l 1,85,-1
 331 519 l 1,86,-1
 320 509 l 1,87,-1
 304 504 l 1,88,-1
 283 504 l 1,89,-1
 268 498 l 1,90,-1
 257 488 l 1,91,-1
 241 483 l 1,92,-1
 226 477 l 1,93,-1
 215 467 l 1,94,-1
 205 456 l 1,95,-1
 200 440 l 1,96,-1
 194 425 l 1,97,-1
 184 414 l 1,98,-1
 179 398 l 1,99,-1
 173 383 l 1,100,-1
 163 372 l 1,101,-1
 152 362 l 1,102,-1
 142 351 l 1,103,-1
 137 335 l 1,104,-1
 131 320 l 1,105,-1
 121 309 l 1,106,-1
 116 293 l 1,107,-1
 110 278 l 1,108,-1
 100 267 l 1,109,-1
 95 251 l 1,110,-1
 89 236 l 1,111,-1
 79 225 l 1,112,-1
 74 209 l 1,113,-1
 79 194 l 1,114,-1
 89 183 l 1,115,-1
 100 173 l 1,116,-1
 115 168 l 1,117,-1
 136 168 l 1,118,-1
 152 162 l 1,119,-1
 158 146 l 1,120,-1
 158 125 l 1,121,-1
 163 110 l 1,122,-1
 173 99 l 1,123,-1
 184 89 l 1,124,-1
 194 78 l 1,125,-1
 205 68 l 1,126,-1
 220 63 l 1,127,-1
 241 63 l 1,128,-1
 257 57 l 1,129,-1
 268 47 l 1,130,-1
 283 42 l 1,131,-1
 409 42 l 1,132,-1
 425 47 l 1,133,-1
 436 57 l 1,134,-1
 446 68 l 1,135,-1
 452 83 l 1,136,-1
 457 99 l 1,137,-1
 472 105 l 1,138,-1
 488 110 l 1,139,-1
 494 125 l 1,140,-1
 499 141 l 1,141,-1
 509 152 l 1,142,-1
 520 162 l 1,143,-1
 530 173 l 1,144,-1
 536 188 l 1,145,-1
 536 209 l 1,146,-1
 530 225 l 1,147,-1
 520 236 l 1,148,-1
 509 246 l 1,149,-1
 493 252 l 1,150,-1
 478 246 l 1,151,-1
 467 236 l 1,152,-1
 451 231 l 1,153,-1
 346 231 l 1,154,-1
 331 236 l 1,155,-1
 326 251 l 1,156,-1
 326 272 l 1,157,-1
 331 288 l 1,158,-1
 346 294 l 1,159,-1
 409 294 l 1,160,-1
 425 299 l 1,161,-1
 436 309 l 1,162,-1
 451 315 l 1,163,-1
 535 315 l 1,164,-1
 551 309 l 1,165,-1
 562 299 l 1,166,-1
 572 288 l 1,167,-1
 578 272 l 1,168,-1
 578 146 l 1,169,-1
 572 131 l 1,170,-1
 562 120 l 1,0,-1
EndSplineSet
Validated: 1
EndChar

StartChar: H
Encoding: 299 72 43
Width: 505
GlyphClass: 2
Flags: W
LayerCount: 2
Fore
SplineSet
451 42 m 1,0,-1
 436 47 l 1,1,-1
 431 62 l 1,2,-1
 425 78 l 1,3,-1
 415 89 l 1,4,-1
 410 104 l 1,5,-1
 410 314 l 1,6,-1
 404 330 l 1,7,-1
 388 336 l 1,8,-1
 373 330 l 1,9,-1
 362 320 l 1,10,-1
 346 315 l 1,11,-1
 157 315 l 1,12,-1
 142 309 l 1,13,-1
 137 293 l 1,14,-1
 137 272 l 1,15,-1
 131 257 l 1,16,-1
 121 246 l 1,17,-1
 116 230 l 1,18,-1
 116 62 l 1,19,-1
 110 47 l 1,20,-1
 94 42 l 1,21,-1
 79 47 l 1,22,-1
 74 62 l 1,23,-1
 74 293 l 1,24,-1
 79 309 l 1,25,-1
 89 320 l 1,26,-1
 95 335 l 1,27,-1
 95 377 l 1,28,-1
 89 393 l 1,29,-1
 79 404 l 1,30,-1
 74 419 l 1,31,-1
 74 503 l 1,32,-1
 68 519 l 1,33,-1
 58 530 l 1,34,-1
 53 545 l 1,35,-1
 47 561 l 1,36,-1
 37 572 l 1,37,-1
 32 587 l 1,38,-1
 32 608 l 1,39,-1
 37 624 l 1,40,-1
 52 630 l 1,41,-1
 73 630 l 1,42,-1
 89 624 l 1,43,-1
 95 608 l 1,44,-1
 100 593 l 1,45,-1
 110 582 l 1,46,-1
 116 566 l 1,47,-1
 116 461 l 1,48,-1
 121 446 l 1,49,-1
 131 435 l 1,50,-1
 137 419 l 1,51,-1
 137 398 l 1,52,-1
 142 383 l 1,53,-1
 157 378 l 1,54,-1
 304 378 l 1,55,-1
 320 383 l 1,56,-1
 331 393 l 1,57,-1
 346 399 l 1,58,-1
 388 399 l 1,59,-1
 404 404 l 1,60,-1
 410 419 l 1,61,-1
 410 545 l 1,62,-1
 404 561 l 1,63,-1
 394 572 l 1,64,-1
 389 587 l 1,65,-1
 389 650 l 1,66,-1
 394 666 l 1,67,-1
 409 672 l 1,68,-1
 425 666 l 1,69,-1
 431 650 l 1,70,-1
 431 629 l 1,71,-1
 436 614 l 1,72,-1
 446 603 l 1,73,-1
 452 587 l 1,74,-1
 452 293 l 1,75,-1
 457 278 l 1,76,-1
 467 267 l 1,77,-1
 473 251 l 1,78,-1
 473 62 l 1,79,-1
 467 47 l 1,80,-1
 451 42 l 1,0,-1
EndSplineSet
Validated: 1
EndChar

StartChar: I
Encoding: 300 73 44
Width: 337
GlyphClass: 2
Flags: W
LayerCount: 2
Fore
SplineSet
283 21 m 1,0,-1
 94 21 l 1,1,-1
 79 26 l 1,2,-1
 74 41 l 1,3,-1
 74 62 l 1,4,-1
 79 78 l 1,5,-1
 94 84 l 1,6,-1
 157 84 l 1,7,-1
 173 89 l 1,8,-1
 179 104 l 1,9,-1
 179 293 l 1,10,-1
 173 309 l 1,11,-1
 163 320 l 1,12,-1
 158 335 l 1,13,-1
 158 461 l 1,14,-1
 152 477 l 1,15,-1
 142 488 l 1,16,-1
 137 503 l 1,17,-1
 131 519 l 1,18,-1
 115 525 l 1,19,-1
 73 525 l 1,20,-1
 58 530 l 1,21,-1
 47 540 l 1,22,-1
 37 551 l 1,23,-1
 32 566 l 1,24,-1
 32 587 l 1,25,-1
 37 603 l 1,26,-1
 52 609 l 1,27,-1
 157 609 l 1,28,-1
 173 603 l 1,29,-1
 184 593 l 1,30,-1
 199 588 l 1,31,-1
 220 588 l 1,32,-1
 236 582 l 1,33,-1
 242 566 l 1,34,-1
 242 545 l 1,35,-1
 236 530 l 1,36,-1
 220 525 l 1,37,-1
 205 519 l 1,38,-1
 200 503 l 1,39,-1
 200 377 l 1,40,-1
 205 362 l 1,41,-1
 215 351 l 1,42,-1
 221 335 l 1,43,-1
 221 104 l 1,44,-1
 226 89 l 1,45,-1
 241 84 l 1,46,-1
 283 84 l 1,47,-1
 299 78 l 1,48,-1
 305 62 l 1,49,-1
 305 41 l 1,50,-1
 299 26 l 1,51,-1
 283 21 l 1,0,-1
EndSplineSet
Validated: 1
EndChar

StartChar: J
Encoding: 301 74 45
Width: 400
GlyphClass: 2
Flags: W
LayerCount: 2
Fore
SplineSet
346 609 m 1,0,-1
 331 603 l 1,1,-1
 320 593 l 1,2,-1
 304 588 l 1,3,-1
 289 582 l 1,4,-1
 278 572 l 1,5,-1
 262 567 l 1,6,-1
 247 561 l 1,7,-1
 242 545 l 1,8,-1
 242 398 l 1,9,-1
 247 383 l 1,10,-1
 257 372 l 1,11,-1
 263 356 l 1,12,-1
 263 335 l 1,13,-1
 268 320 l 1,14,-1
 278 309 l 1,15,-1
 284 293 l 1,16,-1
 284 209 l 1,17,-1
 289 194 l 1,18,-1
 299 183 l 1,19,-1
 305 167 l 1,20,-1
 305 104 l 1,21,-1
 299 89 l 1,22,-1
 289 78 l 1,23,-1
 284 62 l 1,24,-1
 278 47 l 1,25,-1
 262 42 l 1,26,-1
 247 36 l 1,27,-1
 236 26 l 1,28,-1
 220 21 l 1,29,-1
 115 21 l 1,30,-1
 100 26 l 1,31,-1
 95 41 l 1,32,-1
 89 57 l 1,33,-1
 79 68 l 1,34,-1
 74 83 l 1,35,-1
 68 99 l 1,36,-1
 58 110 l 1,37,-1
 53 125 l 1,38,-1
 53 146 l 1,39,-1
 47 162 l 1,40,-1
 37 173 l 1,41,-1
 32 188 l 1,42,-1
 32 251 l 1,43,-1
 37 267 l 1,44,-1
 52 273 l 1,45,-1
 68 267 l 1,46,-1
 74 251 l 1,47,-1
 79 236 l 1,48,-1
 89 225 l 1,49,-1
 95 209 l 1,50,-1
 95 167 l 1,51,-1
 100 152 l 1,52,-1
 110 141 l 1,53,-1
 116 125 l 1,54,-1
 121 110 l 1,55,-1
 131 99 l 1,56,-1
 142 89 l 1,57,-1
 157 84 l 1,58,-1
 178 84 l 1,59,-1
 194 89 l 1,60,-1
 205 99 l 1,61,-1
 220 105 l 1,62,-1
 241 105 l 1,63,-1
 257 110 l 1,64,-1
 257 120 l 1,65,-1
 247 131 l 1,66,-1
 242 146 l 1,67,-1
 242 230 l 1,68,-1
 236 246 l 1,69,-1
 226 257 l 1,70,-1
 221 272 l 1,71,-1
 221 335 l 1,72,-1
 215 351 l 1,73,-1
 205 362 l 1,74,-1
 200 377 l 1,75,-1
 200 545 l 1,76,-1
 194 561 l 1,77,-1
 178 567 l 1,78,-1
 136 567 l 1,79,-1
 121 561 l 1,80,-1
 110 551 l 1,81,-1
 94 546 l 1,82,-1
 73 546 l 1,83,-1
 58 551 l 1,84,-1
 53 566 l 1,85,-1
 53 587 l 1,86,-1
 58 603 l 1,87,-1
 68 614 l 1,88,-1
 79 624 l 1,89,-1
 94 630 l 1,90,-1
 220 630 l 1,91,-1
 236 635 l 1,92,-1
 247 645 l 1,93,-1
 262 651 l 1,94,-1
 278 656 l 1,95,-1
 289 666 l 1,96,-1
 304 672 l 1,97,-1
 346 672 l 1,98,-1
 362 666 l 1,99,-1
 368 650 l 1,100,-1
 368 629 l 1,101,-1
 362 614 l 1,102,-1
 346 609 l 1,0,-1
EndSplineSet
Validated: 1
EndChar

StartChar: K
Encoding: 302 75 46
Width: 421
GlyphClass: 2
Flags: W
LayerCount: 2
Fore
SplineSet
367 0 m 1,0,-1
 346 0 l 1,1,-1
 331 5 l 1,2,-1
 326 20 l 1,3,-1
 320 36 l 1,4,-1
 310 47 l 1,5,-1
 299 57 l 1,6,-1
 289 68 l 1,7,-1
 278 78 l 1,8,-1
 268 89 l 1,9,-1
 257 99 l 1,10,-1
 247 110 l 1,11,-1
 242 125 l 1,12,-1
 236 141 l 1,13,-1
 226 152 l 1,14,-1
 215 162 l 1,15,-1
 205 173 l 1,16,-1
 200 188 l 1,17,-1
 194 204 l 1,18,-1
 184 215 l 1,19,-1
 173 225 l 1,20,-1
 163 236 l 1,21,-1
 152 246 l 1,22,-1
 142 257 l 1,23,-1
 131 267 l 1,24,-1
 121 267 l 1,25,-1
 116 251 l 1,26,-1
 116 62 l 1,27,-1
 110 47 l 1,28,-1
 100 36 l 1,29,-1
 89 26 l 1,30,-1
 73 21 l 1,31,-1
 58 26 l 1,32,-1
 53 41 l 1,33,-1
 53 62 l 1,34,-1
 58 78 l 1,35,-1
 68 89 l 1,36,-1
 74 104 l 1,37,-1
 74 293 l 1,38,-1
 68 309 l 1,39,-1
 58 320 l 1,40,-1
 53 335 l 1,41,-1
 53 398 l 1,42,-1
 47 414 l 1,43,-1
 37 425 l 1,44,-1
 32 440 l 1,45,-1
 32 650 l 1,46,-1
 37 666 l 1,47,-1
 52 672 l 1,48,-1
 68 666 l 1,49,-1
 74 650 l 1,50,-1
 74 503 l 1,51,-1
 79 488 l 1,52,-1
 89 477 l 1,53,-1
 95 461 l 1,54,-1
 95 440 l 1,55,-1
 100 425 l 1,56,-1
 110 425 l 1,57,-1
 121 435 l 1,58,-1
 131 446 l 1,59,-1
 137 461 l 1,60,-1
 142 477 l 1,61,-1
 152 488 l 1,62,-1
 163 498 l 1,63,-1
 173 509 l 1,64,-1
 179 524 l 1,65,-1
 184 540 l 1,66,-1
 194 551 l 1,67,-1
 205 561 l 1,68,-1
 215 572 l 1,69,-1
 221 587 l 1,70,-1
 226 603 l 1,71,-1
 236 614 l 1,72,-1
 247 624 l 1,73,-1
 257 635 l 1,74,-1
 268 645 l 1,75,-1
 283 651 l 1,76,-1
 299 645 l 1,77,-1
 305 629 l 1,78,-1
 305 587 l 1,79,-1
 299 572 l 1,80,-1
 289 561 l 1,81,-1
 278 551 l 1,82,-1
 268 540 l 1,83,-1
 257 530 l 1,84,-1
 247 519 l 1,85,-1
 242 503 l 1,86,-1
 236 488 l 1,87,-1
 226 477 l 1,88,-1
 215 467 l 1,89,-1
 205 456 l 1,90,-1
 200 440 l 1,91,-1
 194 425 l 1,92,-1
 184 414 l 1,93,-1
 179 398 l 1,94,-1
 173 383 l 1,95,-1
 163 372 l 1,96,-1
 158 356 l 1,97,-1
 163 341 l 1,98,-1
 173 330 l 1,99,-1
 184 320 l 1,100,-1
 194 309 l 1,101,-1
 205 299 l 1,102,-1
 215 288 l 1,103,-1
 221 272 l 1,104,-1
 226 257 l 1,105,-1
 236 246 l 1,106,-1
 247 236 l 1,107,-1
 257 225 l 1,108,-1
 268 215 l 1,109,-1
 278 204 l 1,110,-1
 289 194 l 1,111,-1
 299 183 l 1,112,-1
 310 173 l 1,113,-1
 320 162 l 1,114,-1
 326 146 l 1,115,-1
 331 131 l 1,116,-1
 341 120 l 1,117,-1
 347 104 l 1,118,-1
 352 89 l 1,119,-1
 367 84 l 1,120,-1
 383 78 l 1,121,-1
 389 62 l 1,122,-1
 389 20 l 1,123,-1
 383 5 l 1,124,-1
 367 0 l 1,0,-1
EndSplineSet
Validated: 1
EndChar

StartChar: L
Encoding: 303 76 47
Width: 379
GlyphClass: 2
Flags: W
LayerCount: 2
Fore
SplineSet
325 0 m 1,0,-1
 157 0 l 1,1,-1
 142 5 l 1,2,-1
 131 15 l 1,3,-1
 115 21 l 1,4,-1
 52 21 l 1,5,-1
 37 26 l 1,6,-1
 32 41 l 1,7,-1
 32 146 l 1,8,-1
 37 162 l 1,9,-1
 47 173 l 1,10,-1
 53 188 l 1,11,-1
 53 314 l 1,12,-1
 58 330 l 1,13,-1
 68 341 l 1,14,-1
 74 356 l 1,15,-1
 74 629 l 1,16,-1
 79 645 l 1,17,-1
 89 656 l 1,18,-1
 100 666 l 1,19,-1
 115 672 l 1,20,-1
 131 666 l 1,21,-1
 137 650 l 1,22,-1
 137 629 l 1,23,-1
 131 614 l 1,24,-1
 121 603 l 1,25,-1
 116 587 l 1,26,-1
 116 314 l 1,27,-1
 110 299 l 1,28,-1
 100 288 l 1,29,-1
 95 272 l 1,30,-1
 95 125 l 1,31,-1
 89 110 l 1,32,-1
 79 99 l 1,33,-1
 79 89 l 1,34,-1
 94 84 l 1,35,-1
 157 84 l 1,36,-1
 173 78 l 1,37,-1
 184 68 l 1,38,-1
 199 63 l 1,39,-1
 325 63 l 1,40,-1
 341 57 l 1,41,-1
 347 41 l 1,42,-1
 347 20 l 1,43,-1
 341 5 l 1,44,-1
 325 0 l 1,0,-1
EndSplineSet
Validated: 1
EndChar

StartChar: M
Encoding: 304 77 48
Width: 463
GlyphClass: 2
Flags: W
LayerCount: 2
Fore
SplineSet
415 183 m 1,0,-1
 410 167 l 1,1,-1
 410 -1 l 1,2,-1
 404 -16 l 1,3,-1
 388 -21 l 1,4,-1
 373 -16 l 1,5,-1
 368 -1 l 1,6,-1
 368 209 l 1,7,-1
 373 225 l 1,8,-1
 383 236 l 1,9,-1
 389 251 l 1,10,-1
 389 356 l 1,11,-1
 383 372 l 1,12,-1
 373 372 l 1,13,-1
 368 356 l 1,14,-1
 368 335 l 1,15,-1
 362 320 l 1,16,-1
 346 315 l 1,17,-1
 325 315 l 1,18,-1
 310 320 l 1,19,-1
 299 330 l 1,20,-1
 289 341 l 1,21,-1
 284 356 l 1,22,-1
 278 372 l 1,23,-1
 268 383 l 1,24,-1
 263 398 l 1,25,-1
 257 414 l 1,26,-1
 247 425 l 1,27,-1
 236 435 l 1,28,-1
 226 446 l 1,29,-1
 215 456 l 1,30,-1
 205 467 l 1,31,-1
 200 482 l 1,32,-1
 200 503 l 1,33,-1
 194 519 l 1,34,-1
 184 530 l 1,35,-1
 173 540 l 1,36,-1
 163 551 l 1,37,-1
 152 561 l 1,38,-1
 142 572 l 1,39,-1
 131 582 l 1,40,-1
 121 582 l 1,41,-1
 116 566 l 1,42,-1
 116 503 l 1,43,-1
 121 488 l 1,44,-1
 131 477 l 1,45,-1
 137 461 l 1,46,-1
 137 188 l 1,47,-1
 142 173 l 1,48,-1
 152 162 l 1,49,-1
 158 146 l 1,50,-1
 158 104 l 1,51,-1
 152 89 l 1,52,-1
 136 84 l 1,53,-1
 115 84 l 1,54,-1
 100 89 l 1,55,-1
 95 104 l 1,56,-1
 95 419 l 1,57,-1
 89 435 l 1,58,-1
 79 446 l 1,59,-1
 74 461 l 1,60,-1
 74 524 l 1,61,-1
 68 540 l 1,62,-1
 58 551 l 1,63,-1
 53 566 l 1,64,-1
 47 582 l 1,65,-1
 37 593 l 1,66,-1
 32 608 l 1,67,-1
 32 692 l 1,68,-1
 37 708 l 1,69,-1
 52 714 l 1,70,-1
 73 714 l 1,71,-1
 89 708 l 1,72,-1
 100 698 l 1,73,-1
 110 687 l 1,74,-1
 116 671 l 1,75,-1
 121 656 l 1,76,-1
 136 651 l 1,77,-1
 152 645 l 1,78,-1
 163 635 l 1,79,-1
 173 624 l 1,80,-1
 184 614 l 1,81,-1
 194 603 l 1,82,-1
 205 593 l 1,83,-1
 215 582 l 1,84,-1
 226 572 l 1,85,-1
 236 561 l 1,86,-1
 242 545 l 1,87,-1
 242 524 l 1,88,-1
 247 509 l 1,89,-1
 257 498 l 1,90,-1
 268 488 l 1,91,-1
 278 477 l 1,92,-1
 289 467 l 1,93,-1
 299 456 l 1,94,-1
 305 440 l 1,95,-1
 310 425 l 1,96,-1
 320 425 l 1,97,-1
 331 435 l 1,98,-1
 341 446 l 1,99,-1
 347 461 l 1,100,-1
 347 482 l 1,101,-1
 352 498 l 1,102,-1
 362 509 l 1,103,-1
 368 524 l 1,104,-1
 368 545 l 1,105,-1
 373 561 l 1,106,-1
 383 572 l 1,107,-1
 389 587 l 1,108,-1
 394 603 l 1,109,-1
 409 609 l 1,110,-1
 425 603 l 1,111,-1
 431 587 l 1,112,-1
 431 209 l 1,113,-1
 425 194 l 1,114,-1
 415 183 l 1,0,-1
EndSplineSet
Validated: 1
EndChar

StartChar: N
Encoding: 305 78 49
Width: 442
GlyphClass: 2
Flags: W
LayerCount: 2
Fore
SplineSet
388 21 m 1,0,-1
 367 21 l 1,1,-1
 352 26 l 1,2,-1
 347 41 l 1,3,-1
 347 62 l 1,4,-1
 341 78 l 1,5,-1
 331 89 l 1,6,-1
 326 104 l 1,7,-1
 320 120 l 1,8,-1
 310 131 l 1,9,-1
 305 146 l 1,10,-1
 299 162 l 1,11,-1
 289 173 l 1,12,-1
 284 188 l 1,13,-1
 278 204 l 1,14,-1
 268 215 l 1,15,-1
 263 230 l 1,16,-1
 257 246 l 1,17,-1
 247 257 l 1,18,-1
 242 272 l 1,19,-1
 236 288 l 1,20,-1
 226 299 l 1,21,-1
 221 314 l 1,22,-1
 221 335 l 1,23,-1
 215 351 l 1,24,-1
 205 362 l 1,25,-1
 200 377 l 1,26,-1
 200 398 l 1,27,-1
 194 414 l 1,28,-1
 184 425 l 1,29,-1
 179 440 l 1,30,-1
 179 503 l 1,31,-1
 173 519 l 1,32,-1
 163 519 l 1,33,-1
 158 503 l 1,34,-1
 158 482 l 1,35,-1
 152 467 l 1,36,-1
 142 456 l 1,37,-1
 137 440 l 1,38,-1
 137 356 l 1,39,-1
 131 341 l 1,40,-1
 121 330 l 1,41,-1
 116 314 l 1,42,-1
 116 293 l 1,43,-1
 110 278 l 1,44,-1
 100 267 l 1,45,-1
 95 251 l 1,46,-1
 95 83 l 1,47,-1
 89 68 l 1,48,-1
 73 63 l 1,49,-1
 58 68 l 1,50,-1
 47 78 l 1,51,-1
 37 89 l 1,52,-1
 32 104 l 1,53,-1
 32 167 l 1,54,-1
 37 183 l 1,55,-1
 47 194 l 1,56,-1
 53 209 l 1,57,-1
 53 293 l 1,58,-1
 58 309 l 1,59,-1
 68 320 l 1,60,-1
 74 335 l 1,61,-1
 74 356 l 1,62,-1
 79 372 l 1,63,-1
 89 383 l 1,64,-1
 95 398 l 1,65,-1
 95 482 l 1,66,-1
 100 498 l 1,67,-1
 110 509 l 1,68,-1
 116 524 l 1,69,-1
 116 629 l 1,70,-1
 121 645 l 1,71,-1
 136 651 l 1,72,-1
 157 651 l 1,73,-1
 173 645 l 1,74,-1
 184 635 l 1,75,-1
 194 624 l 1,76,-1
 200 608 l 1,77,-1
 200 587 l 1,78,-1
 205 572 l 1,79,-1
 215 561 l 1,80,-1
 221 545 l 1,81,-1
 221 503 l 1,82,-1
 226 488 l 1,83,-1
 236 477 l 1,84,-1
 242 461 l 1,85,-1
 242 419 l 1,86,-1
 247 404 l 1,87,-1
 257 393 l 1,88,-1
 263 377 l 1,89,-1
 268 362 l 1,90,-1
 278 351 l 1,91,-1
 284 335 l 1,92,-1
 289 320 l 1,93,-1
 299 309 l 1,94,-1
 305 293 l 1,95,-1
 310 278 l 1,96,-1
 320 267 l 1,97,-1
 326 251 l 1,98,-1
 326 230 l 1,99,-1
 331 215 l 1,100,-1
 341 215 l 1,101,-1
 347 230 l 1,102,-1
 347 482 l 1,103,-1
 341 498 l 1,104,-1
 331 509 l 1,105,-1
 326 524 l 1,106,-1
 326 566 l 1,107,-1
 320 582 l 1,108,-1
 310 593 l 1,109,-1
 305 608 l 1,110,-1
 305 629 l 1,111,-1
 310 645 l 1,112,-1
 325 651 l 1,113,-1
 346 651 l 1,114,-1
 362 645 l 1,115,-1
 368 629 l 1,116,-1
 368 587 l 1,117,-1
 373 572 l 1,118,-1
 383 561 l 1,119,-1
 389 545 l 1,120,-1
 389 146 l 1,121,-1
 394 131 l 1,122,-1
 404 120 l 1,123,-1
 410 104 l 1,124,-1
 410 41 l 1,125,-1
 404 26 l 1,126,-1
 388 21 l 1,0,-1
EndSplineSet
Validated: 1
EndChar

StartChar: O
Encoding: 306 79 50
Width: 358
GlyphClass: 2
Flags: W
LayerCount: 2
Fore
SplineSet
310 99 m 1,0,-1
 299 89 l 1,1,-1
 289 78 l 1,2,-1
 278 68 l 1,3,-1
 268 57 l 1,4,-1
 257 47 l 1,5,-1
 241 42 l 1,6,-1
 178 42 l 1,7,-1
 163 47 l 1,8,-1
 152 57 l 1,9,-1
 136 63 l 1,10,-1
 121 68 l 1,11,-1
 110 78 l 1,12,-1
 100 89 l 1,13,-1
 89 99 l 1,14,-1
 79 110 l 1,15,-1
 68 120 l 1,16,-1
 58 131 l 1,17,-1
 47 141 l 1,18,-1
 37 152 l 1,19,-1
 32 167 l 1,20,-1
 32 356 l 1,21,-1
 37 372 l 1,22,-1
 47 383 l 1,23,-1
 53 398 l 1,24,-1
 53 482 l 1,25,-1
 58 498 l 1,26,-1
 68 509 l 1,27,-1
 74 524 l 1,28,-1
 79 540 l 1,29,-1
 89 551 l 1,30,-1
 100 561 l 1,31,-1
 115 567 l 1,32,-1
 157 567 l 1,33,-1
 173 561 l 1,34,-1
 184 551 l 1,35,-1
 199 546 l 1,36,-1
 220 546 l 1,37,-1
 236 540 l 1,38,-1
 247 530 l 1,39,-1
 262 525 l 1,40,-1
 278 519 l 1,41,-1
 289 509 l 1,42,-1
 299 498 l 1,43,-1
 310 488 l 1,44,-1
 320 477 l 1,45,-1
 326 461 l 1,46,-1
 326 125 l 1,47,-1
 320 110 l 1,48,-1
 310 99 l 1,0,-1
284 167 m 1,49,-1
 284 419 l 1,50,-1
 278 435 l 1,51,-1
 268 446 l 1,52,-1
 263 461 l 1,53,-1
 257 477 l 1,54,-1
 241 483 l 1,55,-1
 178 483 l 1,56,-1
 163 488 l 1,57,-1
 152 498 l 1,58,-1
 142 498 l 1,59,-1
 131 488 l 1,60,-1
 121 477 l 1,61,-1
 116 461 l 1,62,-1
 110 446 l 1,63,-1
 100 435 l 1,64,-1
 95 419 l 1,65,-1
 95 356 l 1,66,-1
 89 341 l 1,67,-1
 79 330 l 1,68,-1
 74 314 l 1,69,-1
 74 230 l 1,70,-1
 79 215 l 1,71,-1
 89 204 l 1,72,-1
 100 194 l 1,73,-1
 110 183 l 1,74,-1
 121 173 l 1,75,-1
 131 162 l 1,76,-1
 142 152 l 1,77,-1
 152 141 l 1,78,-1
 163 131 l 1,79,-1
 178 126 l 1,80,-1
 194 120 l 1,81,-1
 205 110 l 1,82,-1
 215 110 l 1,83,-1
 226 120 l 1,84,-1
 236 131 l 1,85,-1
 247 141 l 1,86,-1
 262 147 l 1,87,-1
 278 152 l 1,88,-1
 284 167 l 1,49,-1
EndSplineSet
Validated: 1
EndChar

StartChar: P
Encoding: 307 80 51
Width: 337
GlyphClass: 2
Flags: W
LayerCount: 2
Fore
SplineSet
283 378 m 1,0,-1
 268 372 l 1,1,-1
 257 362 l 1,2,-1
 247 351 l 1,3,-1
 236 341 l 1,4,-1
 220 336 l 1,5,-1
 205 330 l 1,6,-1
 194 320 l 1,7,-1
 178 315 l 1,8,-1
 157 315 l 1,9,-1
 142 309 l 1,10,-1
 131 299 l 1,11,-1
 121 288 l 1,12,-1
 121 278 l 1,13,-1
 131 267 l 1,14,-1
 137 251 l 1,15,-1
 137 167 l 1,16,-1
 142 152 l 1,17,-1
 152 141 l 1,18,-1
 158 125 l 1,19,-1
 158 -1 l 1,20,-1
 152 -16 l 1,21,-1
 136 -21 l 1,22,-1
 121 -16 l 1,23,-1
 116 -1 l 1,24,-1
 116 83 l 1,25,-1
 110 99 l 1,26,-1
 100 110 l 1,27,-1
 95 125 l 1,28,-1
 95 209 l 1,29,-1
 89 225 l 1,30,-1
 79 236 l 1,31,-1
 74 251 l 1,32,-1
 74 335 l 1,33,-1
 68 351 l 1,34,-1
 58 362 l 1,35,-1
 53 377 l 1,36,-1
 53 419 l 1,37,-1
 47 435 l 1,38,-1
 37 446 l 1,39,-1
 32 461 l 1,40,-1
 32 566 l 1,41,-1
 37 582 l 1,42,-1
 52 588 l 1,43,-1
 136 588 l 1,44,-1
 152 582 l 1,45,-1
 163 572 l 1,46,-1
 178 567 l 1,47,-1
 194 561 l 1,48,-1
 205 551 l 1,49,-1
 220 546 l 1,50,-1
 241 546 l 1,51,-1
 257 540 l 1,52,-1
 268 530 l 1,53,-1
 278 519 l 1,54,-1
 289 509 l 1,55,-1
 299 498 l 1,56,-1
 305 482 l 1,57,-1
 305 398 l 1,58,-1
 299 383 l 1,59,-1
 283 378 l 1,0,-1
257 456 m 1,60,-1
 241 462 l 1,61,-1
 226 467 l 1,62,-1
 215 477 l 1,63,-1
 199 483 l 1,64,-1
 184 488 l 1,65,-1
 173 498 l 1,66,-1
 157 504 l 1,67,-1
 136 504 l 1,68,-1
 121 509 l 1,69,-1
 110 519 l 1,70,-1
 94 525 l 1,71,-1
 79 519 l 1,72,-1
 74 503 l 1,73,-1
 79 488 l 1,74,-1
 89 477 l 1,75,-1
 95 461 l 1,76,-1
 95 419 l 1,77,-1
 100 404 l 1,78,-1
 110 393 l 1,79,-1
 121 383 l 1,80,-1
 136 378 l 1,81,-1
 152 383 l 1,82,-1
 163 393 l 1,83,-1
 178 399 l 1,84,-1
 194 404 l 1,85,-1
 205 414 l 1,86,-1
 220 420 l 1,87,-1
 236 425 l 1,88,-1
 247 435 l 1,89,-1
 257 446 l 1,90,-1
 257 456 l 1,60,-1
EndSplineSet
Validated: 1
EndChar

StartChar: Q
Encoding: 308 81 52
Width: 589
GlyphClass: 2
Flags: W
LayerCount: 2
Fore
SplineSet
535 21 m 1,0,-1
 520 26 l 1,1,-1
 515 41 l 1,2,-1
 509 57 l 1,3,-1
 493 63 l 1,4,-1
 478 68 l 1,5,-1
 473 83 l 1,6,-1
 473 104 l 1,7,-1
 467 120 l 1,8,-1
 457 120 l 1,9,-1
 446 110 l 1,10,-1
 436 99 l 1,11,-1
 431 83 l 1,12,-1
 425 68 l 1,13,-1
 409 63 l 1,14,-1
 178 63 l 1,15,-1
 163 68 l 1,16,-1
 152 78 l 1,17,-1
 136 84 l 1,18,-1
 115 84 l 1,19,-1
 100 89 l 1,20,-1
 89 99 l 1,21,-1
 79 110 l 1,22,-1
 74 125 l 1,23,-1
 68 141 l 1,24,-1
 58 152 l 1,25,-1
 53 167 l 1,26,-1
 53 188 l 1,27,-1
 47 204 l 1,28,-1
 37 215 l 1,29,-1
 32 230 l 1,30,-1
 32 461 l 1,31,-1
 37 477 l 1,32,-1
 47 488 l 1,33,-1
 53 503 l 1,34,-1
 53 545 l 1,35,-1
 58 561 l 1,36,-1
 68 572 l 1,37,-1
 74 587 l 1,38,-1
 79 603 l 1,39,-1
 89 614 l 1,40,-1
 100 624 l 1,41,-1
 115 630 l 1,42,-1
 199 630 l 1,43,-1
 215 624 l 1,44,-1
 226 614 l 1,45,-1
 241 609 l 1,46,-1
 262 609 l 1,47,-1
 278 603 l 1,48,-1
 289 593 l 1,49,-1
 304 588 l 1,50,-1
 325 588 l 1,51,-1
 341 582 l 1,52,-1
 352 572 l 1,53,-1
 362 561 l 1,54,-1
 373 551 l 1,55,-1
 388 546 l 1,56,-1
 409 546 l 1,57,-1
 425 540 l 1,58,-1
 436 530 l 1,59,-1
 446 519 l 1,60,-1
 457 509 l 1,61,-1
 472 504 l 1,62,-1
 488 498 l 1,63,-1
 494 482 l 1,64,-1
 499 467 l 1,65,-1
 509 456 l 1,66,-1
 515 440 l 1,67,-1
 520 425 l 1,68,-1
 530 414 l 1,69,-1
 536 398 l 1,70,-1
 536 293 l 1,71,-1
 530 278 l 1,72,-1
 520 267 l 1,73,-1
 515 251 l 1,74,-1
 509 236 l 1,75,-1
 499 225 l 1,76,-1
 494 209 l 1,77,-1
 494 188 l 1,78,-1
 499 173 l 1,79,-1
 509 162 l 1,80,-1
 515 146 l 1,81,-1
 520 131 l 1,82,-1
 530 120 l 1,83,-1
 541 110 l 1,84,-1
 551 99 l 1,85,-1
 557 83 l 1,86,-1
 557 41 l 1,87,-1
 551 26 l 1,88,-1
 535 21 l 1,0,-1
494 335 m 1,89,-1
 488 351 l 1,90,-1
 478 362 l 1,91,-1
 473 377 l 1,92,-1
 473 398 l 1,93,-1
 467 414 l 1,94,-1
 451 420 l 1,95,-1
 436 425 l 1,96,-1
 425 435 l 1,97,-1
 409 441 l 1,98,-1
 394 446 l 1,99,-1
 383 456 l 1,100,-1
 373 467 l 1,101,-1
 362 477 l 1,102,-1
 352 488 l 1,103,-1
 341 498 l 1,104,-1
 331 509 l 1,105,-1
 320 519 l 1,106,-1
 304 525 l 1,107,-1
 283 525 l 1,108,-1
 268 530 l 1,109,-1
 257 540 l 1,110,-1
 241 546 l 1,111,-1
 220 546 l 1,112,-1
 205 551 l 1,113,-1
 194 561 l 1,114,-1
 178 567 l 1,115,-1
 157 567 l 1,116,-1
 142 561 l 1,117,-1
 131 551 l 1,118,-1
 121 540 l 1,119,-1
 110 530 l 1,120,-1
 100 519 l 1,121,-1
 95 503 l 1,122,-1
 95 461 l 1,123,-1
 89 446 l 1,124,-1
 79 435 l 1,125,-1
 74 419 l 1,126,-1
 74 272 l 1,127,-1
 79 257 l 1,128,-1
 89 246 l 1,129,-1
 95 230 l 1,130,-1
 95 209 l 1,131,-1
 100 194 l 1,132,-1
 110 183 l 1,133,-1
 121 173 l 1,134,-1
 131 162 l 1,135,-1
 142 152 l 1,136,-1
 157 147 l 1,137,-1
 173 141 l 1,138,-1
 184 131 l 1,139,-1
 199 126 l 1,140,-1
 367 126 l 1,141,-1
 383 131 l 1,142,-1
 394 141 l 1,143,-1
 404 152 l 1,144,-1
 404 162 l 1,145,-1
 394 173 l 1,146,-1
 383 183 l 1,147,-1
 367 189 l 1,148,-1
 352 194 l 1,149,-1
 341 204 l 1,150,-1
 325 210 l 1,151,-1
 310 215 l 1,152,-1
 299 225 l 1,153,-1
 289 236 l 1,154,-1
 284 251 l 1,155,-1
 284 272 l 1,156,-1
 289 288 l 1,157,-1
 299 299 l 1,158,-1
 310 309 l 1,159,-1
 325 315 l 1,160,-1
 341 309 l 1,161,-1
 347 293 l 1,162,-1
 352 278 l 1,163,-1
 362 267 l 1,164,-1
 373 257 l 1,165,-1
 388 252 l 1,166,-1
 409 252 l 1,167,-1
 425 246 l 1,168,-1
 436 236 l 1,169,-1
 446 236 l 1,170,-1
 452 251 l 1,171,-1
 457 267 l 1,172,-1
 467 278 l 1,173,-1
 473 293 l 1,174,-1
 478 309 l 1,175,-1
 488 320 l 1,176,-1
 494 335 l 1,89,-1
EndSplineSet
Validated: 1
EndChar

StartChar: R
Encoding: 309 82 53
Width: 442
GlyphClass: 2
Flags: W
LayerCount: 2
Fore
SplineSet
388 63 m 1,0,-1
 373 68 l 1,1,-1
 362 78 l 1,2,-1
 352 89 l 1,3,-1
 347 104 l 1,4,-1
 341 120 l 1,5,-1
 331 131 l 1,6,-1
 326 146 l 1,7,-1
 326 167 l 1,8,-1
 320 183 l 1,9,-1
 310 194 l 1,10,-1
 299 204 l 1,11,-1
 283 210 l 1,12,-1
 268 215 l 1,13,-1
 257 225 l 1,14,-1
 247 236 l 1,15,-1
 242 251 l 1,16,-1
 242 272 l 1,17,-1
 236 288 l 1,18,-1
 226 299 l 1,19,-1
 221 314 l 1,20,-1
 215 330 l 1,21,-1
 205 341 l 1,22,-1
 194 351 l 1,23,-1
 184 351 l 1,24,-1
 179 335 l 1,25,-1
 173 320 l 1,26,-1
 157 315 l 1,27,-1
 115 315 l 1,28,-1
 100 309 l 1,29,-1
 95 293 l 1,30,-1
 100 278 l 1,31,-1
 110 267 l 1,32,-1
 116 251 l 1,33,-1
 116 209 l 1,34,-1
 121 194 l 1,35,-1
 131 183 l 1,36,-1
 137 167 l 1,37,-1
 137 62 l 1,38,-1
 131 47 l 1,39,-1
 115 42 l 1,40,-1
 94 42 l 1,41,-1
 79 47 l 1,42,-1
 74 62 l 1,43,-1
 74 83 l 1,44,-1
 79 99 l 1,45,-1
 89 110 l 1,46,-1
 95 125 l 1,47,-1
 89 141 l 1,48,-1
 79 152 l 1,49,-1
 74 167 l 1,50,-1
 74 188 l 1,51,-1
 68 204 l 1,52,-1
 58 215 l 1,53,-1
 53 230 l 1,54,-1
 53 272 l 1,55,-1
 47 288 l 1,56,-1
 37 299 l 1,57,-1
 32 314 l 1,58,-1
 32 587 l 1,59,-1
 37 603 l 1,60,-1
 52 609 l 1,61,-1
 94 609 l 1,62,-1
 110 614 l 1,63,-1
 121 624 l 1,64,-1
 131 635 l 1,65,-1
 142 645 l 1,66,-1
 157 651 l 1,67,-1
 199 651 l 1,68,-1
 215 656 l 1,69,-1
 226 666 l 1,70,-1
 241 672 l 1,71,-1
 262 672 l 1,72,-1
 278 666 l 1,73,-1
 284 650 l 1,74,-1
 284 482 l 1,75,-1
 278 467 l 1,76,-1
 268 456 l 1,77,-1
 257 446 l 1,78,-1
 247 435 l 1,79,-1
 242 419 l 1,80,-1
 247 404 l 1,81,-1
 257 393 l 1,82,-1
 263 377 l 1,83,-1
 268 362 l 1,84,-1
 278 351 l 1,85,-1
 284 335 l 1,86,-1
 284 314 l 1,87,-1
 289 299 l 1,88,-1
 299 288 l 1,89,-1
 310 278 l 1,90,-1
 325 273 l 1,91,-1
 341 267 l 1,92,-1
 352 257 l 1,93,-1
 362 246 l 1,94,-1
 368 230 l 1,95,-1
 368 209 l 1,96,-1
 373 194 l 1,97,-1
 383 183 l 1,98,-1
 389 167 l 1,99,-1
 394 152 l 1,100,-1
 404 141 l 1,101,-1
 410 125 l 1,102,-1
 410 83 l 1,103,-1
 404 68 l 1,104,-1
 388 63 l 1,0,-1
242 545 m 1,105,-1
 242 566 l 1,106,-1
 236 582 l 1,107,-1
 220 588 l 1,108,-1
 199 588 l 1,109,-1
 184 582 l 1,110,-1
 173 572 l 1,111,-1
 157 567 l 1,112,-1
 142 561 l 1,113,-1
 131 551 l 1,114,-1
 115 546 l 1,115,-1
 94 546 l 1,116,-1
 79 540 l 1,117,-1
 74 524 l 1,118,-1
 74 398 l 1,119,-1
 79 383 l 1,120,-1
 94 378 l 1,121,-1
 110 383 l 1,122,-1
 116 398 l 1,123,-1
 121 414 l 1,124,-1
 131 425 l 1,125,-1
 142 435 l 1,126,-1
 152 446 l 1,127,-1
 163 456 l 1,128,-1
 178 462 l 1,129,-1
 194 467 l 1,130,-1
 200 482 l 1,131,-1
 205 498 l 1,132,-1
 215 509 l 1,133,-1
 226 519 l 1,134,-1
 236 530 l 1,135,-1
 242 545 l 1,105,-1
EndSplineSet
Validated: 1
EndChar

StartChar: S
Encoding: 310 83 54
Width: 484
GlyphClass: 2
Flags: W
LayerCount: 2
Fore
SplineSet
436 204 m 1,0,-1
 431 188 l 1,1,-1
 431 146 l 1,2,-1
 425 131 l 1,3,-1
 409 126 l 1,4,-1
 394 120 l 1,5,-1
 383 110 l 1,6,-1
 367 105 l 1,7,-1
 283 105 l 1,8,-1
 268 110 l 1,9,-1
 257 120 l 1,10,-1
 241 126 l 1,11,-1
 136 126 l 1,12,-1
 121 131 l 1,13,-1
 110 141 l 1,14,-1
 94 147 l 1,15,-1
 52 147 l 1,16,-1
 37 152 l 1,17,-1
 32 167 l 1,18,-1
 32 188 l 1,19,-1
 37 204 l 1,20,-1
 52 210 l 1,21,-1
 136 210 l 1,22,-1
 152 204 l 1,23,-1
 163 194 l 1,24,-1
 178 189 l 1,25,-1
 283 189 l 1,26,-1
 299 183 l 1,27,-1
 310 173 l 1,28,-1
 325 168 l 1,29,-1
 341 173 l 1,30,-1
 352 183 l 1,31,-1
 367 189 l 1,32,-1
 383 194 l 1,33,-1
 389 209 l 1,34,-1
 389 251 l 1,35,-1
 383 267 l 1,36,-1
 373 278 l 1,37,-1
 362 288 l 1,38,-1
 352 299 l 1,39,-1
 341 309 l 1,40,-1
 331 320 l 1,41,-1
 320 330 l 1,42,-1
 310 341 l 1,43,-1
 299 351 l 1,44,-1
 283 357 l 1,45,-1
 268 362 l 1,46,-1
 257 372 l 1,47,-1
 247 383 l 1,48,-1
 236 393 l 1,49,-1
 220 399 l 1,50,-1
 205 404 l 1,51,-1
 194 414 l 1,52,-1
 178 420 l 1,53,-1
 73 420 l 1,54,-1
 58 425 l 1,55,-1
 53 440 l 1,56,-1
 53 545 l 1,57,-1
 58 561 l 1,58,-1
 68 572 l 1,59,-1
 74 587 l 1,60,-1
 74 608 l 1,61,-1
 79 624 l 1,62,-1
 89 635 l 1,63,-1
 100 645 l 1,64,-1
 115 651 l 1,65,-1
 262 651 l 1,66,-1
 278 645 l 1,67,-1
 289 635 l 1,68,-1
 304 630 l 1,69,-1
 320 624 l 1,70,-1
 331 614 l 1,71,-1
 341 603 l 1,72,-1
 352 593 l 1,73,-1
 362 582 l 1,74,-1
 368 566 l 1,75,-1
 373 551 l 1,76,-1
 383 540 l 1,77,-1
 389 524 l 1,78,-1
 394 509 l 1,79,-1
 404 498 l 1,80,-1
 410 482 l 1,81,-1
 410 461 l 1,82,-1
 404 446 l 1,83,-1
 388 441 l 1,84,-1
 367 441 l 1,85,-1
 352 446 l 1,86,-1
 347 461 l 1,87,-1
 347 482 l 1,88,-1
 341 498 l 1,89,-1
 331 509 l 1,90,-1
 320 519 l 1,91,-1
 310 530 l 1,92,-1
 299 540 l 1,93,-1
 289 551 l 1,94,-1
 278 561 l 1,95,-1
 262 567 l 1,96,-1
 247 572 l 1,97,-1
 236 582 l 1,98,-1
 220 588 l 1,99,-1
 157 588 l 1,100,-1
 142 582 l 1,101,-1
 131 572 l 1,102,-1
 121 561 l 1,103,-1
 116 545 l 1,104,-1
 116 524 l 1,105,-1
 110 509 l 1,106,-1
 100 498 l 1,107,-1
 100 488 l 1,108,-1
 115 483 l 1,109,-1
 220 483 l 1,110,-1
 236 477 l 1,111,-1
 247 467 l 1,112,-1
 262 462 l 1,113,-1
 278 456 l 1,114,-1
 289 446 l 1,115,-1
 299 435 l 1,116,-1
 310 425 l 1,117,-1
 320 414 l 1,118,-1
 331 404 l 1,119,-1
 346 399 l 1,120,-1
 362 393 l 1,121,-1
 373 383 l 1,122,-1
 383 372 l 1,123,-1
 394 362 l 1,124,-1
 404 351 l 1,125,-1
 415 341 l 1,126,-1
 425 330 l 1,127,-1
 436 320 l 1,128,-1
 446 309 l 1,129,-1
 452 293 l 1,130,-1
 452 230 l 1,131,-1
 446 215 l 1,132,-1
 436 204 l 1,0,-1
EndSplineSet
Validated: 1
EndChar

StartChar: T
Encoding: 311 84 55
Width: 463
GlyphClass: 2
Flags: W
LayerCount: 2
Fore
SplineSet
409 567 m 1,0,-1
 367 567 l 1,1,-1
 352 561 l 1,2,-1
 341 551 l 1,3,-1
 325 546 l 1,4,-1
 262 546 l 1,5,-1
 247 540 l 1,6,-1
 242 524 l 1,7,-1
 242 335 l 1,8,-1
 247 320 l 1,9,-1
 257 309 l 1,10,-1
 263 293 l 1,11,-1
 263 209 l 1,12,-1
 268 194 l 1,13,-1
 278 183 l 1,14,-1
 284 167 l 1,15,-1
 289 152 l 1,16,-1
 299 141 l 1,17,-1
 305 125 l 1,18,-1
 305 104 l 1,19,-1
 310 89 l 1,20,-1
 320 78 l 1,21,-1
 326 62 l 1,22,-1
 326 41 l 1,23,-1
 320 26 l 1,24,-1
 304 21 l 1,25,-1
 283 21 l 1,26,-1
 268 26 l 1,27,-1
 263 41 l 1,28,-1
 263 62 l 1,29,-1
 257 78 l 1,30,-1
 247 89 l 1,31,-1
 242 104 l 1,32,-1
 236 120 l 1,33,-1
 226 131 l 1,34,-1
 221 146 l 1,35,-1
 221 230 l 1,36,-1
 215 246 l 1,37,-1
 205 257 l 1,38,-1
 200 272 l 1,39,-1
 200 524 l 1,40,-1
 194 540 l 1,41,-1
 184 540 l 1,42,-1
 173 530 l 1,43,-1
 157 525 l 1,44,-1
 52 525 l 1,45,-1
 37 530 l 1,46,-1
 32 545 l 1,47,-1
 32 566 l 1,48,-1
 37 582 l 1,49,-1
 52 588 l 1,50,-1
 136 588 l 1,51,-1
 152 593 l 1,52,-1
 163 603 l 1,53,-1
 178 609 l 1,54,-1
 283 609 l 1,55,-1
 299 614 l 1,56,-1
 310 624 l 1,57,-1
 325 630 l 1,58,-1
 409 630 l 1,59,-1
 425 624 l 1,60,-1
 431 608 l 1,61,-1
 431 587 l 1,62,-1
 425 572 l 1,63,-1
 409 567 l 1,0,-1
EndSplineSet
Validated: 1
EndChar

StartChar: U
Encoding: 312 85 56
Width: 421
GlyphClass: 2
Flags: W
LayerCount: 2
Fore
SplineSet
373 183 m 1,0,-1
 362 173 l 1,1,-1
 352 162 l 1,2,-1
 341 152 l 1,3,-1
 325 147 l 1,4,-1
 283 147 l 1,5,-1
 268 141 l 1,6,-1
 257 131 l 1,7,-1
 241 126 l 1,8,-1
 136 126 l 1,9,-1
 121 131 l 1,10,-1
 116 146 l 1,11,-1
 110 162 l 1,12,-1
 100 173 l 1,13,-1
 95 188 l 1,14,-1
 95 230 l 1,15,-1
 89 246 l 1,16,-1
 79 257 l 1,17,-1
 74 272 l 1,18,-1
 74 314 l 1,19,-1
 68 330 l 1,20,-1
 58 341 l 1,21,-1
 53 356 l 1,22,-1
 53 419 l 1,23,-1
 47 435 l 1,24,-1
 37 446 l 1,25,-1
 32 461 l 1,26,-1
 32 545 l 1,27,-1
 37 561 l 1,28,-1
 52 567 l 1,29,-1
 68 561 l 1,30,-1
 74 545 l 1,31,-1
 74 524 l 1,32,-1
 79 509 l 1,33,-1
 89 498 l 1,34,-1
 95 482 l 1,35,-1
 95 398 l 1,36,-1
 100 383 l 1,37,-1
 110 372 l 1,38,-1
 116 356 l 1,39,-1
 116 335 l 1,40,-1
 121 320 l 1,41,-1
 131 309 l 1,42,-1
 137 293 l 1,43,-1
 137 251 l 1,44,-1
 142 236 l 1,45,-1
 152 225 l 1,46,-1
 158 209 l 1,47,-1
 163 194 l 1,48,-1
 178 189 l 1,49,-1
 220 189 l 1,50,-1
 236 194 l 1,51,-1
 247 204 l 1,52,-1
 262 210 l 1,53,-1
 283 210 l 1,54,-1
 299 215 l 1,55,-1
 310 225 l 1,56,-1
 320 236 l 1,57,-1
 331 246 l 1,58,-1
 341 257 l 1,59,-1
 347 272 l 1,60,-1
 347 335 l 1,61,-1
 341 351 l 1,62,-1
 331 362 l 1,63,-1
 326 377 l 1,64,-1
 326 398 l 1,65,-1
 320 414 l 1,66,-1
 310 425 l 1,67,-1
 299 435 l 1,68,-1
 289 446 l 1,69,-1
 284 461 l 1,70,-1
 284 629 l 1,71,-1
 289 645 l 1,72,-1
 304 651 l 1,73,-1
 320 645 l 1,74,-1
 326 629 l 1,75,-1
 326 524 l 1,76,-1
 331 509 l 1,77,-1
 341 498 l 1,78,-1
 347 482 l 1,79,-1
 352 467 l 1,80,-1
 362 456 l 1,81,-1
 368 440 l 1,82,-1
 373 425 l 1,83,-1
 383 414 l 1,84,-1
 389 398 l 1,85,-1
 389 209 l 1,86,-1
 383 194 l 1,87,-1
 373 183 l 1,0,-1
EndSplineSet
Validated: 1
EndChar

StartChar: V
Encoding: 313 86 57
Width: 442
GlyphClass: 2
Flags: W
LayerCount: 2
Fore
SplineSet
394 498 m 1,0,-1
 389 482 l 1,1,-1
 389 377 l 1,2,-1
 383 362 l 1,3,-1
 373 351 l 1,4,-1
 368 335 l 1,5,-1
 368 314 l 1,6,-1
 362 299 l 1,7,-1
 352 288 l 1,8,-1
 347 272 l 1,9,-1
 347 251 l 1,10,-1
 341 236 l 1,11,-1
 331 225 l 1,12,-1
 326 209 l 1,13,-1
 326 167 l 1,14,-1
 320 152 l 1,15,-1
 310 141 l 1,16,-1
 305 125 l 1,17,-1
 305 104 l 1,18,-1
 299 89 l 1,19,-1
 289 78 l 1,20,-1
 284 62 l 1,21,-1
 278 47 l 1,22,-1
 268 36 l 1,23,-1
 263 20 l 1,24,-1
 263 -1 l 1,25,-1
 257 -16 l 1,26,-1
 247 -27 l 1,27,-1
 242 -43 l 1,28,-1
 236 -58 l 1,29,-1
 220 -63 l 1,30,-1
 205 -58 l 1,31,-1
 194 -48 l 1,32,-1
 184 -37 l 1,33,-1
 173 -27 l 1,34,-1
 163 -16 l 1,35,-1
 158 -1 l 1,36,-1
 158 41 l 1,37,-1
 152 57 l 1,38,-1
 142 68 l 1,39,-1
 137 83 l 1,40,-1
 131 99 l 1,41,-1
 121 110 l 1,42,-1
 116 125 l 1,43,-1
 116 146 l 1,44,-1
 110 162 l 1,45,-1
 100 173 l 1,46,-1
 95 188 l 1,47,-1
 89 204 l 1,48,-1
 79 215 l 1,49,-1
 74 230 l 1,50,-1
 74 272 l 1,51,-1
 68 288 l 1,52,-1
 58 299 l 1,53,-1
 53 314 l 1,54,-1
 53 356 l 1,55,-1
 47 372 l 1,56,-1
 37 383 l 1,57,-1
 32 398 l 1,58,-1
 32 566 l 1,59,-1
 37 582 l 1,60,-1
 52 588 l 1,61,-1
 68 582 l 1,62,-1
 74 566 l 1,63,-1
 74 461 l 1,64,-1
 79 446 l 1,65,-1
 89 435 l 1,66,-1
 95 419 l 1,67,-1
 95 356 l 1,68,-1
 100 341 l 1,69,-1
 110 330 l 1,70,-1
 116 314 l 1,71,-1
 116 272 l 1,72,-1
 121 257 l 1,73,-1
 131 246 l 1,74,-1
 137 230 l 1,75,-1
 142 215 l 1,76,-1
 152 204 l 1,77,-1
 158 188 l 1,78,-1
 158 167 l 1,79,-1
 163 152 l 1,80,-1
 173 141 l 1,81,-1
 179 125 l 1,82,-1
 184 110 l 1,83,-1
 194 99 l 1,84,-1
 200 83 l 1,85,-1
 200 62 l 1,86,-1
 205 47 l 1,87,-1
 215 47 l 1,88,-1
 221 62 l 1,89,-1
 226 78 l 1,90,-1
 236 89 l 1,91,-1
 242 104 l 1,92,-1
 242 125 l 1,93,-1
 247 141 l 1,94,-1
 257 152 l 1,95,-1
 263 167 l 1,96,-1
 268 183 l 1,97,-1
 278 194 l 1,98,-1
 284 209 l 1,99,-1
 284 251 l 1,100,-1
 289 267 l 1,101,-1
 299 278 l 1,102,-1
 305 293 l 1,103,-1
 305 335 l 1,104,-1
 310 351 l 1,105,-1
 320 362 l 1,106,-1
 326 377 l 1,107,-1
 326 398 l 1,108,-1
 331 414 l 1,109,-1
 341 425 l 1,110,-1
 347 440 l 1,111,-1
 347 545 l 1,112,-1
 352 561 l 1,113,-1
 362 572 l 1,114,-1
 368 587 l 1,115,-1
 368 629 l 1,116,-1
 373 645 l 1,117,-1
 388 651 l 1,118,-1
 404 645 l 1,119,-1
 410 629 l 1,120,-1
 410 524 l 1,121,-1
 404 509 l 1,122,-1
 394 498 l 1,0,-1
EndSplineSet
Validated: 1
EndChar

StartChar: W
Encoding: 314 87 58
Width: 589
GlyphClass: 2
Flags: W
LayerCount: 2
Fore
SplineSet
541 414 m 1,0,-1
 536 398 l 1,1,-1
 536 314 l 1,2,-1
 530 299 l 1,3,-1
 520 288 l 1,4,-1
 515 272 l 1,5,-1
 515 230 l 1,6,-1
 509 215 l 1,7,-1
 499 204 l 1,8,-1
 494 188 l 1,9,-1
 494 104 l 1,10,-1
 488 89 l 1,11,-1
 478 78 l 1,12,-1
 473 62 l 1,13,-1
 467 47 l 1,14,-1
 451 42 l 1,15,-1
 409 42 l 1,16,-1
 394 47 l 1,17,-1
 383 57 l 1,18,-1
 373 68 l 1,19,-1
 368 83 l 1,20,-1
 362 99 l 1,21,-1
 352 110 l 1,22,-1
 347 125 l 1,23,-1
 347 146 l 1,24,-1
 341 162 l 1,25,-1
 331 173 l 1,26,-1
 326 188 l 1,27,-1
 320 204 l 1,28,-1
 310 215 l 1,29,-1
 305 230 l 1,30,-1
 299 246 l 1,31,-1
 289 257 l 1,32,-1
 284 272 l 1,33,-1
 278 288 l 1,34,-1
 262 294 l 1,35,-1
 247 288 l 1,36,-1
 242 272 l 1,37,-1
 242 146 l 1,38,-1
 236 131 l 1,39,-1
 226 120 l 1,40,-1
 221 104 l 1,41,-1
 215 89 l 1,42,-1
 199 84 l 1,43,-1
 184 89 l 1,44,-1
 179 104 l 1,45,-1
 173 120 l 1,46,-1
 163 131 l 1,47,-1
 158 146 l 1,48,-1
 152 162 l 1,49,-1
 142 173 l 1,50,-1
 137 188 l 1,51,-1
 131 204 l 1,52,-1
 121 215 l 1,53,-1
 110 225 l 1,54,-1
 100 236 l 1,55,-1
 95 251 l 1,56,-1
 95 356 l 1,57,-1
 89 372 l 1,58,-1
 79 383 l 1,59,-1
 74 398 l 1,60,-1
 68 414 l 1,61,-1
 58 425 l 1,62,-1
 53 440 l 1,63,-1
 47 456 l 1,64,-1
 37 467 l 1,65,-1
 32 482 l 1,66,-1
 32 587 l 1,67,-1
 37 603 l 1,68,-1
 52 609 l 1,69,-1
 68 603 l 1,70,-1
 74 587 l 1,71,-1
 79 572 l 1,72,-1
 89 561 l 1,73,-1
 95 545 l 1,74,-1
 95 503 l 1,75,-1
 100 488 l 1,76,-1
 110 477 l 1,77,-1
 116 461 l 1,78,-1
 116 440 l 1,79,-1
 121 425 l 1,80,-1
 131 414 l 1,81,-1
 137 398 l 1,82,-1
 137 314 l 1,83,-1
 142 299 l 1,84,-1
 152 288 l 1,85,-1
 158 272 l 1,86,-1
 163 257 l 1,87,-1
 173 246 l 1,88,-1
 184 236 l 1,89,-1
 194 236 l 1,90,-1
 200 251 l 1,91,-1
 200 335 l 1,92,-1
 205 351 l 1,93,-1
 215 362 l 1,94,-1
 221 377 l 1,95,-1
 221 419 l 1,96,-1
 226 435 l 1,97,-1
 236 446 l 1,98,-1
 242 461 l 1,99,-1
 242 482 l 1,100,-1
 247 498 l 1,101,-1
 262 504 l 1,102,-1
 278 498 l 1,103,-1
 284 482 l 1,104,-1
 284 419 l 1,105,-1
 289 404 l 1,106,-1
 299 393 l 1,107,-1
 305 377 l 1,108,-1
 305 356 l 1,109,-1
 310 341 l 1,110,-1
 320 330 l 1,111,-1
 326 314 l 1,112,-1
 331 299 l 1,113,-1
 341 288 l 1,114,-1
 352 278 l 1,115,-1
 362 267 l 1,116,-1
 368 251 l 1,117,-1
 373 236 l 1,118,-1
 383 225 l 1,119,-1
 389 209 l 1,120,-1
 389 188 l 1,121,-1
 394 173 l 1,122,-1
 404 162 l 1,123,-1
 410 146 l 1,124,-1
 415 131 l 1,125,-1
 430 126 l 1,126,-1
 446 131 l 1,127,-1
 452 146 l 1,128,-1
 452 230 l 1,129,-1
 457 246 l 1,130,-1
 467 257 l 1,131,-1
 473 272 l 1,132,-1
 473 335 l 1,133,-1
 478 351 l 1,134,-1
 488 362 l 1,135,-1
 494 377 l 1,136,-1
 494 440 l 1,137,-1
 499 456 l 1,138,-1
 509 467 l 1,139,-1
 515 482 l 1,140,-1
 515 524 l 1,141,-1
 509 540 l 1,142,-1
 493 546 l 1,143,-1
 478 551 l 1,144,-1
 473 566 l 1,145,-1
 473 587 l 1,146,-1
 478 603 l 1,147,-1
 493 609 l 1,148,-1
 535 609 l 1,149,-1
 551 603 l 1,150,-1
 557 587 l 1,151,-1
 557 440 l 1,152,-1
 551 425 l 1,153,-1
 541 414 l 1,0,-1
EndSplineSet
Validated: 1
EndChar

StartChar: X
Encoding: 315 88 59
Width: 568
GlyphClass: 2
Flags: W
LayerCount: 2
Fore
SplineSet
514 63 m 1,0,-1
 472 63 l 1,1,-1
 457 68 l 1,2,-1
 446 78 l 1,3,-1
 436 89 l 1,4,-1
 425 99 l 1,5,-1
 415 110 l 1,6,-1
 404 120 l 1,7,-1
 394 131 l 1,8,-1
 389 146 l 1,9,-1
 383 162 l 1,10,-1
 373 173 l 1,11,-1
 362 183 l 1,12,-1
 352 194 l 1,13,-1
 341 204 l 1,14,-1
 331 215 l 1,15,-1
 326 230 l 1,16,-1
 320 246 l 1,17,-1
 310 257 l 1,18,-1
 299 267 l 1,19,-1
 289 278 l 1,20,-1
 284 293 l 1,21,-1
 278 309 l 1,22,-1
 262 315 l 1,23,-1
 247 309 l 1,24,-1
 236 299 l 1,25,-1
 226 288 l 1,26,-1
 215 278 l 1,27,-1
 205 267 l 1,28,-1
 194 257 l 1,29,-1
 178 252 l 1,30,-1
 163 246 l 1,31,-1
 152 236 l 1,32,-1
 136 231 l 1,33,-1
 121 225 l 1,34,-1
 116 209 l 1,35,-1
 110 194 l 1,36,-1
 100 183 l 1,37,-1
 89 173 l 1,38,-1
 79 162 l 1,39,-1
 74 146 l 1,40,-1
 74 125 l 1,41,-1
 68 110 l 1,42,-1
 52 105 l 1,43,-1
 37 110 l 1,44,-1
 32 125 l 1,45,-1
 32 188 l 1,46,-1
 37 204 l 1,47,-1
 47 215 l 1,48,-1
 53 230 l 1,49,-1
 58 246 l 1,50,-1
 68 257 l 1,51,-1
 79 267 l 1,52,-1
 89 278 l 1,53,-1
 100 288 l 1,54,-1
 110 299 l 1,55,-1
 121 309 l 1,56,-1
 136 315 l 1,57,-1
 152 320 l 1,58,-1
 163 330 l 1,59,-1
 173 341 l 1,60,-1
 184 351 l 1,61,-1
 194 362 l 1,62,-1
 205 372 l 1,63,-1
 215 383 l 1,64,-1
 215 393 l 1,65,-1
 205 404 l 1,66,-1
 194 414 l 1,67,-1
 184 425 l 1,68,-1
 179 440 l 1,69,-1
 173 456 l 1,70,-1
 163 467 l 1,71,-1
 152 477 l 1,72,-1
 142 488 l 1,73,-1
 131 498 l 1,74,-1
 121 509 l 1,75,-1
 110 519 l 1,76,-1
 94 525 l 1,77,-1
 73 525 l 1,78,-1
 58 530 l 1,79,-1
 47 540 l 1,80,-1
 37 551 l 1,81,-1
 32 566 l 1,82,-1
 32 587 l 1,83,-1
 37 603 l 1,84,-1
 47 614 l 1,85,-1
 58 624 l 1,86,-1
 73 630 l 1,87,-1
 115 630 l 1,88,-1
 131 624 l 1,89,-1
 137 608 l 1,90,-1
 142 593 l 1,91,-1
 152 582 l 1,92,-1
 163 572 l 1,93,-1
 173 561 l 1,94,-1
 184 551 l 1,95,-1
 194 540 l 1,96,-1
 200 524 l 1,97,-1
 205 509 l 1,98,-1
 215 498 l 1,99,-1
 226 488 l 1,100,-1
 236 477 l 1,101,-1
 242 461 l 1,102,-1
 247 446 l 1,103,-1
 262 441 l 1,104,-1
 278 446 l 1,105,-1
 289 456 l 1,106,-1
 304 462 l 1,107,-1
 320 467 l 1,108,-1
 331 477 l 1,109,-1
 341 488 l 1,110,-1
 347 503 l 1,111,-1
 352 519 l 1,112,-1
 362 530 l 1,113,-1
 373 540 l 1,114,-1
 383 551 l 1,115,-1
 389 566 l 1,116,-1
 394 582 l 1,117,-1
 404 593 l 1,118,-1
 415 603 l 1,119,-1
 430 609 l 1,120,-1
 451 609 l 1,121,-1
 467 603 l 1,122,-1
 473 587 l 1,123,-1
 473 566 l 1,124,-1
 467 551 l 1,125,-1
 457 540 l 1,126,-1
 446 530 l 1,127,-1
 436 519 l 1,128,-1
 425 509 l 1,129,-1
 415 498 l 1,130,-1
 410 482 l 1,131,-1
 404 467 l 1,132,-1
 394 456 l 1,133,-1
 389 440 l 1,134,-1
 383 425 l 1,135,-1
 373 414 l 1,136,-1
 362 404 l 1,137,-1
 346 399 l 1,138,-1
 331 393 l 1,139,-1
 326 377 l 1,140,-1
 326 356 l 1,141,-1
 331 341 l 1,142,-1
 341 330 l 1,143,-1
 347 314 l 1,144,-1
 352 299 l 1,145,-1
 362 288 l 1,146,-1
 373 278 l 1,147,-1
 383 267 l 1,148,-1
 394 257 l 1,149,-1
 404 246 l 1,150,-1
 410 230 l 1,151,-1
 415 215 l 1,152,-1
 425 204 l 1,153,-1
 431 188 l 1,154,-1
 436 173 l 1,155,-1
 446 162 l 1,156,-1
 457 152 l 1,157,-1
 467 141 l 1,158,-1
 478 131 l 1,159,-1
 488 131 l 1,160,-1
 499 141 l 1,161,-1
 514 147 l 1,162,-1
 530 141 l 1,163,-1
 536 125 l 1,164,-1
 536 83 l 1,165,-1
 530 68 l 1,166,-1
 514 63 l 1,0,-1
EndSplineSet
Validated: 1
EndChar

StartChar: Y
Encoding: 316 89 60
Width: 568
GlyphClass: 2
Flags: W
LayerCount: 2
Fore
SplineSet
514 567 m 1,0,-1
 493 567 l 1,1,-1
 478 561 l 1,2,-1
 467 551 l 1,3,-1
 451 546 l 1,4,-1
 436 540 l 1,5,-1
 425 530 l 1,6,-1
 409 525 l 1,7,-1
 394 519 l 1,8,-1
 383 509 l 1,9,-1
 373 498 l 1,10,-1
 362 488 l 1,11,-1
 346 483 l 1,12,-1
 331 477 l 1,13,-1
 326 461 l 1,14,-1
 326 251 l 1,15,-1
 331 236 l 1,16,-1
 341 225 l 1,17,-1
 347 209 l 1,18,-1
 347 167 l 1,19,-1
 352 152 l 1,20,-1
 362 141 l 1,21,-1
 368 125 l 1,22,-1
 368 62 l 1,23,-1
 373 47 l 1,24,-1
 388 42 l 1,25,-1
 404 36 l 1,26,-1
 410 20 l 1,27,-1
 410 -22 l 1,28,-1
 404 -37 l 1,29,-1
 388 -42 l 1,30,-1
 367 -42 l 1,31,-1
 352 -37 l 1,32,-1
 347 -22 l 1,33,-1
 341 -6 l 1,34,-1
 331 5 l 1,35,-1
 326 20 l 1,36,-1
 326 62 l 1,37,-1
 320 78 l 1,38,-1
 310 89 l 1,39,-1
 305 104 l 1,40,-1
 305 167 l 1,41,-1
 299 183 l 1,42,-1
 289 194 l 1,43,-1
 284 209 l 1,44,-1
 284 293 l 1,45,-1
 278 309 l 1,46,-1
 268 320 l 1,47,-1
 257 330 l 1,48,-1
 247 341 l 1,49,-1
 242 356 l 1,50,-1
 236 372 l 1,51,-1
 226 383 l 1,52,-1
 215 393 l 1,53,-1
 205 404 l 1,54,-1
 200 419 l 1,55,-1
 194 435 l 1,56,-1
 184 446 l 1,57,-1
 173 456 l 1,58,-1
 163 467 l 1,59,-1
 152 477 l 1,60,-1
 142 488 l 1,61,-1
 137 503 l 1,62,-1
 131 519 l 1,63,-1
 121 530 l 1,64,-1
 110 540 l 1,65,-1
 100 551 l 1,66,-1
 89 561 l 1,67,-1
 79 572 l 1,68,-1
 74 587 l 1,69,-1
 68 603 l 1,70,-1
 52 609 l 1,71,-1
 37 614 l 1,72,-1
 32 629 l 1,73,-1
 32 671 l 1,74,-1
 37 687 l 1,75,-1
 52 693 l 1,76,-1
 68 687 l 1,77,-1
 79 677 l 1,78,-1
 89 666 l 1,79,-1
 100 656 l 1,80,-1
 110 645 l 1,81,-1
 121 635 l 1,82,-1
 131 624 l 1,83,-1
 142 614 l 1,84,-1
 152 603 l 1,85,-1
 158 587 l 1,86,-1
 163 572 l 1,87,-1
 173 561 l 1,88,-1
 184 551 l 1,89,-1
 194 540 l 1,90,-1
 205 530 l 1,91,-1
 215 519 l 1,92,-1
 221 503 l 1,93,-1
 226 488 l 1,94,-1
 236 477 l 1,95,-1
 247 467 l 1,96,-1
 257 456 l 1,97,-1
 263 440 l 1,98,-1
 268 425 l 1,99,-1
 278 425 l 1,100,-1
 284 440 l 1,101,-1
 284 503 l 1,102,-1
 289 519 l 1,103,-1
 299 530 l 1,104,-1
 310 540 l 1,105,-1
 320 551 l 1,106,-1
 331 561 l 1,107,-1
 346 567 l 1,108,-1
 362 572 l 1,109,-1
 373 582 l 1,110,-1
 383 593 l 1,111,-1
 394 603 l 1,112,-1
 409 609 l 1,113,-1
 425 614 l 1,114,-1
 436 624 l 1,115,-1
 451 630 l 1,116,-1
 467 635 l 1,117,-1
 478 645 l 1,118,-1
 493 651 l 1,119,-1
 514 651 l 1,120,-1
 530 645 l 1,121,-1
 536 629 l 1,122,-1
 536 587 l 1,123,-1
 530 572 l 1,124,-1
 514 567 l 1,0,-1
EndSplineSet
Validated: 1
EndChar

StartChar: Z
Encoding: 317 90 61
Width: 589
GlyphClass: 2
Flags: W
LayerCount: 2
Fore
SplineSet
535 -21 m 1,0,-1
 514 -21 l 1,1,-1
 499 -16 l 1,2,-1
 488 -6 l 1,3,-1
 472 0 l 1,4,-1
 388 0 l 1,5,-1
 373 5 l 1,6,-1
 362 15 l 1,7,-1
 346 21 l 1,8,-1
 331 26 l 1,9,-1
 320 36 l 1,10,-1
 304 42 l 1,11,-1
 220 42 l 1,12,-1
 205 36 l 1,13,-1
 194 26 l 1,14,-1
 178 21 l 1,15,-1
 163 15 l 1,16,-1
 152 5 l 1,17,-1
 136 0 l 1,18,-1
 115 0 l 1,19,-1
 100 -6 l 1,20,-1
 89 -16 l 1,21,-1
 73 -21 l 1,22,-1
 52 -21 l 1,23,-1
 37 -16 l 1,24,-1
 32 -1 l 1,25,-1
 32 20 l 1,26,-1
 37 36 l 1,27,-1
 47 47 l 1,28,-1
 53 62 l 1,29,-1
 58 78 l 1,30,-1
 68 89 l 1,31,-1
 74 104 l 1,32,-1
 79 120 l 1,33,-1
 89 131 l 1,34,-1
 100 141 l 1,35,-1
 110 152 l 1,36,-1
 121 162 l 1,37,-1
 131 173 l 1,38,-1
 142 183 l 1,39,-1
 152 194 l 1,40,-1
 163 204 l 1,41,-1
 173 215 l 1,42,-1
 184 225 l 1,43,-1
 194 236 l 1,44,-1
 205 246 l 1,45,-1
 215 257 l 1,46,-1
 226 267 l 1,47,-1
 236 278 l 1,48,-1
 247 288 l 1,49,-1
 257 299 l 1,50,-1
 263 314 l 1,51,-1
 268 330 l 1,52,-1
 278 341 l 1,53,-1
 289 351 l 1,54,-1
 299 362 l 1,55,-1
 310 372 l 1,56,-1
 320 383 l 1,57,-1
 331 393 l 1,58,-1
 341 404 l 1,59,-1
 352 414 l 1,60,-1
 367 420 l 1,61,-1
 383 425 l 1,62,-1
 394 435 l 1,63,-1
 404 446 l 1,64,-1
 415 456 l 1,65,-1
 425 467 l 1,66,-1
 425 477 l 1,67,-1
 409 483 l 1,68,-1
 94 483 l 1,69,-1
 79 488 l 1,70,-1
 68 498 l 1,71,-1
 52 504 l 1,72,-1
 37 509 l 1,73,-1
 32 524 l 1,74,-1
 32 545 l 1,75,-1
 37 561 l 1,76,-1
 52 567 l 1,77,-1
 73 567 l 1,78,-1
 89 561 l 1,79,-1
 100 551 l 1,80,-1
 115 546 l 1,81,-1
 493 546 l 1,82,-1
 509 540 l 1,83,-1
 515 524 l 1,84,-1
 515 482 l 1,85,-1
 509 467 l 1,86,-1
 499 456 l 1,87,-1
 488 446 l 1,88,-1
 478 435 l 1,89,-1
 473 419 l 1,90,-1
 467 404 l 1,91,-1
 457 393 l 1,92,-1
 446 383 l 1,93,-1
 430 378 l 1,94,-1
 415 372 l 1,95,-1
 404 362 l 1,96,-1
 394 351 l 1,97,-1
 383 341 l 1,98,-1
 373 330 l 1,99,-1
 362 320 l 1,100,-1
 352 309 l 1,101,-1
 341 299 l 1,102,-1
 331 288 l 1,103,-1
 320 278 l 1,104,-1
 310 267 l 1,105,-1
 299 257 l 1,106,-1
 289 246 l 1,107,-1
 278 236 l 1,108,-1
 268 225 l 1,109,-1
 257 215 l 1,110,-1
 247 204 l 1,111,-1
 242 188 l 1,112,-1
 236 173 l 1,113,-1
 220 168 l 1,114,-1
 205 162 l 1,115,-1
 200 146 l 1,116,-1
 194 131 l 1,117,-1
 178 126 l 1,118,-1
 163 120 l 1,119,-1
 158 104 l 1,120,-1
 163 89 l 1,121,-1
 173 89 l 1,122,-1
 184 99 l 1,123,-1
 199 105 l 1,124,-1
 325 105 l 1,125,-1
 341 99 l 1,126,-1
 352 89 l 1,127,-1
 367 84 l 1,128,-1
 388 84 l 1,129,-1
 404 78 l 1,130,-1
 415 68 l 1,131,-1
 430 63 l 1,132,-1
 514 63 l 1,133,-1
 530 57 l 1,134,-1
 541 47 l 1,135,-1
 551 36 l 1,136,-1
 557 20 l 1,137,-1
 557 -1 l 1,138,-1
 551 -16 l 1,139,-1
 535 -21 l 1,0,-1
EndSplineSet
Validated: 1
EndChar

StartChar: bracketleft
Encoding: 318 91 62
Width: 316
GlyphClass: 2
Flags: W
LayerCount: 2
Fore
SplineSet
262 483 m 1,0,-1
 178 483 l 1,1,-1
 163 477 l 1,2,-1
 158 461 l 1,3,-1
 158 398 l 1,4,-1
 152 383 l 1,5,-1
 142 372 l 1,6,-1
 137 356 l 1,7,-1
 137 293 l 1,8,-1
 131 278 l 1,9,-1
 121 267 l 1,10,-1
 116 251 l 1,11,-1
 116 230 l 1,12,-1
 110 215 l 1,13,-1
 100 204 l 1,14,-1
 95 188 l 1,15,-1
 95 167 l 1,16,-1
 89 152 l 1,17,-1
 79 141 l 1,18,-1
 74 125 l 1,19,-1
 74 104 l 1,20,-1
 79 89 l 1,21,-1
 89 78 l 1,22,-1
 100 68 l 1,23,-1
 110 57 l 1,24,-1
 121 47 l 1,25,-1
 136 42 l 1,26,-1
 178 42 l 1,27,-1
 194 36 l 1,28,-1
 205 26 l 1,29,-1
 220 21 l 1,30,-1
 236 15 l 1,31,-1
 242 -1 l 1,32,-1
 242 -22 l 1,33,-1
 236 -37 l 1,34,-1
 220 -42 l 1,35,-1
 199 -42 l 1,36,-1
 184 -37 l 1,37,-1
 173 -27 l 1,38,-1
 157 -21 l 1,39,-1
 94 -21 l 1,40,-1
 79 -16 l 1,41,-1
 68 -6 l 1,42,-1
 58 5 l 1,43,-1
 47 15 l 1,44,-1
 37 26 l 1,45,-1
 32 41 l 1,46,-1
 32 167 l 1,47,-1
 37 183 l 1,48,-1
 47 194 l 1,49,-1
 53 209 l 1,50,-1
 53 230 l 1,51,-1
 58 246 l 1,52,-1
 68 257 l 1,53,-1
 74 272 l 1,54,-1
 74 293 l 1,55,-1
 79 309 l 1,56,-1
 89 320 l 1,57,-1
 95 335 l 1,58,-1
 95 398 l 1,59,-1
 100 414 l 1,60,-1
 110 425 l 1,61,-1
 116 440 l 1,62,-1
 116 524 l 1,63,-1
 121 540 l 1,64,-1
 136 546 l 1,65,-1
 262 546 l 1,66,-1
 278 540 l 1,67,-1
 284 524 l 1,68,-1
 284 503 l 1,69,-1
 278 488 l 1,70,-1
 262 483 l 1,0,-1
EndSplineSet
Validated: 1
EndChar

StartChar: backslash
Encoding: 319 92 63
Width: 421
GlyphClass: 2
Flags: W
LayerCount: 2
Fore
SplineSet
367 -21 m 1,0,-1
 352 -16 l 1,1,-1
 341 -6 l 1,2,-1
 331 5 l 1,3,-1
 326 20 l 1,4,-1
 320 36 l 1,5,-1
 310 47 l 1,6,-1
 299 57 l 1,7,-1
 289 68 l 1,8,-1
 284 83 l 1,9,-1
 278 99 l 1,10,-1
 268 110 l 1,11,-1
 263 125 l 1,12,-1
 257 141 l 1,13,-1
 247 152 l 1,14,-1
 242 167 l 1,15,-1
 236 183 l 1,16,-1
 226 194 l 1,17,-1
 215 204 l 1,18,-1
 205 215 l 1,19,-1
 200 230 l 1,20,-1
 194 246 l 1,21,-1
 184 257 l 1,22,-1
 179 272 l 1,23,-1
 173 288 l 1,24,-1
 163 299 l 1,25,-1
 158 314 l 1,26,-1
 152 330 l 1,27,-1
 142 341 l 1,28,-1
 137 356 l 1,29,-1
 131 372 l 1,30,-1
 121 383 l 1,31,-1
 110 393 l 1,32,-1
 100 404 l 1,33,-1
 89 414 l 1,34,-1
 79 425 l 1,35,-1
 74 440 l 1,36,-1
 68 456 l 1,37,-1
 58 467 l 1,38,-1
 47 477 l 1,39,-1
 37 488 l 1,40,-1
 32 503 l 1,41,-1
 32 566 l 1,42,-1
 37 582 l 1,43,-1
 52 588 l 1,44,-1
 68 582 l 1,45,-1
 74 566 l 1,46,-1
 74 545 l 1,47,-1
 79 530 l 1,48,-1
 89 519 l 1,49,-1
 100 509 l 1,50,-1
 110 498 l 1,51,-1
 116 482 l 1,52,-1
 121 467 l 1,53,-1
 131 456 l 1,54,-1
 142 446 l 1,55,-1
 152 435 l 1,56,-1
 163 425 l 1,57,-1
 173 414 l 1,58,-1
 179 398 l 1,59,-1
 184 383 l 1,60,-1
 194 372 l 1,61,-1
 200 356 l 1,62,-1
 205 341 l 1,63,-1
 215 330 l 1,64,-1
 221 314 l 1,65,-1
 226 299 l 1,66,-1
 236 288 l 1,67,-1
 242 272 l 1,68,-1
 247 257 l 1,69,-1
 257 246 l 1,70,-1
 268 236 l 1,71,-1
 278 225 l 1,72,-1
 284 209 l 1,73,-1
 289 194 l 1,74,-1
 299 183 l 1,75,-1
 305 167 l 1,76,-1
 310 152 l 1,77,-1
 320 141 l 1,78,-1
 326 125 l 1,79,-1
 331 110 l 1,80,-1
 341 99 l 1,81,-1
 352 89 l 1,82,-1
 362 78 l 1,83,-1
 368 62 l 1,84,-1
 373 47 l 1,85,-1
 383 36 l 1,86,-1
 389 20 l 1,87,-1
 389 -1 l 1,88,-1
 383 -16 l 1,89,-1
 367 -21 l 1,0,-1
EndSplineSet
Validated: 1
EndChar

StartChar: bracketright
Encoding: 320 93 64
Width: 253
GlyphClass: 2
Flags: W
LayerCount: 2
Fore
SplineSet
199 -21 m 1,0,-1
 157 -21 l 1,1,-1
 142 -16 l 1,2,-1
 137 -1 l 1,3,-1
 137 20 l 1,4,-1
 142 36 l 1,5,-1
 157 42 l 1,6,-1
 173 47 l 1,7,-1
 179 62 l 1,8,-1
 179 104 l 1,9,-1
 173 120 l 1,10,-1
 163 131 l 1,11,-1
 158 146 l 1,12,-1
 158 482 l 1,13,-1
 152 498 l 1,14,-1
 142 509 l 1,15,-1
 131 519 l 1,16,-1
 115 525 l 1,17,-1
 52 525 l 1,18,-1
 37 530 l 1,19,-1
 32 545 l 1,20,-1
 32 566 l 1,21,-1
 37 582 l 1,22,-1
 52 588 l 1,23,-1
 157 588 l 1,24,-1
 173 582 l 1,25,-1
 184 572 l 1,26,-1
 194 561 l 1,27,-1
 200 545 l 1,28,-1
 200 188 l 1,29,-1
 205 173 l 1,30,-1
 215 162 l 1,31,-1
 221 146 l 1,32,-1
 221 -1 l 1,33,-1
 215 -16 l 1,34,-1
 199 -21 l 1,0,-1
EndSplineSet
Validated: 1
EndChar

StartChar: asciicircum
Encoding: 321 94 65
Width: 505
GlyphClass: 2
Flags: W
LayerCount: 2
Fore
SplineSet
451 336 m 1,0,-1
 436 341 l 1,1,-1
 425 351 l 1,2,-1
 415 362 l 1,3,-1
 410 377 l 1,4,-1
 404 393 l 1,5,-1
 394 404 l 1,6,-1
 383 414 l 1,7,-1
 373 425 l 1,8,-1
 362 435 l 1,9,-1
 352 446 l 1,10,-1
 347 461 l 1,11,-1
 347 482 l 1,12,-1
 341 498 l 1,13,-1
 331 509 l 1,14,-1
 320 519 l 1,15,-1
 310 530 l 1,16,-1
 299 540 l 1,17,-1
 289 551 l 1,18,-1
 278 561 l 1,19,-1
 268 561 l 1,20,-1
 257 551 l 1,21,-1
 241 546 l 1,22,-1
 226 540 l 1,23,-1
 215 530 l 1,24,-1
 205 519 l 1,25,-1
 194 509 l 1,26,-1
 184 498 l 1,27,-1
 173 488 l 1,28,-1
 163 477 l 1,29,-1
 152 467 l 1,30,-1
 136 462 l 1,31,-1
 121 456 l 1,32,-1
 116 440 l 1,33,-1
 110 425 l 1,34,-1
 94 420 l 1,35,-1
 52 420 l 1,36,-1
 37 425 l 1,37,-1
 32 440 l 1,38,-1
 32 461 l 1,39,-1
 37 477 l 1,40,-1
 52 483 l 1,41,-1
 68 488 l 1,42,-1
 79 498 l 1,43,-1
 89 509 l 1,44,-1
 100 519 l 1,45,-1
 115 525 l 1,46,-1
 131 530 l 1,47,-1
 142 540 l 1,48,-1
 152 551 l 1,49,-1
 158 566 l 1,50,-1
 163 582 l 1,51,-1
 178 588 l 1,52,-1
 194 593 l 1,53,-1
 205 603 l 1,54,-1
 215 614 l 1,55,-1
 226 624 l 1,56,-1
 241 630 l 1,57,-1
 283 630 l 1,58,-1
 299 624 l 1,59,-1
 310 614 l 1,60,-1
 320 603 l 1,61,-1
 331 593 l 1,62,-1
 341 582 l 1,63,-1
 352 572 l 1,64,-1
 362 561 l 1,65,-1
 373 551 l 1,66,-1
 383 540 l 1,67,-1
 389 524 l 1,68,-1
 389 503 l 1,69,-1
 394 488 l 1,70,-1
 404 477 l 1,71,-1
 415 467 l 1,72,-1
 425 456 l 1,73,-1
 436 446 l 1,74,-1
 446 435 l 1,75,-1
 452 419 l 1,76,-1
 457 404 l 1,77,-1
 467 393 l 1,78,-1
 473 377 l 1,79,-1
 473 356 l 1,80,-1
 467 341 l 1,81,-1
 451 336 l 1,0,-1
EndSplineSet
Validated: 1
EndChar

StartChar: underscore
Encoding: 322 95 66
Width: 337
GlyphClass: 2
Flags: W
LayerCount: 2
Fore
SplineSet
283 126 m 1,0,-1
 178 126 l 1,1,-1
 163 131 l 1,2,-1
 152 141 l 1,3,-1
 136 147 l 1,4,-1
 52 147 l 1,5,-1
 37 152 l 1,6,-1
 32 167 l 1,7,-1
 32 188 l 1,8,-1
 37 204 l 1,9,-1
 52 210 l 1,10,-1
 157 210 l 1,11,-1
 173 204 l 1,12,-1
 184 194 l 1,13,-1
 199 189 l 1,14,-1
 283 189 l 1,15,-1
 299 183 l 1,16,-1
 305 167 l 1,17,-1
 305 146 l 1,18,-1
 299 131 l 1,19,-1
 283 126 l 1,0,-1
EndSplineSet
Validated: 1
EndChar

StartChar: grave
Encoding: 323 96 67
Width: 148
GlyphClass: 2
Flags: W
LayerCount: 2
Fore
SplineSet
94 546 m 1,0,-1
 79 551 l 1,1,-1
 68 561 l 1,2,-1
 58 572 l 1,3,-1
 47 582 l 1,4,-1
 37 593 l 1,5,-1
 32 608 l 1,6,-1
 32 650 l 1,7,-1
 37 666 l 1,8,-1
 52 672 l 1,9,-1
 68 666 l 1,10,-1
 74 650 l 1,11,-1
 79 635 l 1,12,-1
 89 624 l 1,13,-1
 100 614 l 1,14,-1
 110 603 l 1,15,-1
 116 587 l 1,16,-1
 116 566 l 1,17,-1
 110 551 l 1,18,-1
 94 546 l 1,0,-1
EndSplineSet
Validated: 1
EndChar

StartChar: a
Encoding: 324 97 68
Width: 400
GlyphClass: 2
Flags: W
LayerCount: 2
Fore
SplineSet
346 42 m 1,0,-1
 331 47 l 1,1,-1
 320 57 l 1,2,-1
 304 63 l 1,3,-1
 262 63 l 1,4,-1
 247 57 l 1,5,-1
 236 47 l 1,6,-1
 220 42 l 1,7,-1
 73 42 l 1,8,-1
 58 47 l 1,9,-1
 47 57 l 1,10,-1
 37 68 l 1,11,-1
 32 83 l 1,12,-1
 32 125 l 1,13,-1
 37 141 l 1,14,-1
 47 152 l 1,15,-1
 58 162 l 1,16,-1
 68 173 l 1,17,-1
 79 183 l 1,18,-1
 89 194 l 1,19,-1
 95 209 l 1,20,-1
 95 272 l 1,21,-1
 100 288 l 1,22,-1
 110 299 l 1,23,-1
 116 314 l 1,24,-1
 121 330 l 1,25,-1
 131 341 l 1,26,-1
 142 351 l 1,27,-1
 157 357 l 1,28,-1
 220 357 l 1,29,-1
 236 351 l 1,30,-1
 247 341 l 1,31,-1
 257 330 l 1,32,-1
 268 320 l 1,33,-1
 278 309 l 1,34,-1
 284 293 l 1,35,-1
 289 278 l 1,36,-1
 299 267 l 1,37,-1
 305 251 l 1,38,-1
 305 230 l 1,39,-1
 310 215 l 1,40,-1
 320 204 l 1,41,-1
 326 188 l 1,42,-1
 331 173 l 1,43,-1
 341 162 l 1,44,-1
 352 152 l 1,45,-1
 362 141 l 1,46,-1
 368 125 l 1,47,-1
 368 62 l 1,48,-1
 362 47 l 1,49,-1
 346 42 l 1,0,-1
257 204 m 1,50,-1
 247 215 l 1,51,-1
 242 230 l 1,52,-1
 242 251 l 1,53,-1
 236 267 l 1,54,-1
 226 278 l 1,55,-1
 215 288 l 1,56,-1
 199 294 l 1,57,-1
 184 288 l 1,58,-1
 173 278 l 1,59,-1
 163 267 l 1,60,-1
 152 257 l 1,61,-1
 142 246 l 1,62,-1
 137 230 l 1,63,-1
 142 215 l 1,64,-1
 157 210 l 1,65,-1
 199 210 l 1,66,-1
 215 204 l 1,67,-1
 226 194 l 1,68,-1
 241 189 l 1,69,-1
 257 194 l 1,70,-1
 257 204 l 1,50,-1
215 120 m 1,71,-1
 199 126 l 1,72,-1
 184 131 l 1,73,-1
 173 141 l 1,74,-1
 157 147 l 1,75,-1
 142 141 l 1,76,-1
 131 131 l 1,77,-1
 115 126 l 1,78,-1
 100 120 l 1,79,-1
 100 110 l 1,80,-1
 115 105 l 1,81,-1
 199 105 l 1,82,-1
 215 110 l 1,83,-1
 215 120 l 1,71,-1
EndSplineSet
Validated: 1
EndChar

StartChar: b
Encoding: 325 98 69
Width: 463
GlyphClass: 2
Flags: W
LayerCount: 2
Fore
SplineSet
409 210 m 1,0,-1
 394 204 l 1,1,-1
 389 188 l 1,2,-1
 389 167 l 1,3,-1
 383 152 l 1,4,-1
 373 141 l 1,5,-1
 362 131 l 1,6,-1
 352 120 l 1,7,-1
 341 110 l 1,8,-1
 325 105 l 1,9,-1
 199 105 l 1,10,-1
 184 99 l 1,11,-1
 173 89 l 1,12,-1
 157 84 l 1,13,-1
 136 84 l 1,14,-1
 121 78 l 1,15,-1
 110 68 l 1,16,-1
 100 57 l 1,17,-1
 89 47 l 1,18,-1
 73 42 l 1,19,-1
 58 47 l 1,20,-1
 53 62 l 1,21,-1
 47 78 l 1,22,-1
 37 89 l 1,23,-1
 32 104 l 1,24,-1
 32 146 l 1,25,-1
 37 162 l 1,26,-1
 52 168 l 1,27,-1
 68 173 l 1,28,-1
 79 183 l 1,29,-1
 89 194 l 1,30,-1
 95 209 l 1,31,-1
 100 225 l 1,32,-1
 110 236 l 1,33,-1
 116 251 l 1,34,-1
 116 356 l 1,35,-1
 121 372 l 1,36,-1
 131 383 l 1,37,-1
 137 398 l 1,38,-1
 137 503 l 1,39,-1
 142 519 l 1,40,-1
 152 530 l 1,41,-1
 158 545 l 1,42,-1
 158 608 l 1,43,-1
 163 624 l 1,44,-1
 173 635 l 1,45,-1
 184 645 l 1,46,-1
 199 651 l 1,47,-1
 215 645 l 1,48,-1
 221 629 l 1,49,-1
 221 608 l 1,50,-1
 215 593 l 1,51,-1
 205 582 l 1,52,-1
 200 566 l 1,53,-1
 200 503 l 1,54,-1
 194 488 l 1,55,-1
 184 477 l 1,56,-1
 179 461 l 1,57,-1
 179 356 l 1,58,-1
 184 341 l 1,59,-1
 199 336 l 1,60,-1
 304 336 l 1,61,-1
 320 330 l 1,62,-1
 331 320 l 1,63,-1
 346 315 l 1,64,-1
 362 309 l 1,65,-1
 373 299 l 1,66,-1
 383 288 l 1,67,-1
 394 278 l 1,68,-1
 409 273 l 1,69,-1
 425 267 l 1,70,-1
 431 251 l 1,71,-1
 431 230 l 1,72,-1
 425 215 l 1,73,-1
 409 210 l 1,0,-1
341 225 m 1,74,-1
 331 236 l 1,75,-1
 320 246 l 1,76,-1
 310 257 l 1,77,-1
 299 267 l 1,78,-1
 283 273 l 1,79,-1
 241 273 l 1,80,-1
 226 267 l 1,81,-1
 215 257 l 1,82,-1
 205 246 l 1,83,-1
 194 236 l 1,84,-1
 178 231 l 1,85,-1
 163 225 l 1,86,-1
 158 209 l 1,87,-1
 158 188 l 1,88,-1
 163 173 l 1,89,-1
 178 168 l 1,90,-1
 283 168 l 1,91,-1
 299 173 l 1,92,-1
 310 183 l 1,93,-1
 320 194 l 1,94,-1
 331 204 l 1,95,-1
 341 215 l 1,96,-1
 341 225 l 1,74,-1
173 330 m 1,97,-1
 163 330 l 1,98,-1
 163 320 l 1,99,-1
 173 320 l 1,100,-1
 173 330 l 1,97,-1
152 162 m 1,101,-1
 142 162 l 1,102,-1
 142 152 l 1,103,-1
 152 152 l 1,104,-1
 152 162 l 1,101,-1
EndSplineSet
Validated: 1
EndChar

StartChar: c
Encoding: 326 99 70
Width: 337
GlyphClass: 2
Flags: W
LayerCount: 2
Fore
SplineSet
283 315 m 1,0,-1
 241 315 l 1,1,-1
 226 320 l 1,2,-1
 215 330 l 1,3,-1
 199 336 l 1,4,-1
 178 336 l 1,5,-1
 163 330 l 1,6,-1
 152 320 l 1,7,-1
 142 309 l 1,8,-1
 131 299 l 1,9,-1
 121 288 l 1,10,-1
 110 278 l 1,11,-1
 100 267 l 1,12,-1
 95 251 l 1,13,-1
 95 209 l 1,14,-1
 100 194 l 1,15,-1
 115 189 l 1,16,-1
 136 189 l 1,17,-1
 152 183 l 1,18,-1
 163 173 l 1,19,-1
 178 168 l 1,20,-1
 220 168 l 1,21,-1
 236 162 l 1,22,-1
 242 146 l 1,23,-1
 242 125 l 1,24,-1
 236 110 l 1,25,-1
 220 105 l 1,26,-1
 157 105 l 1,27,-1
 142 110 l 1,28,-1
 131 120 l 1,29,-1
 115 126 l 1,30,-1
 73 126 l 1,31,-1
 58 131 l 1,32,-1
 47 141 l 1,33,-1
 37 152 l 1,34,-1
 32 167 l 1,35,-1
 32 251 l 1,36,-1
 37 267 l 1,37,-1
 47 278 l 1,38,-1
 53 293 l 1,39,-1
 58 309 l 1,40,-1
 68 320 l 1,41,-1
 79 330 l 1,42,-1
 89 341 l 1,43,-1
 95 356 l 1,44,-1
 100 372 l 1,45,-1
 110 383 l 1,46,-1
 121 393 l 1,47,-1
 136 399 l 1,48,-1
 220 399 l 1,49,-1
 236 393 l 1,50,-1
 247 383 l 1,51,-1
 262 378 l 1,52,-1
 283 378 l 1,53,-1
 299 372 l 1,54,-1
 305 356 l 1,55,-1
 305 335 l 1,56,-1
 299 320 l 1,57,-1
 283 315 l 1,0,-1
EndSplineSet
Validated: 1
EndChar

StartChar: d
Encoding: 327 100 71
Width: 379
GlyphClass: 2
Flags: W
LayerCount: 2
Fore
SplineSet
325 -21 m 1,0,-1
 310 -16 l 1,1,-1
 299 -6 l 1,2,-1
 289 5 l 1,3,-1
 284 20 l 1,4,-1
 284 62 l 1,5,-1
 278 78 l 1,6,-1
 268 89 l 1,7,-1
 263 104 l 1,8,-1
 263 125 l 1,9,-1
 257 141 l 1,10,-1
 247 152 l 1,11,-1
 242 167 l 1,12,-1
 236 183 l 1,13,-1
 220 189 l 1,14,-1
 205 183 l 1,15,-1
 200 167 l 1,16,-1
 194 152 l 1,17,-1
 184 141 l 1,18,-1
 173 131 l 1,19,-1
 163 120 l 1,20,-1
 152 110 l 1,21,-1
 136 105 l 1,22,-1
 73 105 l 1,23,-1
 58 110 l 1,24,-1
 47 120 l 1,25,-1
 37 131 l 1,26,-1
 32 146 l 1,27,-1
 32 230 l 1,28,-1
 37 246 l 1,29,-1
 47 257 l 1,30,-1
 53 272 l 1,31,-1
 58 288 l 1,32,-1
 73 294 l 1,33,-1
 115 294 l 1,34,-1
 131 288 l 1,35,-1
 142 278 l 1,36,-1
 152 267 l 1,37,-1
 163 257 l 1,38,-1
 173 257 l 1,39,-1
 179 272 l 1,40,-1
 179 482 l 1,41,-1
 173 498 l 1,42,-1
 163 509 l 1,43,-1
 158 524 l 1,44,-1
 158 587 l 1,45,-1
 163 603 l 1,46,-1
 178 609 l 1,47,-1
 194 603 l 1,48,-1
 205 593 l 1,49,-1
 215 582 l 1,50,-1
 221 566 l 1,51,-1
 221 503 l 1,52,-1
 226 488 l 1,53,-1
 236 477 l 1,54,-1
 242 461 l 1,55,-1
 242 377 l 1,56,-1
 247 362 l 1,57,-1
 257 351 l 1,58,-1
 263 335 l 1,59,-1
 263 272 l 1,60,-1
 268 257 l 1,61,-1
 278 246 l 1,62,-1
 284 230 l 1,63,-1
 284 209 l 1,64,-1
 289 194 l 1,65,-1
 299 183 l 1,66,-1
 305 167 l 1,67,-1
 305 146 l 1,68,-1
 310 131 l 1,69,-1
 320 120 l 1,70,-1
 326 104 l 1,71,-1
 326 83 l 1,72,-1
 331 68 l 1,73,-1
 341 57 l 1,74,-1
 347 41 l 1,75,-1
 347 -1 l 1,76,-1
 341 -16 l 1,77,-1
 325 -21 l 1,0,-1
131 204 m 1,78,-1
 121 215 l 1,79,-1
 110 225 l 1,80,-1
 100 225 l 1,81,-1
 95 209 l 1,82,-1
 95 188 l 1,83,-1
 100 173 l 1,84,-1
 110 173 l 1,85,-1
 121 183 l 1,86,-1
 131 194 l 1,87,-1
 131 204 l 1,78,-1
EndSplineSet
Validated: 1
EndChar

StartChar: e
Encoding: 328 101 72
Width: 316
GlyphClass: 2
Flags: W
LayerCount: 2
Fore
SplineSet
268 78 m 1,0,-1
 257 68 l 1,1,-1
 241 63 l 1,2,-1
 157 63 l 1,3,-1
 142 68 l 1,4,-1
 131 78 l 1,5,-1
 121 89 l 1,6,-1
 116 104 l 1,7,-1
 110 120 l 1,8,-1
 100 131 l 1,9,-1
 95 146 l 1,10,-1
 95 167 l 1,11,-1
 89 183 l 1,12,-1
 79 194 l 1,13,-1
 68 204 l 1,14,-1
 58 215 l 1,15,-1
 53 230 l 1,16,-1
 53 251 l 1,17,-1
 47 267 l 1,18,-1
 37 278 l 1,19,-1
 32 293 l 1,20,-1
 32 419 l 1,21,-1
 37 435 l 1,22,-1
 47 446 l 1,23,-1
 58 456 l 1,24,-1
 73 462 l 1,25,-1
 199 462 l 1,26,-1
 215 456 l 1,27,-1
 221 440 l 1,28,-1
 221 356 l 1,29,-1
 215 341 l 1,30,-1
 205 330 l 1,31,-1
 194 320 l 1,32,-1
 184 309 l 1,33,-1
 179 293 l 1,34,-1
 173 278 l 1,35,-1
 157 273 l 1,36,-1
 142 267 l 1,37,-1
 131 257 l 1,38,-1
 121 246 l 1,39,-1
 121 236 l 1,40,-1
 131 225 l 1,41,-1
 137 209 l 1,42,-1
 137 188 l 1,43,-1
 142 173 l 1,44,-1
 152 162 l 1,45,-1
 163 152 l 1,46,-1
 173 141 l 1,47,-1
 184 131 l 1,48,-1
 199 126 l 1,49,-1
 215 131 l 1,50,-1
 226 141 l 1,51,-1
 236 152 l 1,52,-1
 247 162 l 1,53,-1
 262 168 l 1,54,-1
 278 162 l 1,55,-1
 284 146 l 1,56,-1
 284 104 l 1,57,-1
 278 89 l 1,58,-1
 268 78 l 1,0,-1
173 393 m 1,59,-1
 157 399 l 1,60,-1
 115 399 l 1,61,-1
 100 393 l 1,62,-1
 89 383 l 1,63,-1
 79 372 l 1,64,-1
 74 356 l 1,65,-1
 74 335 l 1,66,-1
 79 320 l 1,67,-1
 89 320 l 1,68,-1
 100 330 l 1,69,-1
 115 336 l 1,70,-1
 131 341 l 1,71,-1
 142 351 l 1,72,-1
 152 362 l 1,73,-1
 163 372 l 1,74,-1
 173 383 l 1,75,-1
 173 393 l 1,59,-1
EndSplineSet
Validated: 1
EndChar

StartChar: f
Encoding: 329 102 73
Width: 316
GlyphClass: 2
Flags: W
LayerCount: 2
Fore
SplineSet
262 231 m 1,0,-1
 220 231 l 1,1,-1
 205 225 l 1,2,-1
 200 209 l 1,3,-1
 200 83 l 1,4,-1
 194 68 l 1,5,-1
 178 63 l 1,6,-1
 163 68 l 1,7,-1
 158 83 l 1,8,-1
 158 188 l 1,9,-1
 152 204 l 1,10,-1
 142 204 l 1,11,-1
 131 194 l 1,12,-1
 115 189 l 1,13,-1
 100 183 l 1,14,-1
 89 173 l 1,15,-1
 79 162 l 1,16,-1
 68 152 l 1,17,-1
 52 147 l 1,18,-1
 37 152 l 1,19,-1
 32 167 l 1,20,-1
 32 209 l 1,21,-1
 37 225 l 1,22,-1
 52 231 l 1,23,-1
 68 236 l 1,24,-1
 79 246 l 1,25,-1
 94 252 l 1,26,-1
 110 257 l 1,27,-1
 121 267 l 1,28,-1
 131 278 l 1,29,-1
 131 288 l 1,30,-1
 121 299 l 1,31,-1
 116 314 l 1,32,-1
 116 356 l 1,33,-1
 110 372 l 1,34,-1
 100 383 l 1,35,-1
 95 398 l 1,36,-1
 95 482 l 1,37,-1
 89 498 l 1,38,-1
 79 509 l 1,39,-1
 74 524 l 1,40,-1
 74 629 l 1,41,-1
 79 645 l 1,42,-1
 94 651 l 1,43,-1
 199 651 l 1,44,-1
 215 645 l 1,45,-1
 226 635 l 1,46,-1
 236 624 l 1,47,-1
 247 614 l 1,48,-1
 257 603 l 1,49,-1
 268 593 l 1,50,-1
 278 582 l 1,51,-1
 284 566 l 1,52,-1
 284 524 l 1,53,-1
 278 509 l 1,54,-1
 262 504 l 1,55,-1
 247 509 l 1,56,-1
 242 524 l 1,57,-1
 236 540 l 1,58,-1
 226 551 l 1,59,-1
 215 561 l 1,60,-1
 199 567 l 1,61,-1
 184 572 l 1,62,-1
 173 582 l 1,63,-1
 157 588 l 1,64,-1
 136 588 l 1,65,-1
 121 582 l 1,66,-1
 116 566 l 1,67,-1
 121 551 l 1,68,-1
 131 540 l 1,69,-1
 137 524 l 1,70,-1
 137 440 l 1,71,-1
 142 425 l 1,72,-1
 152 414 l 1,73,-1
 158 398 l 1,74,-1
 158 356 l 1,75,-1
 163 341 l 1,76,-1
 173 330 l 1,77,-1
 179 314 l 1,78,-1
 184 299 l 1,79,-1
 199 294 l 1,80,-1
 262 294 l 1,81,-1
 278 288 l 1,82,-1
 284 272 l 1,83,-1
 284 251 l 1,84,-1
 278 236 l 1,85,-1
 262 231 l 1,0,-1
EndSplineSet
Validated: 1
EndChar

StartChar: g
Encoding: 330 103 74
Width: 421
GlyphClass: 2
Flags: W
LayerCount: 2
Fore
SplineSet
373 -153 m 1,0,-1
 362 -163 l 1,1,-1
 352 -174 l 1,2,-1
 341 -184 l 1,3,-1
 331 -195 l 1,4,-1
 320 -205 l 1,5,-1
 304 -210 l 1,6,-1
 283 -210 l 1,7,-1
 268 -216 l 1,8,-1
 257 -226 l 1,9,-1
 241 -231 l 1,10,-1
 226 -237 l 1,11,-1
 215 -247 l 1,12,-1
 199 -252 l 1,13,-1
 52 -252 l 1,14,-1
 37 -247 l 1,15,-1
 32 -232 l 1,16,-1
 32 -211 l 1,17,-1
 37 -195 l 1,18,-1
 52 -189 l 1,19,-1
 178 -189 l 1,20,-1
 194 -184 l 1,21,-1
 205 -174 l 1,22,-1
 220 -168 l 1,23,-1
 236 -163 l 1,24,-1
 247 -153 l 1,25,-1
 262 -147 l 1,26,-1
 283 -147 l 1,27,-1
 299 -142 l 1,28,-1
 310 -132 l 1,29,-1
 320 -121 l 1,30,-1
 331 -111 l 1,31,-1
 341 -100 l 1,32,-1
 341 -90 l 1,33,-1
 331 -79 l 1,34,-1
 326 -64 l 1,35,-1
 326 -1 l 1,36,-1
 320 15 l 1,37,-1
 310 26 l 1,38,-1
 305 41 l 1,39,-1
 305 83 l 1,40,-1
 299 99 l 1,41,-1
 289 110 l 1,42,-1
 284 125 l 1,43,-1
 278 141 l 1,44,-1
 268 141 l 1,45,-1
 257 131 l 1,46,-1
 247 120 l 1,47,-1
 236 110 l 1,48,-1
 226 99 l 1,49,-1
 215 89 l 1,50,-1
 199 84 l 1,51,-1
 136 84 l 1,52,-1
 121 89 l 1,53,-1
 110 99 l 1,54,-1
 100 110 l 1,55,-1
 95 125 l 1,56,-1
 95 188 l 1,57,-1
 100 204 l 1,58,-1
 110 215 l 1,59,-1
 121 225 l 1,60,-1
 131 236 l 1,61,-1
 137 251 l 1,62,-1
 142 267 l 1,63,-1
 152 278 l 1,64,-1
 163 288 l 1,65,-1
 178 294 l 1,66,-1
 262 294 l 1,67,-1
 278 288 l 1,68,-1
 289 278 l 1,69,-1
 304 273 l 1,70,-1
 320 267 l 1,71,-1
 331 257 l 1,72,-1
 341 246 l 1,73,-1
 347 230 l 1,74,-1
 347 209 l 1,75,-1
 341 194 l 1,76,-1
 331 183 l 1,77,-1
 326 167 l 1,78,-1
 331 152 l 1,79,-1
 341 141 l 1,80,-1
 347 125 l 1,81,-1
 347 104 l 1,82,-1
 352 89 l 1,83,-1
 362 78 l 1,84,-1
 368 62 l 1,85,-1
 368 -22 l 1,86,-1
 373 -37 l 1,87,-1
 383 -48 l 1,88,-1
 389 -64 l 1,89,-1
 389 -127 l 1,90,-1
 383 -142 l 1,91,-1
 373 -153 l 1,0,-1
236 225 m 1,92,-1
 220 231 l 1,93,-1
 205 225 l 1,94,-1
 194 215 l 1,95,-1
 184 204 l 1,96,-1
 173 194 l 1,97,-1
 163 183 l 1,98,-1
 158 167 l 1,99,-1
 163 152 l 1,100,-1
 178 147 l 1,101,-1
 194 152 l 1,102,-1
 205 162 l 1,103,-1
 215 173 l 1,104,-1
 221 188 l 1,105,-1
 226 204 l 1,106,-1
 236 215 l 1,107,-1
 236 225 l 1,92,-1
EndSplineSet
Validated: 1
EndChar

StartChar: h
Encoding: 331 104 75
Width: 274
GlyphClass: 2
Flags: W
LayerCount: 2
Fore
SplineSet
220 147 m 1,0,-1
 205 152 l 1,1,-1
 200 167 l 1,2,-1
 200 272 l 1,3,-1
 194 288 l 1,4,-1
 184 299 l 1,5,-1
 173 309 l 1,6,-1
 163 309 l 1,7,-1
 158 293 l 1,8,-1
 152 278 l 1,9,-1
 142 267 l 1,10,-1
 131 257 l 1,11,-1
 121 246 l 1,12,-1
 110 236 l 1,13,-1
 100 225 l 1,14,-1
 95 209 l 1,15,-1
 89 194 l 1,16,-1
 79 183 l 1,17,-1
 74 167 l 1,18,-1
 74 125 l 1,19,-1
 68 110 l 1,20,-1
 52 105 l 1,21,-1
 37 110 l 1,22,-1
 32 125 l 1,23,-1
 32 230 l 1,24,-1
 37 246 l 1,25,-1
 47 257 l 1,26,-1
 53 272 l 1,27,-1
 53 398 l 1,28,-1
 58 414 l 1,29,-1
 68 425 l 1,30,-1
 68 435 l 1,31,-1
 58 446 l 1,32,-1
 53 461 l 1,33,-1
 53 629 l 1,34,-1
 58 645 l 1,35,-1
 73 651 l 1,36,-1
 94 651 l 1,37,-1
 110 645 l 1,38,-1
 116 629 l 1,39,-1
 116 608 l 1,40,-1
 110 593 l 1,41,-1
 100 582 l 1,42,-1
 95 566 l 1,43,-1
 95 524 l 1,44,-1
 100 509 l 1,45,-1
 110 498 l 1,46,-1
 116 482 l 1,47,-1
 116 398 l 1,48,-1
 110 383 l 1,49,-1
 100 372 l 1,50,-1
 95 356 l 1,51,-1
 100 341 l 1,52,-1
 110 341 l 1,53,-1
 121 351 l 1,54,-1
 131 362 l 1,55,-1
 142 372 l 1,56,-1
 152 383 l 1,57,-1
 163 393 l 1,58,-1
 178 399 l 1,59,-1
 194 393 l 1,60,-1
 205 383 l 1,61,-1
 215 372 l 1,62,-1
 226 362 l 1,63,-1
 236 351 l 1,64,-1
 242 335 l 1,65,-1
 242 167 l 1,66,-1
 236 152 l 1,67,-1
 220 147 l 1,0,-1
EndSplineSet
Validated: 1
EndChar

StartChar: i
Encoding: 332 105 76
Width: 232
GlyphClass: 2
Flags: W
LayerCount: 2
Fore
SplineSet
178 126 m 1,0,-1
 163 131 l 1,1,-1
 152 141 l 1,2,-1
 142 152 l 1,3,-1
 137 167 l 1,4,-1
 137 230 l 1,5,-1
 131 246 l 1,6,-1
 121 257 l 1,7,-1
 116 272 l 1,8,-1
 116 356 l 1,9,-1
 121 372 l 1,10,-1
 136 378 l 1,11,-1
 152 372 l 1,12,-1
 158 356 l 1,13,-1
 158 314 l 1,14,-1
 163 299 l 1,15,-1
 173 288 l 1,16,-1
 179 272 l 1,17,-1
 179 209 l 1,18,-1
 184 194 l 1,19,-1
 194 183 l 1,20,-1
 200 167 l 1,21,-1
 200 146 l 1,22,-1
 194 131 l 1,23,-1
 178 126 l 1,0,-1
73 567 m 1,24,-1
 52 567 l 1,25,-1
 37 572 l 1,26,-1
 32 587 l 1,27,-1
 32 608 l 1,28,-1
 37 624 l 1,29,-1
 52 630 l 1,30,-1
 73 630 l 1,31,-1
 89 624 l 1,32,-1
 95 608 l 1,33,-1
 95 587 l 1,34,-1
 89 572 l 1,35,-1
 73 567 l 1,24,-1
EndSplineSet
Validated: 1
EndChar

StartChar: j
Encoding: 333 106 77
Width: 232
GlyphClass: 2
Flags: W
LayerCount: 2
Fore
SplineSet
184 -195 m 1,0,-1
 173 -205 l 1,1,-1
 163 -216 l 1,2,-1
 152 -226 l 1,3,-1
 136 -231 l 1,4,-1
 115 -231 l 1,5,-1
 100 -226 l 1,6,-1
 95 -211 l 1,7,-1
 95 -169 l 1,8,-1
 100 -153 l 1,9,-1
 115 -147 l 1,10,-1
 131 -142 l 1,11,-1
 142 -132 l 1,12,-1
 152 -121 l 1,13,-1
 158 -106 l 1,14,-1
 158 -1 l 1,15,-1
 152 15 l 1,16,-1
 142 26 l 1,17,-1
 137 41 l 1,18,-1
 137 62 l 1,19,-1
 131 78 l 1,20,-1
 121 89 l 1,21,-1
 116 104 l 1,22,-1
 116 125 l 1,23,-1
 110 141 l 1,24,-1
 100 152 l 1,25,-1
 95 167 l 1,26,-1
 89 183 l 1,27,-1
 79 194 l 1,28,-1
 74 209 l 1,29,-1
 74 251 l 1,30,-1
 79 267 l 1,31,-1
 94 273 l 1,32,-1
 110 267 l 1,33,-1
 121 257 l 1,34,-1
 136 252 l 1,35,-1
 152 246 l 1,36,-1
 158 230 l 1,37,-1
 158 146 l 1,38,-1
 163 131 l 1,39,-1
 173 120 l 1,40,-1
 179 104 l 1,41,-1
 179 83 l 1,42,-1
 184 68 l 1,43,-1
 194 57 l 1,44,-1
 200 41 l 1,45,-1
 200 -169 l 1,46,-1
 194 -184 l 1,47,-1
 184 -195 l 1,0,-1
52 294 m 1,48,-1
 37 299 l 1,49,-1
 32 314 l 1,50,-1
 32 335 l 1,51,-1
 37 351 l 1,52,-1
 52 357 l 1,53,-1
 68 351 l 1,54,-1
 74 335 l 1,55,-1
 74 314 l 1,56,-1
 68 299 l 1,57,-1
 52 294 l 1,48,-1
EndSplineSet
Validated: 1
EndChar

StartChar: k
Encoding: 334 107 78
Width: 232
GlyphClass: 2
Flags: W
LayerCount: 2
Fore
SplineSet
178 21 m 1,0,-1
 163 26 l 1,1,-1
 158 41 l 1,2,-1
 152 57 l 1,3,-1
 142 68 l 1,4,-1
 131 78 l 1,5,-1
 115 84 l 1,6,-1
 100 78 l 1,7,-1
 95 62 l 1,8,-1
 95 41 l 1,9,-1
 89 26 l 1,10,-1
 73 21 l 1,11,-1
 52 21 l 1,12,-1
 37 26 l 1,13,-1
 32 41 l 1,14,-1
 32 62 l 1,15,-1
 37 78 l 1,16,-1
 47 89 l 1,17,-1
 53 104 l 1,18,-1
 53 146 l 1,19,-1
 47 162 l 1,20,-1
 37 173 l 1,21,-1
 32 188 l 1,22,-1
 32 608 l 1,23,-1
 37 624 l 1,24,-1
 52 630 l 1,25,-1
 68 624 l 1,26,-1
 74 608 l 1,27,-1
 74 293 l 1,28,-1
 79 278 l 1,29,-1
 89 278 l 1,30,-1
 100 288 l 1,31,-1
 110 299 l 1,32,-1
 121 309 l 1,33,-1
 136 315 l 1,34,-1
 157 315 l 1,35,-1
 173 309 l 1,36,-1
 179 293 l 1,37,-1
 179 251 l 1,38,-1
 173 236 l 1,39,-1
 157 231 l 1,40,-1
 142 225 l 1,41,-1
 131 215 l 1,42,-1
 121 204 l 1,43,-1
 116 188 l 1,44,-1
 121 173 l 1,45,-1
 131 162 l 1,46,-1
 142 152 l 1,47,-1
 152 141 l 1,48,-1
 163 131 l 1,49,-1
 173 120 l 1,50,-1
 184 110 l 1,51,-1
 194 99 l 1,52,-1
 200 83 l 1,53,-1
 200 41 l 1,54,-1
 194 26 l 1,55,-1
 178 21 l 1,0,-1
EndSplineSet
Validated: 1
EndChar

StartChar: l
Encoding: 335 108 79
Width: 232
GlyphClass: 2
Flags: W
LayerCount: 2
Fore
SplineSet
184 498 m 1,0,-1
 179 482 l 1,1,-1
 179 440 l 1,2,-1
 173 425 l 1,3,-1
 163 414 l 1,4,-1
 158 398 l 1,5,-1
 158 377 l 1,6,-1
 152 362 l 1,7,-1
 142 351 l 1,8,-1
 137 335 l 1,9,-1
 137 314 l 1,10,-1
 131 299 l 1,11,-1
 121 288 l 1,12,-1
 116 272 l 1,13,-1
 116 230 l 1,14,-1
 110 215 l 1,15,-1
 100 204 l 1,16,-1
 95 188 l 1,17,-1
 95 62 l 1,18,-1
 89 47 l 1,19,-1
 73 42 l 1,20,-1
 52 42 l 1,21,-1
 37 47 l 1,22,-1
 32 62 l 1,23,-1
 32 104 l 1,24,-1
 37 120 l 1,25,-1
 47 131 l 1,26,-1
 53 146 l 1,27,-1
 53 230 l 1,28,-1
 58 246 l 1,29,-1
 68 257 l 1,30,-1
 74 272 l 1,31,-1
 74 314 l 1,32,-1
 79 330 l 1,33,-1
 89 341 l 1,34,-1
 95 356 l 1,35,-1
 95 398 l 1,36,-1
 100 414 l 1,37,-1
 110 425 l 1,38,-1
 116 440 l 1,39,-1
 116 461 l 1,40,-1
 121 477 l 1,41,-1
 131 488 l 1,42,-1
 137 503 l 1,43,-1
 137 524 l 1,44,-1
 142 540 l 1,45,-1
 152 551 l 1,46,-1
 158 566 l 1,47,-1
 163 582 l 1,48,-1
 178 588 l 1,49,-1
 194 582 l 1,50,-1
 200 566 l 1,51,-1
 200 524 l 1,52,-1
 194 509 l 1,53,-1
 184 498 l 1,0,-1
EndSplineSet
Validated: 1
EndChar

StartChar: m
Encoding: 336 109 80
Width: 610
GlyphClass: 2
Flags: W
LayerCount: 2
Fore
SplineSet
556 -21 m 1,0,-1
 535 -21 l 1,1,-1
 520 -16 l 1,2,-1
 515 -1 l 1,3,-1
 509 15 l 1,4,-1
 499 26 l 1,5,-1
 494 41 l 1,6,-1
 488 57 l 1,7,-1
 478 68 l 1,8,-1
 467 78 l 1,9,-1
 457 89 l 1,10,-1
 446 99 l 1,11,-1
 436 99 l 1,12,-1
 425 89 l 1,13,-1
 415 78 l 1,14,-1
 404 68 l 1,15,-1
 394 57 l 1,16,-1
 389 41 l 1,17,-1
 383 26 l 1,18,-1
 367 21 l 1,19,-1
 346 21 l 1,20,-1
 331 26 l 1,21,-1
 326 41 l 1,22,-1
 326 104 l 1,23,-1
 320 120 l 1,24,-1
 310 131 l 1,25,-1
 305 146 l 1,26,-1
 305 167 l 1,27,-1
 299 183 l 1,28,-1
 289 194 l 1,29,-1
 278 204 l 1,30,-1
 268 215 l 1,31,-1
 257 225 l 1,32,-1
 241 231 l 1,33,-1
 226 225 l 1,34,-1
 215 215 l 1,35,-1
 205 204 l 1,36,-1
 194 194 l 1,37,-1
 184 183 l 1,38,-1
 173 173 l 1,39,-1
 163 162 l 1,40,-1
 152 152 l 1,41,-1
 142 141 l 1,42,-1
 131 131 l 1,43,-1
 121 120 l 1,44,-1
 110 110 l 1,45,-1
 100 99 l 1,46,-1
 95 83 l 1,47,-1
 89 68 l 1,48,-1
 79 57 l 1,49,-1
 68 47 l 1,50,-1
 52 42 l 1,51,-1
 37 47 l 1,52,-1
 32 62 l 1,53,-1
 32 104 l 1,54,-1
 37 120 l 1,55,-1
 47 131 l 1,56,-1
 53 146 l 1,57,-1
 58 162 l 1,58,-1
 68 173 l 1,59,-1
 74 188 l 1,60,-1
 74 209 l 1,61,-1
 79 225 l 1,62,-1
 89 236 l 1,63,-1
 95 251 l 1,64,-1
 95 314 l 1,65,-1
 100 330 l 1,66,-1
 110 341 l 1,67,-1
 116 356 l 1,68,-1
 116 377 l 1,69,-1
 121 393 l 1,70,-1
 136 399 l 1,71,-1
 152 393 l 1,72,-1
 158 377 l 1,73,-1
 158 314 l 1,74,-1
 152 299 l 1,75,-1
 142 288 l 1,76,-1
 137 272 l 1,77,-1
 142 257 l 1,78,-1
 152 257 l 1,79,-1
 163 267 l 1,80,-1
 173 278 l 1,81,-1
 184 288 l 1,82,-1
 199 294 l 1,83,-1
 215 299 l 1,84,-1
 226 309 l 1,85,-1
 241 315 l 1,86,-1
 262 315 l 1,87,-1
 278 309 l 1,88,-1
 289 299 l 1,89,-1
 299 288 l 1,90,-1
 310 278 l 1,91,-1
 320 267 l 1,92,-1
 331 257 l 1,93,-1
 341 246 l 1,94,-1
 347 230 l 1,95,-1
 347 209 l 1,96,-1
 352 194 l 1,97,-1
 362 183 l 1,98,-1
 368 167 l 1,99,-1
 373 152 l 1,100,-1
 383 152 l 1,101,-1
 394 162 l 1,102,-1
 409 168 l 1,103,-1
 472 168 l 1,104,-1
 488 162 l 1,105,-1
 499 152 l 1,106,-1
 509 141 l 1,107,-1
 515 125 l 1,108,-1
 520 110 l 1,109,-1
 530 99 l 1,110,-1
 541 89 l 1,111,-1
 551 78 l 1,112,-1
 557 62 l 1,113,-1
 562 47 l 1,114,-1
 572 36 l 1,115,-1
 578 20 l 1,116,-1
 578 -1 l 1,117,-1
 572 -16 l 1,118,-1
 556 -21 l 1,0,-1
EndSplineSet
Validated: 1
EndChar

StartChar: n
Encoding: 337 110 81
Width: 379
GlyphClass: 2
Flags: W
LayerCount: 2
Fore
SplineSet
325 -42 m 1,0,-1
 310 -37 l 1,1,-1
 305 -22 l 1,2,-1
 305 62 l 1,3,-1
 299 78 l 1,4,-1
 289 89 l 1,5,-1
 284 104 l 1,6,-1
 278 120 l 1,7,-1
 268 131 l 1,8,-1
 257 141 l 1,9,-1
 247 152 l 1,10,-1
 236 162 l 1,11,-1
 226 173 l 1,12,-1
 215 183 l 1,13,-1
 205 194 l 1,14,-1
 194 204 l 1,15,-1
 184 204 l 1,16,-1
 173 194 l 1,17,-1
 163 183 l 1,18,-1
 152 173 l 1,19,-1
 142 162 l 1,20,-1
 131 152 l 1,21,-1
 121 141 l 1,22,-1
 116 125 l 1,23,-1
 110 110 l 1,24,-1
 100 99 l 1,25,-1
 89 89 l 1,26,-1
 79 78 l 1,27,-1
 68 68 l 1,28,-1
 52 63 l 1,29,-1
 37 68 l 1,30,-1
 32 83 l 1,31,-1
 32 272 l 1,32,-1
 37 288 l 1,33,-1
 52 294 l 1,34,-1
 68 288 l 1,35,-1
 74 272 l 1,36,-1
 74 209 l 1,37,-1
 79 194 l 1,38,-1
 89 194 l 1,39,-1
 95 209 l 1,40,-1
 100 225 l 1,41,-1
 110 236 l 1,42,-1
 121 246 l 1,43,-1
 131 257 l 1,44,-1
 142 267 l 1,45,-1
 157 273 l 1,46,-1
 220 273 l 1,47,-1
 236 267 l 1,48,-1
 247 257 l 1,49,-1
 257 246 l 1,50,-1
 263 230 l 1,51,-1
 268 215 l 1,52,-1
 283 210 l 1,53,-1
 299 204 l 1,54,-1
 310 194 l 1,55,-1
 320 183 l 1,56,-1
 326 167 l 1,57,-1
 331 152 l 1,58,-1
 341 141 l 1,59,-1
 347 125 l 1,60,-1
 347 -22 l 1,61,-1
 341 -37 l 1,62,-1
 325 -42 l 1,0,-1
EndSplineSet
Validated: 1
EndChar

StartChar: o
Encoding: 338 111 82
Width: 253
GlyphClass: 2
Flags: W
LayerCount: 2
Fore
SplineSet
199 126 m 1,0,-1
 52 126 l 1,1,-1
 37 131 l 1,2,-1
 32 146 l 1,3,-1
 32 209 l 1,4,-1
 37 225 l 1,5,-1
 47 236 l 1,6,-1
 58 246 l 1,7,-1
 68 257 l 1,8,-1
 79 267 l 1,9,-1
 89 278 l 1,10,-1
 100 288 l 1,11,-1
 110 299 l 1,12,-1
 121 309 l 1,13,-1
 136 315 l 1,14,-1
 152 309 l 1,15,-1
 163 299 l 1,16,-1
 178 294 l 1,17,-1
 194 288 l 1,18,-1
 205 278 l 1,19,-1
 215 267 l 1,20,-1
 221 251 l 1,21,-1
 221 146 l 1,22,-1
 215 131 l 1,23,-1
 199 126 l 1,0,-1
179 209 m 1,24,-1
 173 225 l 1,25,-1
 157 231 l 1,26,-1
 136 231 l 1,27,-1
 121 225 l 1,28,-1
 110 215 l 1,29,-1
 100 204 l 1,30,-1
 100 194 l 1,31,-1
 115 189 l 1,32,-1
 157 189 l 1,33,-1
 173 194 l 1,34,-1
 179 209 l 1,24,-1
EndSplineSet
Validated: 1
EndChar

StartChar: p
Encoding: 339 112 83
Width: 337
GlyphClass: 2
Flags: W
LayerCount: 2
Fore
SplineSet
289 246 m 1,0,-1
 284 230 l 1,1,-1
 278 215 l 1,2,-1
 262 210 l 1,3,-1
 247 204 l 1,4,-1
 236 194 l 1,5,-1
 226 183 l 1,6,-1
 215 173 l 1,7,-1
 199 168 l 1,8,-1
 115 168 l 1,9,-1
 100 162 l 1,10,-1
 95 146 l 1,11,-1
 95 20 l 1,12,-1
 89 5 l 1,13,-1
 79 -6 l 1,14,-1
 74 -22 l 1,15,-1
 74 -106 l 1,16,-1
 68 -121 l 1,17,-1
 52 -126 l 1,18,-1
 37 -121 l 1,19,-1
 32 -106 l 1,20,-1
 32 188 l 1,21,-1
 37 204 l 1,22,-1
 47 215 l 1,23,-1
 53 230 l 1,24,-1
 53 251 l 1,25,-1
 47 267 l 1,26,-1
 37 278 l 1,27,-1
 32 293 l 1,28,-1
 32 377 l 1,29,-1
 37 393 l 1,30,-1
 47 404 l 1,31,-1
 58 414 l 1,32,-1
 73 420 l 1,33,-1
 89 425 l 1,34,-1
 100 435 l 1,35,-1
 115 441 l 1,36,-1
 131 446 l 1,37,-1
 142 456 l 1,38,-1
 157 462 l 1,39,-1
 241 462 l 1,40,-1
 257 456 l 1,41,-1
 268 446 l 1,42,-1
 278 435 l 1,43,-1
 284 419 l 1,44,-1
 289 404 l 1,45,-1
 299 393 l 1,46,-1
 305 377 l 1,47,-1
 305 272 l 1,48,-1
 299 257 l 1,49,-1
 289 246 l 1,0,-1
263 314 m 1,50,-1
 263 335 l 1,51,-1
 257 351 l 1,52,-1
 247 362 l 1,53,-1
 242 377 l 1,54,-1
 236 393 l 1,55,-1
 220 399 l 1,56,-1
 178 399 l 1,57,-1
 163 393 l 1,58,-1
 152 383 l 1,59,-1
 136 378 l 1,60,-1
 121 372 l 1,61,-1
 110 362 l 1,62,-1
 100 351 l 1,63,-1
 89 341 l 1,64,-1
 79 330 l 1,65,-1
 79 320 l 1,66,-1
 94 315 l 1,67,-1
 110 309 l 1,68,-1
 116 293 l 1,69,-1
 116 251 l 1,70,-1
 121 236 l 1,71,-1
 136 231 l 1,72,-1
 178 231 l 1,73,-1
 194 236 l 1,74,-1
 205 246 l 1,75,-1
 215 257 l 1,76,-1
 226 267 l 1,77,-1
 236 278 l 1,78,-1
 247 288 l 1,79,-1
 257 299 l 1,80,-1
 263 314 l 1,50,-1
EndSplineSet
Validated: 1
EndChar

StartChar: q
Encoding: 340 113 84
Width: 295
GlyphClass: 2
Flags: W
LayerCount: 2
Fore
SplineSet
241 -42 m 1,0,-1
 220 -42 l 1,1,-1
 205 -37 l 1,2,-1
 200 -22 l 1,3,-1
 200 209 l 1,4,-1
 194 225 l 1,5,-1
 184 225 l 1,6,-1
 173 215 l 1,7,-1
 163 204 l 1,8,-1
 152 194 l 1,9,-1
 136 189 l 1,10,-1
 94 189 l 1,11,-1
 79 194 l 1,12,-1
 68 204 l 1,13,-1
 52 210 l 1,14,-1
 37 215 l 1,15,-1
 32 230 l 1,16,-1
 32 356 l 1,17,-1
 37 372 l 1,18,-1
 47 383 l 1,19,-1
 58 393 l 1,20,-1
 68 404 l 1,21,-1
 74 419 l 1,22,-1
 79 435 l 1,23,-1
 89 446 l 1,24,-1
 100 456 l 1,25,-1
 115 462 l 1,26,-1
 178 462 l 1,27,-1
 194 456 l 1,28,-1
 205 446 l 1,29,-1
 220 441 l 1,30,-1
 236 435 l 1,31,-1
 242 419 l 1,32,-1
 242 377 l 1,33,-1
 236 362 l 1,34,-1
 226 351 l 1,35,-1
 221 335 l 1,36,-1
 221 293 l 1,37,-1
 226 278 l 1,38,-1
 236 267 l 1,39,-1
 242 251 l 1,40,-1
 242 41 l 1,41,-1
 247 26 l 1,42,-1
 257 15 l 1,43,-1
 263 -1 l 1,44,-1
 263 -22 l 1,45,-1
 257 -37 l 1,46,-1
 241 -42 l 1,0,-1
179 335 m 1,47,-1
 179 356 l 1,48,-1
 173 372 l 1,49,-1
 163 383 l 1,50,-1
 152 393 l 1,51,-1
 136 399 l 1,52,-1
 121 393 l 1,53,-1
 116 377 l 1,54,-1
 110 362 l 1,55,-1
 100 351 l 1,56,-1
 95 335 l 1,57,-1
 89 320 l 1,58,-1
 79 309 l 1,59,-1
 74 293 l 1,60,-1
 79 278 l 1,61,-1
 89 267 l 1,62,-1
 100 257 l 1,63,-1
 115 252 l 1,64,-1
 131 257 l 1,65,-1
 142 267 l 1,66,-1
 152 278 l 1,67,-1
 158 293 l 1,68,-1
 163 309 l 1,69,-1
 173 320 l 1,70,-1
 179 335 l 1,47,-1
EndSplineSet
Validated: 1
EndChar

StartChar: r
Encoding: 341 114 85
Width: 232
GlyphClass: 2
Flags: W
LayerCount: 2
Fore
SplineSet
184 309 m 1,0,-1
 173 299 l 1,1,-1
 157 294 l 1,2,-1
 136 294 l 1,3,-1
 121 288 l 1,4,-1
 110 278 l 1,5,-1
 100 267 l 1,6,-1
 89 257 l 1,7,-1
 79 246 l 1,8,-1
 74 230 l 1,9,-1
 74 167 l 1,10,-1
 68 152 l 1,11,-1
 52 147 l 1,12,-1
 37 152 l 1,13,-1
 32 167 l 1,14,-1
 32 440 l 1,15,-1
 37 456 l 1,16,-1
 52 462 l 1,17,-1
 68 456 l 1,18,-1
 74 440 l 1,19,-1
 74 356 l 1,20,-1
 79 341 l 1,21,-1
 89 341 l 1,22,-1
 100 351 l 1,23,-1
 115 357 l 1,24,-1
 136 357 l 1,25,-1
 152 362 l 1,26,-1
 163 372 l 1,27,-1
 178 378 l 1,28,-1
 194 372 l 1,29,-1
 200 356 l 1,30,-1
 200 335 l 1,31,-1
 194 320 l 1,32,-1
 184 309 l 1,0,-1
EndSplineSet
Validated: 1
EndChar

StartChar: s
Encoding: 342 115 86
Width: 211
GlyphClass: 2
Flags: W
LayerCount: 2
Fore
SplineSet
163 141 m 1,0,-1
 152 131 l 1,1,-1
 142 120 l 1,2,-1
 131 110 l 1,3,-1
 115 105 l 1,4,-1
 52 105 l 1,5,-1
 37 110 l 1,6,-1
 32 125 l 1,7,-1
 32 146 l 1,8,-1
 37 162 l 1,9,-1
 52 168 l 1,10,-1
 73 168 l 1,11,-1
 89 173 l 1,12,-1
 100 183 l 1,13,-1
 110 194 l 1,14,-1
 116 209 l 1,15,-1
 110 225 l 1,16,-1
 94 231 l 1,17,-1
 79 236 l 1,18,-1
 68 246 l 1,19,-1
 58 257 l 1,20,-1
 53 272 l 1,21,-1
 53 335 l 1,22,-1
 58 351 l 1,23,-1
 68 362 l 1,24,-1
 74 377 l 1,25,-1
 79 393 l 1,26,-1
 89 404 l 1,27,-1
 100 414 l 1,28,-1
 115 420 l 1,29,-1
 157 420 l 1,30,-1
 173 414 l 1,31,-1
 179 398 l 1,32,-1
 179 377 l 1,33,-1
 173 362 l 1,34,-1
 157 357 l 1,35,-1
 142 351 l 1,36,-1
 131 341 l 1,37,-1
 121 330 l 1,38,-1
 116 314 l 1,39,-1
 121 299 l 1,40,-1
 136 294 l 1,41,-1
 152 288 l 1,42,-1
 163 278 l 1,43,-1
 173 267 l 1,44,-1
 179 251 l 1,45,-1
 179 167 l 1,46,-1
 173 152 l 1,47,-1
 163 141 l 1,0,-1
EndSplineSet
Validated: 1
EndChar

StartChar: t
Encoding: 343 116 87
Width: 253
GlyphClass: 2
Flags: W
LayerCount: 2
Fore
SplineSet
199 21 m 1,0,-1
 184 26 l 1,1,-1
 173 36 l 1,2,-1
 163 47 l 1,3,-1
 158 62 l 1,4,-1
 152 78 l 1,5,-1
 142 89 l 1,6,-1
 131 99 l 1,7,-1
 121 110 l 1,8,-1
 110 120 l 1,9,-1
 100 131 l 1,10,-1
 95 146 l 1,11,-1
 89 162 l 1,12,-1
 79 173 l 1,13,-1
 74 188 l 1,14,-1
 74 230 l 1,15,-1
 68 246 l 1,16,-1
 58 257 l 1,17,-1
 47 267 l 1,18,-1
 37 278 l 1,19,-1
 32 293 l 1,20,-1
 32 335 l 1,21,-1
 37 351 l 1,22,-1
 47 362 l 1,23,-1
 53 377 l 1,24,-1
 53 608 l 1,25,-1
 58 624 l 1,26,-1
 73 630 l 1,27,-1
 89 624 l 1,28,-1
 95 608 l 1,29,-1
 95 377 l 1,30,-1
 100 362 l 1,31,-1
 115 357 l 1,32,-1
 157 357 l 1,33,-1
 173 351 l 1,34,-1
 179 335 l 1,35,-1
 179 314 l 1,36,-1
 173 299 l 1,37,-1
 157 294 l 1,38,-1
 136 294 l 1,39,-1
 121 288 l 1,40,-1
 116 272 l 1,41,-1
 116 230 l 1,42,-1
 121 215 l 1,43,-1
 131 204 l 1,44,-1
 142 194 l 1,45,-1
 152 183 l 1,46,-1
 163 173 l 1,47,-1
 173 162 l 1,48,-1
 179 146 l 1,49,-1
 184 131 l 1,50,-1
 194 120 l 1,51,-1
 205 110 l 1,52,-1
 215 99 l 1,53,-1
 221 83 l 1,54,-1
 221 41 l 1,55,-1
 215 26 l 1,56,-1
 199 21 l 1,0,-1
EndSplineSet
Validated: 1
EndChar

StartChar: u
Encoding: 344 117 88
Width: 295
GlyphClass: 2
Flags: W
LayerCount: 2
Fore
SplineSet
241 126 m 1,0,-1
 220 126 l 1,1,-1
 205 131 l 1,2,-1
 200 146 l 1,3,-1
 200 209 l 1,4,-1
 194 225 l 1,5,-1
 184 225 l 1,6,-1
 173 215 l 1,7,-1
 163 204 l 1,8,-1
 158 188 l 1,9,-1
 158 167 l 1,10,-1
 152 152 l 1,11,-1
 142 141 l 1,12,-1
 131 131 l 1,13,-1
 115 126 l 1,14,-1
 52 126 l 1,15,-1
 37 131 l 1,16,-1
 32 146 l 1,17,-1
 32 356 l 1,18,-1
 37 372 l 1,19,-1
 52 378 l 1,20,-1
 68 372 l 1,21,-1
 74 356 l 1,22,-1
 74 209 l 1,23,-1
 79 194 l 1,24,-1
 89 194 l 1,25,-1
 100 204 l 1,26,-1
 110 215 l 1,27,-1
 116 230 l 1,28,-1
 121 246 l 1,29,-1
 131 257 l 1,30,-1
 137 272 l 1,31,-1
 137 293 l 1,32,-1
 142 309 l 1,33,-1
 152 320 l 1,34,-1
 158 335 l 1,35,-1
 158 398 l 1,36,-1
 163 414 l 1,37,-1
 178 420 l 1,38,-1
 194 425 l 1,39,-1
 205 435 l 1,40,-1
 220 441 l 1,41,-1
 236 435 l 1,42,-1
 242 419 l 1,43,-1
 242 356 l 1,44,-1
 236 341 l 1,45,-1
 226 330 l 1,46,-1
 221 314 l 1,47,-1
 221 293 l 1,48,-1
 226 278 l 1,49,-1
 236 267 l 1,50,-1
 242 251 l 1,51,-1
 242 209 l 1,52,-1
 247 194 l 1,53,-1
 257 183 l 1,54,-1
 263 167 l 1,55,-1
 263 146 l 1,56,-1
 257 131 l 1,57,-1
 241 126 l 1,0,-1
EndSplineSet
Validated: 1
EndChar

StartChar: v
Encoding: 345 118 89
Width: 316
GlyphClass: 2
Flags: W
LayerCount: 2
Fore
SplineSet
268 288 m 1,0,-1
 257 278 l 1,1,-1
 247 267 l 1,2,-1
 242 251 l 1,3,-1
 236 236 l 1,4,-1
 226 225 l 1,5,-1
 221 209 l 1,6,-1
 215 194 l 1,7,-1
 205 183 l 1,8,-1
 200 167 l 1,9,-1
 200 146 l 1,10,-1
 194 131 l 1,11,-1
 178 126 l 1,12,-1
 115 126 l 1,13,-1
 100 131 l 1,14,-1
 95 146 l 1,15,-1
 95 167 l 1,16,-1
 89 183 l 1,17,-1
 79 194 l 1,18,-1
 74 209 l 1,19,-1
 74 293 l 1,20,-1
 68 309 l 1,21,-1
 58 320 l 1,22,-1
 53 335 l 1,23,-1
 53 356 l 1,24,-1
 47 372 l 1,25,-1
 37 383 l 1,26,-1
 32 398 l 1,27,-1
 32 419 l 1,28,-1
 37 435 l 1,29,-1
 52 441 l 1,30,-1
 68 435 l 1,31,-1
 79 425 l 1,32,-1
 89 414 l 1,33,-1
 95 398 l 1,34,-1
 95 377 l 1,35,-1
 100 362 l 1,36,-1
 110 351 l 1,37,-1
 116 335 l 1,38,-1
 116 272 l 1,39,-1
 121 257 l 1,40,-1
 131 246 l 1,41,-1
 137 230 l 1,42,-1
 137 209 l 1,43,-1
 142 194 l 1,44,-1
 152 194 l 1,45,-1
 158 209 l 1,46,-1
 163 225 l 1,47,-1
 173 236 l 1,48,-1
 179 251 l 1,49,-1
 179 272 l 1,50,-1
 184 288 l 1,51,-1
 194 299 l 1,52,-1
 205 309 l 1,53,-1
 215 320 l 1,54,-1
 226 330 l 1,55,-1
 236 341 l 1,56,-1
 242 356 l 1,57,-1
 247 372 l 1,58,-1
 262 378 l 1,59,-1
 278 372 l 1,60,-1
 284 356 l 1,61,-1
 284 314 l 1,62,-1
 278 299 l 1,63,-1
 268 288 l 1,0,-1
EndSplineSet
Validated: 1
EndChar

StartChar: w
Encoding: 346 119 90
Width: 568
GlyphClass: 2
Flags: W
LayerCount: 2
Fore
SplineSet
520 288 m 1,0,-1
 509 278 l 1,1,-1
 499 267 l 1,2,-1
 494 251 l 1,3,-1
 488 236 l 1,4,-1
 478 225 l 1,5,-1
 467 215 l 1,6,-1
 457 204 l 1,7,-1
 452 188 l 1,8,-1
 446 173 l 1,9,-1
 436 162 l 1,10,-1
 431 146 l 1,11,-1
 425 131 l 1,12,-1
 415 120 l 1,13,-1
 410 104 l 1,14,-1
 404 89 l 1,15,-1
 394 78 l 1,16,-1
 389 62 l 1,17,-1
 383 47 l 1,18,-1
 373 36 l 1,19,-1
 362 26 l 1,20,-1
 352 15 l 1,21,-1
 341 5 l 1,22,-1
 325 0 l 1,23,-1
 304 0 l 1,24,-1
 289 5 l 1,25,-1
 278 15 l 1,26,-1
 268 26 l 1,27,-1
 263 41 l 1,28,-1
 257 57 l 1,29,-1
 247 68 l 1,30,-1
 242 83 l 1,31,-1
 236 99 l 1,32,-1
 226 110 l 1,33,-1
 221 125 l 1,34,-1
 215 141 l 1,35,-1
 205 141 l 1,36,-1
 200 125 l 1,37,-1
 200 41 l 1,38,-1
 194 26 l 1,39,-1
 178 21 l 1,40,-1
 115 21 l 1,41,-1
 100 26 l 1,42,-1
 95 41 l 1,43,-1
 89 57 l 1,44,-1
 79 68 l 1,45,-1
 74 83 l 1,46,-1
 68 99 l 1,47,-1
 58 110 l 1,48,-1
 47 120 l 1,49,-1
 37 131 l 1,50,-1
 32 146 l 1,51,-1
 32 209 l 1,52,-1
 37 225 l 1,53,-1
 52 231 l 1,54,-1
 68 225 l 1,55,-1
 74 209 l 1,56,-1
 79 194 l 1,57,-1
 89 183 l 1,58,-1
 95 167 l 1,59,-1
 100 152 l 1,60,-1
 110 141 l 1,61,-1
 121 131 l 1,62,-1
 131 120 l 1,63,-1
 137 104 l 1,64,-1
 142 89 l 1,65,-1
 152 89 l 1,66,-1
 158 104 l 1,67,-1
 158 209 l 1,68,-1
 163 225 l 1,69,-1
 173 236 l 1,70,-1
 184 246 l 1,71,-1
 199 252 l 1,72,-1
 220 252 l 1,73,-1
 236 246 l 1,74,-1
 242 230 l 1,75,-1
 247 215 l 1,76,-1
 257 204 l 1,77,-1
 263 188 l 1,78,-1
 263 167 l 1,79,-1
 268 152 l 1,80,-1
 278 141 l 1,81,-1
 289 131 l 1,82,-1
 299 120 l 1,83,-1
 305 104 l 1,84,-1
 310 89 l 1,85,-1
 320 89 l 1,86,-1
 331 99 l 1,87,-1
 341 110 l 1,88,-1
 352 120 l 1,89,-1
 362 131 l 1,90,-1
 368 146 l 1,91,-1
 373 162 l 1,92,-1
 383 173 l 1,93,-1
 389 188 l 1,94,-1
 394 204 l 1,95,-1
 404 215 l 1,96,-1
 410 230 l 1,97,-1
 415 246 l 1,98,-1
 425 257 l 1,99,-1
 431 272 l 1,100,-1
 436 288 l 1,101,-1
 446 299 l 1,102,-1
 457 309 l 1,103,-1
 467 320 l 1,104,-1
 473 335 l 1,105,-1
 478 351 l 1,106,-1
 488 362 l 1,107,-1
 499 372 l 1,108,-1
 514 378 l 1,109,-1
 530 372 l 1,110,-1
 536 356 l 1,111,-1
 536 314 l 1,112,-1
 530 299 l 1,113,-1
 520 288 l 1,0,-1
EndSplineSet
Validated: 1
EndChar

StartChar: x
Encoding: 347 120 91
Width: 379
GlyphClass: 2
Flags: W
LayerCount: 2
Fore
SplineSet
325 21 m 1,0,-1
 304 21 l 1,1,-1
 289 26 l 1,2,-1
 278 36 l 1,3,-1
 262 42 l 1,4,-1
 247 47 l 1,5,-1
 236 57 l 1,6,-1
 226 68 l 1,7,-1
 215 78 l 1,8,-1
 205 78 l 1,9,-1
 194 68 l 1,10,-1
 184 57 l 1,11,-1
 179 41 l 1,12,-1
 173 26 l 1,13,-1
 163 15 l 1,14,-1
 152 5 l 1,15,-1
 142 -6 l 1,16,-1
 131 -16 l 1,17,-1
 115 -21 l 1,18,-1
 100 -16 l 1,19,-1
 95 -1 l 1,20,-1
 95 41 l 1,21,-1
 100 57 l 1,22,-1
 110 68 l 1,23,-1
 121 78 l 1,24,-1
 131 89 l 1,25,-1
 142 99 l 1,26,-1
 152 110 l 1,27,-1
 152 120 l 1,28,-1
 142 131 l 1,29,-1
 131 141 l 1,30,-1
 121 152 l 1,31,-1
 110 162 l 1,32,-1
 94 168 l 1,33,-1
 79 173 l 1,34,-1
 68 183 l 1,35,-1
 52 189 l 1,36,-1
 37 194 l 1,37,-1
 32 209 l 1,38,-1
 32 251 l 1,39,-1
 37 267 l 1,40,-1
 52 273 l 1,41,-1
 68 267 l 1,42,-1
 79 257 l 1,43,-1
 89 246 l 1,44,-1
 100 236 l 1,45,-1
 115 231 l 1,46,-1
 131 225 l 1,47,-1
 142 215 l 1,48,-1
 152 204 l 1,49,-1
 163 194 l 1,50,-1
 173 183 l 1,51,-1
 184 173 l 1,52,-1
 194 173 l 1,53,-1
 205 183 l 1,54,-1
 215 194 l 1,55,-1
 221 209 l 1,56,-1
 226 225 l 1,57,-1
 236 236 l 1,58,-1
 242 251 l 1,59,-1
 247 267 l 1,60,-1
 257 278 l 1,61,-1
 268 288 l 1,62,-1
 283 294 l 1,63,-1
 299 288 l 1,64,-1
 305 272 l 1,65,-1
 305 230 l 1,66,-1
 299 215 l 1,67,-1
 289 204 l 1,68,-1
 284 188 l 1,69,-1
 278 173 l 1,70,-1
 268 162 l 1,71,-1
 257 152 l 1,72,-1
 247 141 l 1,73,-1
 247 131 l 1,74,-1
 257 120 l 1,75,-1
 268 110 l 1,76,-1
 283 105 l 1,77,-1
 299 99 l 1,78,-1
 310 89 l 1,79,-1
 325 84 l 1,80,-1
 341 78 l 1,81,-1
 347 62 l 1,82,-1
 347 41 l 1,83,-1
 341 26 l 1,84,-1
 325 21 l 1,0,-1
EndSplineSet
Validated: 1
EndChar

StartChar: y
Encoding: 348 121 92
Width: 295
GlyphClass: 2
Flags: W
LayerCount: 2
Fore
SplineSet
247 246 m 1,0,-1
 242 230 l 1,1,-1
 242 146 l 1,2,-1
 236 131 l 1,3,-1
 226 120 l 1,4,-1
 221 104 l 1,5,-1
 221 83 l 1,6,-1
 215 68 l 1,7,-1
 205 57 l 1,8,-1
 200 41 l 1,9,-1
 200 20 l 1,10,-1
 194 5 l 1,11,-1
 184 -6 l 1,12,-1
 179 -22 l 1,13,-1
 179 -64 l 1,14,-1
 173 -79 l 1,15,-1
 163 -90 l 1,16,-1
 158 -106 l 1,17,-1
 152 -121 l 1,18,-1
 142 -132 l 1,19,-1
 137 -148 l 1,20,-1
 137 -169 l 1,21,-1
 131 -184 l 1,22,-1
 115 -189 l 1,23,-1
 94 -189 l 1,24,-1
 79 -184 l 1,25,-1
 74 -169 l 1,26,-1
 74 -148 l 1,27,-1
 79 -132 l 1,28,-1
 89 -121 l 1,29,-1
 95 -106 l 1,30,-1
 100 -90 l 1,31,-1
 110 -79 l 1,32,-1
 116 -64 l 1,33,-1
 121 -48 l 1,34,-1
 131 -37 l 1,35,-1
 137 -22 l 1,36,-1
 137 41 l 1,37,-1
 142 57 l 1,38,-1
 152 68 l 1,39,-1
 158 83 l 1,40,-1
 163 99 l 1,41,-1
 173 110 l 1,42,-1
 179 125 l 1,43,-1
 173 141 l 1,44,-1
 157 147 l 1,45,-1
 142 152 l 1,46,-1
 131 162 l 1,47,-1
 115 168 l 1,48,-1
 100 173 l 1,49,-1
 89 183 l 1,50,-1
 79 194 l 1,51,-1
 74 209 l 1,52,-1
 68 225 l 1,53,-1
 58 236 l 1,54,-1
 47 246 l 1,55,-1
 37 257 l 1,56,-1
 32 272 l 1,57,-1
 32 314 l 1,58,-1
 37 330 l 1,59,-1
 52 336 l 1,60,-1
 73 336 l 1,61,-1
 89 330 l 1,62,-1
 95 314 l 1,63,-1
 100 299 l 1,64,-1
 110 288 l 1,65,-1
 116 272 l 1,66,-1
 121 257 l 1,67,-1
 131 246 l 1,68,-1
 142 236 l 1,69,-1
 152 225 l 1,70,-1
 163 215 l 1,71,-1
 178 210 l 1,72,-1
 194 215 l 1,73,-1
 200 230 l 1,74,-1
 200 293 l 1,75,-1
 205 309 l 1,76,-1
 215 320 l 1,77,-1
 226 330 l 1,78,-1
 241 336 l 1,79,-1
 257 330 l 1,80,-1
 263 314 l 1,81,-1
 263 272 l 1,82,-1
 257 257 l 1,83,-1
 247 246 l 1,0,-1
EndSplineSet
Validated: 1
EndChar

StartChar: z
Encoding: 349 122 93
Width: 526
GlyphClass: 2
Flags: W
LayerCount: 2
Fore
SplineSet
472 63 m 1,0,-1
 388 63 l 1,1,-1
 373 57 l 1,2,-1
 362 47 l 1,3,-1
 346 42 l 1,4,-1
 262 42 l 1,5,-1
 247 36 l 1,6,-1
 236 26 l 1,7,-1
 220 21 l 1,8,-1
 157 21 l 1,9,-1
 142 26 l 1,10,-1
 131 36 l 1,11,-1
 115 42 l 1,12,-1
 52 42 l 1,13,-1
 37 47 l 1,14,-1
 32 62 l 1,15,-1
 32 83 l 1,16,-1
 37 99 l 1,17,-1
 47 110 l 1,18,-1
 58 120 l 1,19,-1
 68 131 l 1,20,-1
 79 141 l 1,21,-1
 89 152 l 1,22,-1
 100 162 l 1,23,-1
 110 173 l 1,24,-1
 116 188 l 1,25,-1
 121 204 l 1,26,-1
 131 215 l 1,27,-1
 137 230 l 1,28,-1
 142 246 l 1,29,-1
 152 257 l 1,30,-1
 158 272 l 1,31,-1
 152 288 l 1,32,-1
 142 288 l 1,33,-1
 131 278 l 1,34,-1
 115 273 l 1,35,-1
 100 278 l 1,36,-1
 95 293 l 1,37,-1
 95 314 l 1,38,-1
 100 330 l 1,39,-1
 110 341 l 1,40,-1
 121 351 l 1,41,-1
 136 357 l 1,42,-1
 152 362 l 1,43,-1
 163 372 l 1,44,-1
 178 378 l 1,45,-1
 194 383 l 1,46,-1
 205 393 l 1,47,-1
 220 399 l 1,48,-1
 236 404 l 1,49,-1
 247 414 l 1,50,-1
 262 420 l 1,51,-1
 283 420 l 1,52,-1
 299 414 l 1,53,-1
 305 398 l 1,54,-1
 305 335 l 1,55,-1
 299 320 l 1,56,-1
 289 309 l 1,57,-1
 278 299 l 1,58,-1
 268 288 l 1,59,-1
 257 278 l 1,60,-1
 247 267 l 1,61,-1
 236 257 l 1,62,-1
 226 246 l 1,63,-1
 215 236 l 1,64,-1
 205 225 l 1,65,-1
 194 215 l 1,66,-1
 184 204 l 1,67,-1
 179 188 l 1,68,-1
 179 167 l 1,69,-1
 173 152 l 1,70,-1
 163 141 l 1,71,-1
 152 131 l 1,72,-1
 142 120 l 1,73,-1
 142 110 l 1,74,-1
 152 99 l 1,75,-1
 163 89 l 1,76,-1
 178 84 l 1,77,-1
 199 84 l 1,78,-1
 215 89 l 1,79,-1
 226 99 l 1,80,-1
 241 105 l 1,81,-1
 304 105 l 1,82,-1
 320 110 l 1,83,-1
 331 120 l 1,84,-1
 346 126 l 1,85,-1
 472 126 l 1,86,-1
 488 120 l 1,87,-1
 494 104 l 1,88,-1
 494 83 l 1,89,-1
 488 68 l 1,90,-1
 472 63 l 1,0,-1
EndSplineSet
Validated: 1
EndChar

StartChar: braceleft
Encoding: 350 123 94
Width: 400
GlyphClass: 2
Flags: W
LayerCount: 2
Fore
SplineSet
346 588 m 1,0,-1
 325 588 l 1,1,-1
 310 593 l 1,2,-1
 299 603 l 1,3,-1
 283 609 l 1,4,-1
 262 609 l 1,5,-1
 247 614 l 1,6,-1
 236 624 l 1,7,-1
 226 624 l 1,8,-1
 215 614 l 1,9,-1
 205 603 l 1,10,-1
 200 587 l 1,11,-1
 200 398 l 1,12,-1
 194 383 l 1,13,-1
 184 372 l 1,14,-1
 179 356 l 1,15,-1
 179 314 l 1,16,-1
 184 299 l 1,17,-1
 194 288 l 1,18,-1
 200 272 l 1,19,-1
 200 209 l 1,20,-1
 205 194 l 1,21,-1
 215 183 l 1,22,-1
 221 167 l 1,23,-1
 226 152 l 1,24,-1
 236 141 l 1,25,-1
 247 131 l 1,26,-1
 257 120 l 1,27,-1
 268 110 l 1,28,-1
 278 99 l 1,29,-1
 289 89 l 1,30,-1
 304 84 l 1,31,-1
 320 78 l 1,32,-1
 326 62 l 1,33,-1
 326 41 l 1,34,-1
 320 26 l 1,35,-1
 304 21 l 1,36,-1
 283 21 l 1,37,-1
 268 26 l 1,38,-1
 257 36 l 1,39,-1
 241 42 l 1,40,-1
 226 47 l 1,41,-1
 221 62 l 1,42,-1
 215 78 l 1,43,-1
 205 89 l 1,44,-1
 194 99 l 1,45,-1
 184 110 l 1,46,-1
 179 125 l 1,47,-1
 173 141 l 1,48,-1
 163 152 l 1,49,-1
 158 167 l 1,50,-1
 158 230 l 1,51,-1
 152 246 l 1,52,-1
 142 257 l 1,53,-1
 131 267 l 1,54,-1
 115 273 l 1,55,-1
 52 273 l 1,56,-1
 37 278 l 1,57,-1
 32 293 l 1,58,-1
 32 314 l 1,59,-1
 37 330 l 1,60,-1
 47 341 l 1,61,-1
 58 351 l 1,62,-1
 73 357 l 1,63,-1
 94 357 l 1,64,-1
 110 362 l 1,65,-1
 116 377 l 1,66,-1
 121 393 l 1,67,-1
 131 404 l 1,68,-1
 137 419 l 1,69,-1
 142 435 l 1,70,-1
 152 446 l 1,71,-1
 158 461 l 1,72,-1
 158 650 l 1,73,-1
 163 666 l 1,74,-1
 173 677 l 1,75,-1
 184 687 l 1,76,-1
 199 693 l 1,77,-1
 262 693 l 1,78,-1
 278 687 l 1,79,-1
 289 677 l 1,80,-1
 304 672 l 1,81,-1
 325 672 l 1,82,-1
 341 666 l 1,83,-1
 352 656 l 1,84,-1
 362 645 l 1,85,-1
 368 629 l 1,86,-1
 368 608 l 1,87,-1
 362 593 l 1,88,-1
 346 588 l 1,0,-1
EndSplineSet
Validated: 1
EndChar

StartChar: bar
Encoding: 351 124 95
Width: 148
GlyphClass: 2
Flags: W
LayerCount: 2
Fore
SplineSet
94 0 m 1,0,-1
 73 0 l 1,1,-1
 58 5 l 1,2,-1
 53 20 l 1,3,-1
 53 188 l 1,4,-1
 47 204 l 1,5,-1
 37 215 l 1,6,-1
 32 230 l 1,7,-1
 32 566 l 1,8,-1
 37 582 l 1,9,-1
 52 588 l 1,10,-1
 68 582 l 1,11,-1
 74 566 l 1,12,-1
 74 272 l 1,13,-1
 79 257 l 1,14,-1
 89 246 l 1,15,-1
 95 230 l 1,16,-1
 95 83 l 1,17,-1
 100 68 l 1,18,-1
 110 57 l 1,19,-1
 116 41 l 1,20,-1
 116 20 l 1,21,-1
 110 5 l 1,22,-1
 94 0 l 1,0,-1
EndSplineSet
Validated: 1
EndChar

StartChar: braceright
Encoding: 352 125 96
Width: 379
GlyphClass: 2
Flags: W
LayerCount: 2
Fore
SplineSet
331 330 m 1,0,-1
 320 320 l 1,1,-1
 304 315 l 1,2,-1
 289 309 l 1,3,-1
 278 299 l 1,4,-1
 268 288 l 1,5,-1
 257 278 l 1,6,-1
 247 267 l 1,7,-1
 236 257 l 1,8,-1
 226 246 l 1,9,-1
 221 230 l 1,10,-1
 215 215 l 1,11,-1
 205 204 l 1,12,-1
 200 188 l 1,13,-1
 200 20 l 1,14,-1
 194 5 l 1,15,-1
 184 -6 l 1,16,-1
 173 -16 l 1,17,-1
 163 -27 l 1,18,-1
 152 -37 l 1,19,-1
 142 -48 l 1,20,-1
 131 -58 l 1,21,-1
 121 -69 l 1,22,-1
 110 -79 l 1,23,-1
 94 -84 l 1,24,-1
 79 -79 l 1,25,-1
 74 -64 l 1,26,-1
 74 -43 l 1,27,-1
 79 -27 l 1,28,-1
 89 -16 l 1,29,-1
 100 -6 l 1,30,-1
 110 5 l 1,31,-1
 121 15 l 1,32,-1
 131 26 l 1,33,-1
 142 36 l 1,34,-1
 152 47 l 1,35,-1
 158 62 l 1,36,-1
 158 230 l 1,37,-1
 163 246 l 1,38,-1
 173 257 l 1,39,-1
 179 272 l 1,40,-1
 179 293 l 1,41,-1
 184 309 l 1,42,-1
 194 320 l 1,43,-1
 205 330 l 1,44,-1
 215 341 l 1,45,-1
 221 356 l 1,46,-1
 215 372 l 1,47,-1
 199 378 l 1,48,-1
 184 383 l 1,49,-1
 179 398 l 1,50,-1
 179 440 l 1,51,-1
 173 456 l 1,52,-1
 163 467 l 1,53,-1
 158 482 l 1,54,-1
 152 498 l 1,55,-1
 142 509 l 1,56,-1
 131 519 l 1,57,-1
 115 525 l 1,58,-1
 52 525 l 1,59,-1
 37 530 l 1,60,-1
 32 545 l 1,61,-1
 32 566 l 1,62,-1
 37 582 l 1,63,-1
 52 588 l 1,64,-1
 157 588 l 1,65,-1
 173 582 l 1,66,-1
 184 572 l 1,67,-1
 194 561 l 1,68,-1
 200 545 l 1,69,-1
 205 530 l 1,70,-1
 215 519 l 1,71,-1
 221 503 l 1,72,-1
 221 461 l 1,73,-1
 226 446 l 1,74,-1
 236 435 l 1,75,-1
 247 425 l 1,76,-1
 262 420 l 1,77,-1
 304 420 l 1,78,-1
 320 414 l 1,79,-1
 331 404 l 1,80,-1
 341 393 l 1,81,-1
 347 377 l 1,82,-1
 347 356 l 1,83,-1
 341 341 l 1,84,-1
 331 330 l 1,0,-1
EndSplineSet
Validated: 1
EndChar

StartChar: asciitilde
Encoding: 353 126 97
Width: 484
GlyphClass: 2
Flags: W
LayerCount: 2
Fore
SplineSet
436 330 m 1,0,-1
 431 314 l 1,1,-1
 431 230 l 1,2,-1
 425 215 l 1,3,-1
 409 210 l 1,4,-1
 241 210 l 1,5,-1
 226 215 l 1,6,-1
 215 225 l 1,7,-1
 199 231 l 1,8,-1
 184 236 l 1,9,-1
 179 251 l 1,10,-1
 173 267 l 1,11,-1
 163 278 l 1,12,-1
 152 288 l 1,13,-1
 136 294 l 1,14,-1
 121 288 l 1,15,-1
 110 278 l 1,16,-1
 100 267 l 1,17,-1
 95 251 l 1,18,-1
 95 230 l 1,19,-1
 89 215 l 1,20,-1
 79 204 l 1,21,-1
 68 194 l 1,22,-1
 52 189 l 1,23,-1
 37 194 l 1,24,-1
 32 209 l 1,25,-1
 32 251 l 1,26,-1
 37 267 l 1,27,-1
 47 278 l 1,28,-1
 53 293 l 1,29,-1
 58 309 l 1,30,-1
 68 320 l 1,31,-1
 74 335 l 1,32,-1
 79 351 l 1,33,-1
 89 362 l 1,34,-1
 100 372 l 1,35,-1
 115 378 l 1,36,-1
 157 378 l 1,37,-1
 173 372 l 1,38,-1
 179 356 l 1,39,-1
 184 341 l 1,40,-1
 194 330 l 1,41,-1
 205 320 l 1,42,-1
 215 309 l 1,43,-1
 226 299 l 1,44,-1
 236 288 l 1,45,-1
 247 278 l 1,46,-1
 262 273 l 1,47,-1
 346 273 l 1,48,-1
 362 278 l 1,49,-1
 368 293 l 1,50,-1
 373 309 l 1,51,-1
 383 320 l 1,52,-1
 389 335 l 1,53,-1
 389 356 l 1,54,-1
 394 372 l 1,55,-1
 404 383 l 1,56,-1
 415 393 l 1,57,-1
 430 399 l 1,58,-1
 446 393 l 1,59,-1
 452 377 l 1,60,-1
 452 356 l 1,61,-1
 446 341 l 1,62,-1
 436 330 l 1,0,-1
EndSplineSet
Validated: 1
EndChar

StartChar: cent
Encoding: 354 162 98
Width: 442
GlyphClass: 2
Flags: W
LayerCount: 2
Fore
SplineSet
388 168 m 1,0,-1
 304 168 l 1,1,-1
 289 162 l 1,2,-1
 284 146 l 1,3,-1
 289 131 l 1,4,-1
 299 120 l 1,5,-1
 305 104 l 1,6,-1
 305 62 l 1,7,-1
 299 47 l 1,8,-1
 283 42 l 1,9,-1
 268 47 l 1,10,-1
 263 62 l 1,11,-1
 257 78 l 1,12,-1
 247 89 l 1,13,-1
 242 104 l 1,14,-1
 242 146 l 1,15,-1
 236 162 l 1,16,-1
 220 168 l 1,17,-1
 199 168 l 1,18,-1
 184 173 l 1,19,-1
 173 183 l 1,20,-1
 157 189 l 1,21,-1
 136 189 l 1,22,-1
 121 194 l 1,23,-1
 110 204 l 1,24,-1
 94 210 l 1,25,-1
 79 215 l 1,26,-1
 68 225 l 1,27,-1
 52 231 l 1,28,-1
 37 236 l 1,29,-1
 32 251 l 1,30,-1
 32 335 l 1,31,-1
 37 351 l 1,32,-1
 52 357 l 1,33,-1
 68 362 l 1,34,-1
 79 372 l 1,35,-1
 89 383 l 1,36,-1
 100 393 l 1,37,-1
 115 399 l 1,38,-1
 131 404 l 1,39,-1
 142 414 l 1,40,-1
 157 420 l 1,41,-1
 178 420 l 1,42,-1
 194 425 l 1,43,-1
 200 440 l 1,44,-1
 200 461 l 1,45,-1
 194 477 l 1,46,-1
 184 488 l 1,47,-1
 179 503 l 1,48,-1
 173 519 l 1,49,-1
 163 530 l 1,50,-1
 158 545 l 1,51,-1
 158 650 l 1,52,-1
 163 666 l 1,53,-1
 173 677 l 1,54,-1
 184 687 l 1,55,-1
 199 693 l 1,56,-1
 215 687 l 1,57,-1
 221 671 l 1,58,-1
 221 650 l 1,59,-1
 215 635 l 1,60,-1
 205 624 l 1,61,-1
 200 608 l 1,62,-1
 200 587 l 1,63,-1
 205 572 l 1,64,-1
 215 561 l 1,65,-1
 221 545 l 1,66,-1
 226 530 l 1,67,-1
 236 519 l 1,68,-1
 242 503 l 1,69,-1
 242 440 l 1,70,-1
 247 425 l 1,71,-1
 262 420 l 1,72,-1
 304 420 l 1,73,-1
 320 414 l 1,74,-1
 326 398 l 1,75,-1
 326 377 l 1,76,-1
 320 362 l 1,77,-1
 304 357 l 1,78,-1
 283 357 l 1,79,-1
 268 351 l 1,80,-1
 263 335 l 1,81,-1
 268 320 l 1,82,-1
 278 309 l 1,83,-1
 284 293 l 1,84,-1
 284 251 l 1,85,-1
 289 236 l 1,86,-1
 304 231 l 1,87,-1
 388 231 l 1,88,-1
 404 225 l 1,89,-1
 410 209 l 1,90,-1
 410 188 l 1,91,-1
 404 173 l 1,92,-1
 388 168 l 1,0,-1
242 251 m 1,93,-1
 236 267 l 1,94,-1
 226 278 l 1,95,-1
 221 293 l 1,96,-1
 221 335 l 1,97,-1
 215 351 l 1,98,-1
 199 357 l 1,99,-1
 178 357 l 1,100,-1
 163 351 l 1,101,-1
 152 341 l 1,102,-1
 136 336 l 1,103,-1
 121 330 l 1,104,-1
 110 320 l 1,105,-1
 100 309 l 1,106,-1
 100 299 l 1,107,-1
 110 288 l 1,108,-1
 121 278 l 1,109,-1
 136 273 l 1,110,-1
 152 267 l 1,111,-1
 163 257 l 1,112,-1
 178 252 l 1,113,-1
 199 252 l 1,114,-1
 215 246 l 1,115,-1
 226 236 l 1,116,-1
 236 236 l 1,117,-1
 242 251 l 1,93,-1
EndSplineSet
Validated: 1
EndChar

StartChar: sterling
Encoding: 355 163 99
Width: 610
GlyphClass: 2
Flags: W
LayerCount: 2
Fore
SplineSet
556 84 m 1,0,-1
 514 84 l 1,1,-1
 499 78 l 1,2,-1
 488 68 l 1,3,-1
 472 63 l 1,4,-1
 451 63 l 1,5,-1
 436 68 l 1,6,-1
 425 78 l 1,7,-1
 409 84 l 1,8,-1
 367 84 l 1,9,-1
 352 89 l 1,10,-1
 341 99 l 1,11,-1
 331 110 l 1,12,-1
 320 120 l 1,13,-1
 310 131 l 1,14,-1
 299 141 l 1,15,-1
 283 147 l 1,16,-1
 268 152 l 1,17,-1
 257 162 l 1,18,-1
 247 173 l 1,19,-1
 236 183 l 1,20,-1
 226 194 l 1,21,-1
 215 204 l 1,22,-1
 205 215 l 1,23,-1
 194 225 l 1,24,-1
 178 231 l 1,25,-1
 163 225 l 1,26,-1
 158 209 l 1,27,-1
 152 194 l 1,28,-1
 142 183 l 1,29,-1
 131 173 l 1,30,-1
 115 168 l 1,31,-1
 100 173 l 1,32,-1
 95 188 l 1,33,-1
 89 204 l 1,34,-1
 79 215 l 1,35,-1
 74 230 l 1,36,-1
 74 272 l 1,37,-1
 68 288 l 1,38,-1
 58 299 l 1,39,-1
 47 309 l 1,40,-1
 37 320 l 1,41,-1
 32 335 l 1,42,-1
 32 356 l 1,43,-1
 37 372 l 1,44,-1
 52 378 l 1,45,-1
 68 383 l 1,46,-1
 79 393 l 1,47,-1
 94 399 l 1,48,-1
 136 399 l 1,49,-1
 152 404 l 1,50,-1
 158 419 l 1,51,-1
 158 587 l 1,52,-1
 163 603 l 1,53,-1
 178 609 l 1,54,-1
 194 614 l 1,55,-1
 205 624 l 1,56,-1
 220 630 l 1,57,-1
 325 630 l 1,58,-1
 341 624 l 1,59,-1
 347 608 l 1,60,-1
 347 545 l 1,61,-1
 341 530 l 1,62,-1
 325 525 l 1,63,-1
 310 530 l 1,64,-1
 305 545 l 1,65,-1
 299 561 l 1,66,-1
 283 567 l 1,67,-1
 241 567 l 1,68,-1
 226 561 l 1,69,-1
 215 551 l 1,70,-1
 205 540 l 1,71,-1
 200 524 l 1,72,-1
 200 419 l 1,73,-1
 205 404 l 1,74,-1
 215 404 l 1,75,-1
 226 414 l 1,76,-1
 241 420 l 1,77,-1
 304 420 l 1,78,-1
 320 414 l 1,79,-1
 326 398 l 1,80,-1
 326 377 l 1,81,-1
 320 362 l 1,82,-1
 304 357 l 1,83,-1
 262 357 l 1,84,-1
 247 351 l 1,85,-1
 236 341 l 1,86,-1
 226 330 l 1,87,-1
 221 314 l 1,88,-1
 226 299 l 1,89,-1
 236 288 l 1,90,-1
 242 272 l 1,91,-1
 247 257 l 1,92,-1
 257 246 l 1,93,-1
 268 236 l 1,94,-1
 283 231 l 1,95,-1
 299 225 l 1,96,-1
 310 215 l 1,97,-1
 320 204 l 1,98,-1
 331 194 l 1,99,-1
 341 183 l 1,100,-1
 352 173 l 1,101,-1
 367 168 l 1,102,-1
 383 162 l 1,103,-1
 394 152 l 1,104,-1
 409 147 l 1,105,-1
 430 147 l 1,106,-1
 446 141 l 1,107,-1
 457 131 l 1,108,-1
 467 131 l 1,109,-1
 478 141 l 1,110,-1
 493 147 l 1,111,-1
 556 147 l 1,112,-1
 572 141 l 1,113,-1
 578 125 l 1,114,-1
 578 104 l 1,115,-1
 572 89 l 1,116,-1
 556 84 l 1,0,-1
152 330 m 1,117,-1
 136 336 l 1,118,-1
 115 336 l 1,119,-1
 100 330 l 1,120,-1
 95 314 l 1,121,-1
 100 299 l 1,122,-1
 110 288 l 1,123,-1
 121 278 l 1,124,-1
 131 278 l 1,125,-1
 137 293 l 1,126,-1
 142 309 l 1,127,-1
 152 320 l 1,128,-1
 152 330 l 1,117,-1
EndSplineSet
Validated: 1
EndChar

StartChar: logicalnot
Encoding: 356 172 100
Width: 421
GlyphClass: 2
Flags: W
LayerCount: 2
Fore
SplineSet
367 357 m 1,0,-1
 352 362 l 1,1,-1
 347 377 l 1,2,-1
 347 482 l 1,3,-1
 341 498 l 1,4,-1
 325 504 l 1,5,-1
 304 504 l 1,6,-1
 289 509 l 1,7,-1
 278 519 l 1,8,-1
 262 525 l 1,9,-1
 220 525 l 1,10,-1
 205 530 l 1,11,-1
 194 540 l 1,12,-1
 178 546 l 1,13,-1
 94 546 l 1,14,-1
 79 551 l 1,15,-1
 68 561 l 1,16,-1
 52 567 l 1,17,-1
 37 572 l 1,18,-1
 32 587 l 1,19,-1
 32 608 l 1,20,-1
 37 624 l 1,21,-1
 52 630 l 1,22,-1
 73 630 l 1,23,-1
 89 624 l 1,24,-1
 100 614 l 1,25,-1
 115 609 l 1,26,-1
 199 609 l 1,27,-1
 215 603 l 1,28,-1
 226 593 l 1,29,-1
 241 588 l 1,30,-1
 304 588 l 1,31,-1
 320 582 l 1,32,-1
 331 572 l 1,33,-1
 346 567 l 1,34,-1
 367 567 l 1,35,-1
 383 561 l 1,36,-1
 389 545 l 1,37,-1
 389 377 l 1,38,-1
 383 362 l 1,39,-1
 367 357 l 1,0,-1
EndSplineSet
Validated: 1
EndChar

StartChar: plusminus
Encoding: 357 177 101
Width: 316
GlyphClass: 2
Flags: W
LayerCount: 2
Fore
SplineSet
262 399 m 1,0,-1
 241 399 l 1,1,-1
 226 404 l 1,2,-1
 215 414 l 1,3,-1
 199 420 l 1,4,-1
 184 414 l 1,5,-1
 179 398 l 1,6,-1
 179 272 l 1,7,-1
 184 257 l 1,8,-1
 199 252 l 1,9,-1
 215 246 l 1,10,-1
 226 236 l 1,11,-1
 241 231 l 1,12,-1
 257 225 l 1,13,-1
 263 209 l 1,14,-1
 263 188 l 1,15,-1
 257 173 l 1,16,-1
 241 168 l 1,17,-1
 220 168 l 1,18,-1
 205 173 l 1,19,-1
 194 183 l 1,20,-1
 178 189 l 1,21,-1
 157 189 l 1,22,-1
 142 194 l 1,23,-1
 131 204 l 1,24,-1
 115 210 l 1,25,-1
 52 210 l 1,26,-1
 37 215 l 1,27,-1
 32 230 l 1,28,-1
 32 272 l 1,29,-1
 37 288 l 1,30,-1
 52 294 l 1,31,-1
 68 288 l 1,32,-1
 79 278 l 1,33,-1
 94 273 l 1,34,-1
 115 273 l 1,35,-1
 131 278 l 1,36,-1
 137 293 l 1,37,-1
 137 398 l 1,38,-1
 131 414 l 1,39,-1
 115 420 l 1,40,-1
 100 425 l 1,41,-1
 89 435 l 1,42,-1
 73 441 l 1,43,-1
 52 441 l 1,44,-1
 37 446 l 1,45,-1
 32 461 l 1,46,-1
 32 482 l 1,47,-1
 37 498 l 1,48,-1
 52 504 l 1,49,-1
 94 504 l 1,50,-1
 110 509 l 1,51,-1
 116 524 l 1,52,-1
 121 540 l 1,53,-1
 131 551 l 1,54,-1
 142 561 l 1,55,-1
 157 567 l 1,56,-1
 173 561 l 1,57,-1
 179 545 l 1,58,-1
 179 524 l 1,59,-1
 173 509 l 1,60,-1
 163 498 l 1,61,-1
 163 488 l 1,62,-1
 178 483 l 1,63,-1
 241 483 l 1,64,-1
 257 477 l 1,65,-1
 268 467 l 1,66,-1
 278 456 l 1,67,-1
 284 440 l 1,68,-1
 284 419 l 1,69,-1
 278 404 l 1,70,-1
 262 399 l 1,0,-1
EndSplineSet
Validated: 1
EndChar

StartChar: endash
Encoding: 358 8211 102
Width: 316
GlyphClass: 2
Flags: W
LayerCount: 2
Fore
SplineSet
262 231 m 1,0,-1
 241 231 l 1,1,-1
 226 225 l 1,2,-1
 215 215 l 1,3,-1
 199 210 l 1,4,-1
 157 210 l 1,5,-1
 142 204 l 1,6,-1
 131 194 l 1,7,-1
 115 189 l 1,8,-1
 94 189 l 1,9,-1
 79 183 l 1,10,-1
 68 173 l 1,11,-1
 52 168 l 1,12,-1
 37 173 l 1,13,-1
 32 188 l 1,14,-1
 32 230 l 1,15,-1
 37 246 l 1,16,-1
 52 252 l 1,17,-1
 73 252 l 1,18,-1
 89 257 l 1,19,-1
 100 267 l 1,20,-1
 115 273 l 1,21,-1
 157 273 l 1,22,-1
 173 278 l 1,23,-1
 184 288 l 1,24,-1
 199 294 l 1,25,-1
 262 294 l 1,26,-1
 278 288 l 1,27,-1
 284 272 l 1,28,-1
 284 251 l 1,29,-1
 278 236 l 1,30,-1
 262 231 l 1,0,-1
EndSplineSet
Validated: 1
EndChar

StartChar: quoteleft
Encoding: 359 8216 103
Width: 106
GlyphClass: 2
Flags: W
LayerCount: 2
Fore
SplineSet
52 504 m 1,0,-1
 37 509 l 1,1,-1
 32 524 l 1,2,-1
 32 629 l 1,3,-1
 37 645 l 1,4,-1
 52 651 l 1,5,-1
 68 645 l 1,6,-1
 74 629 l 1,7,-1
 74 524 l 1,8,-1
 68 509 l 1,9,-1
 52 504 l 1,0,-1
EndSplineSet
Validated: 1
EndChar

StartChar: quoteright
Encoding: 360 8217 104
Width: 106
GlyphClass: 2
Flags: W
LayerCount: 2
Fore
SplineSet
52 504 m 1,0,-1
 37 509 l 1,1,-1
 32 524 l 1,2,-1
 32 629 l 1,3,-1
 37 645 l 1,4,-1
 52 651 l 1,5,-1
 68 645 l 1,6,-1
 74 629 l 1,7,-1
 74 524 l 1,8,-1
 68 509 l 1,9,-1
 52 504 l 1,0,-1
EndSplineSet
Validated: 1
EndChar

StartChar: quotedblleft
Encoding: 361 8220 105
Width: 211
GlyphClass: 2
Flags: W
LayerCount: 2
Fore
SplineSet
163 456 m 1,0,-1
 152 446 l 1,1,-1
 136 441 l 1,2,-1
 121 446 l 1,3,-1
 116 461 l 1,4,-1
 116 482 l 1,5,-1
 121 498 l 1,6,-1
 131 509 l 1,7,-1
 137 524 l 1,8,-1
 142 540 l 1,9,-1
 157 546 l 1,10,-1
 173 540 l 1,11,-1
 179 524 l 1,12,-1
 179 482 l 1,13,-1
 173 467 l 1,14,-1
 163 456 l 1,0,-1
79 498 m 1,15,-1
 74 482 l 1,16,-1
 68 467 l 1,17,-1
 52 462 l 1,18,-1
 37 467 l 1,19,-1
 32 482 l 1,20,-1
 32 545 l 1,21,-1
 37 561 l 1,22,-1
 47 572 l 1,23,-1
 53 587 l 1,24,-1
 58 603 l 1,25,-1
 73 609 l 1,26,-1
 89 603 l 1,27,-1
 95 587 l 1,28,-1
 95 524 l 1,29,-1
 89 509 l 1,30,-1
 79 498 l 1,15,-1
EndSplineSet
Validated: 1
EndChar

StartChar: quotedblright
Encoding: 362 8221 106
Width: 211
GlyphClass: 2
Flags: W
LayerCount: 2
Fore
SplineSet
163 456 m 1,0,-1
 152 446 l 1,1,-1
 136 441 l 1,2,-1
 121 446 l 1,3,-1
 116 461 l 1,4,-1
 116 482 l 1,5,-1
 121 498 l 1,6,-1
 131 509 l 1,7,-1
 137 524 l 1,8,-1
 142 540 l 1,9,-1
 157 546 l 1,10,-1
 173 540 l 1,11,-1
 179 524 l 1,12,-1
 179 482 l 1,13,-1
 173 467 l 1,14,-1
 163 456 l 1,0,-1
79 498 m 1,15,-1
 74 482 l 1,16,-1
 68 467 l 1,17,-1
 52 462 l 1,18,-1
 37 467 l 1,19,-1
 32 482 l 1,20,-1
 32 545 l 1,21,-1
 37 561 l 1,22,-1
 47 572 l 1,23,-1
 53 587 l 1,24,-1
 58 603 l 1,25,-1
 73 609 l 1,26,-1
 89 603 l 1,27,-1
 95 587 l 1,28,-1
 95 524 l 1,29,-1
 89 509 l 1,30,-1
 79 498 l 1,15,-1
EndSplineSet
Validated: 1
EndChar

StartChar: currency
Encoding: 363 8364 107
Width: 568
GlyphClass: 2
Flags: W
LayerCount: 2
Fore
SplineSet
514 84 m 1,0,-1
 493 84 l 1,1,-1
 478 78 l 1,2,-1
 467 68 l 1,3,-1
 451 63 l 1,4,-1
 367 63 l 1,5,-1
 352 57 l 1,6,-1
 352 47 l 1,7,-1
 362 36 l 1,8,-1
 368 20 l 1,9,-1
 368 -1 l 1,10,-1
 362 -16 l 1,11,-1
 346 -21 l 1,12,-1
 331 -16 l 1,13,-1
 320 -6 l 1,14,-1
 310 5 l 1,15,-1
 305 20 l 1,16,-1
 305 41 l 1,17,-1
 299 57 l 1,18,-1
 289 68 l 1,19,-1
 278 78 l 1,20,-1
 262 84 l 1,21,-1
 247 89 l 1,22,-1
 236 99 l 1,23,-1
 226 99 l 1,24,-1
 226 89 l 1,25,-1
 236 78 l 1,26,-1
 242 62 l 1,27,-1
 242 -22 l 1,28,-1
 236 -37 l 1,29,-1
 220 -42 l 1,30,-1
 205 -37 l 1,31,-1
 200 -22 l 1,32,-1
 200 20 l 1,33,-1
 194 36 l 1,34,-1
 184 47 l 1,35,-1
 179 62 l 1,36,-1
 179 125 l 1,37,-1
 173 141 l 1,38,-1
 163 152 l 1,39,-1
 152 162 l 1,40,-1
 142 173 l 1,41,-1
 131 183 l 1,42,-1
 121 194 l 1,43,-1
 110 204 l 1,44,-1
 100 215 l 1,45,-1
 95 230 l 1,46,-1
 95 251 l 1,47,-1
 89 267 l 1,48,-1
 79 278 l 1,49,-1
 68 288 l 1,50,-1
 58 299 l 1,51,-1
 53 314 l 1,52,-1
 53 335 l 1,53,-1
 47 351 l 1,54,-1
 37 362 l 1,55,-1
 32 377 l 1,56,-1
 32 482 l 1,57,-1
 37 498 l 1,58,-1
 47 509 l 1,59,-1
 53 524 l 1,60,-1
 53 545 l 1,61,-1
 58 561 l 1,62,-1
 73 567 l 1,63,-1
 89 572 l 1,64,-1
 100 582 l 1,65,-1
 115 588 l 1,66,-1
 131 593 l 1,67,-1
 137 608 l 1,68,-1
 137 692 l 1,69,-1
 142 708 l 1,70,-1
 157 714 l 1,71,-1
 199 714 l 1,72,-1
 215 708 l 1,73,-1
 221 692 l 1,74,-1
 221 671 l 1,75,-1
 226 656 l 1,76,-1
 241 651 l 1,77,-1
 257 645 l 1,78,-1
 263 629 l 1,79,-1
 263 608 l 1,80,-1
 268 593 l 1,81,-1
 283 588 l 1,82,-1
 304 588 l 1,83,-1
 320 582 l 1,84,-1
 331 572 l 1,85,-1
 346 567 l 1,86,-1
 362 561 l 1,87,-1
 368 545 l 1,88,-1
 368 503 l 1,89,-1
 362 488 l 1,90,-1
 346 483 l 1,91,-1
 331 488 l 1,92,-1
 320 498 l 1,93,-1
 304 504 l 1,94,-1
 289 509 l 1,95,-1
 278 519 l 1,96,-1
 268 519 l 1,97,-1
 268 509 l 1,98,-1
 278 498 l 1,99,-1
 284 482 l 1,100,-1
 284 440 l 1,101,-1
 289 425 l 1,102,-1
 299 414 l 1,103,-1
 305 398 l 1,104,-1
 305 314 l 1,105,-1
 310 299 l 1,106,-1
 320 288 l 1,107,-1
 326 272 l 1,108,-1
 326 188 l 1,109,-1
 331 173 l 1,110,-1
 341 162 l 1,111,-1
 347 146 l 1,112,-1
 352 131 l 1,113,-1
 367 126 l 1,114,-1
 430 126 l 1,115,-1
 446 131 l 1,116,-1
 457 141 l 1,117,-1
 472 147 l 1,118,-1
 488 152 l 1,119,-1
 499 162 l 1,120,-1
 514 168 l 1,121,-1
 530 162 l 1,122,-1
 536 146 l 1,123,-1
 536 104 l 1,124,-1
 530 89 l 1,125,-1
 514 84 l 1,0,-1
284 167 m 1,126,-1
 284 230 l 1,127,-1
 278 246 l 1,128,-1
 268 257 l 1,129,-1
 263 272 l 1,130,-1
 263 356 l 1,131,-1
 257 372 l 1,132,-1
 247 383 l 1,133,-1
 242 398 l 1,134,-1
 242 440 l 1,135,-1
 236 456 l 1,136,-1
 226 467 l 1,137,-1
 221 482 l 1,138,-1
 221 503 l 1,139,-1
 215 519 l 1,140,-1
 205 519 l 1,141,-1
 200 503 l 1,142,-1
 200 398 l 1,143,-1
 205 383 l 1,144,-1
 215 372 l 1,145,-1
 221 356 l 1,146,-1
 221 188 l 1,147,-1
 226 173 l 1,148,-1
 241 168 l 1,149,-1
 257 162 l 1,150,-1
 268 152 l 1,151,-1
 278 152 l 1,152,-1
 284 167 l 1,126,-1
221 608 m 1,153,-1
 221 629 l 1,154,-1
 215 645 l 1,155,-1
 199 651 l 1,156,-1
 184 645 l 1,157,-1
 179 629 l 1,158,-1
 184 614 l 1,159,-1
 194 603 l 1,160,-1
 205 593 l 1,161,-1
 215 593 l 1,162,-1
 221 608 l 1,153,-1
179 251 m 1,163,-1
 179 314 l 1,164,-1
 173 330 l 1,165,-1
 163 341 l 1,166,-1
 158 356 l 1,167,-1
 158 503 l 1,168,-1
 152 519 l 1,169,-1
 136 525 l 1,170,-1
 121 519 l 1,171,-1
 110 509 l 1,172,-1
 100 498 l 1,173,-1
 95 482 l 1,174,-1
 89 467 l 1,175,-1
 79 456 l 1,176,-1
 74 440 l 1,177,-1
 74 419 l 1,178,-1
 79 404 l 1,179,-1
 89 393 l 1,180,-1
 95 377 l 1,181,-1
 100 362 l 1,182,-1
 110 351 l 1,183,-1
 116 335 l 1,184,-1
 121 320 l 1,185,-1
 131 309 l 1,186,-1
 137 293 l 1,187,-1
 137 272 l 1,188,-1
 142 257 l 1,189,-1
 152 246 l 1,190,-1
 163 236 l 1,191,-1
 173 236 l 1,192,-1
 179 251 l 1,163,-1
EndSplineSet
Validated: 1
EndChar

StartChar: uni0627
Encoding: 364 1575 108
Width: 220
Flags: W
LayerCount: 2
Fore
SplineSet
126 581 m 1,0,-1
 136 503 l 1,1,-1
 139 436 l 1,2,-1
 143 377 l 1,3,-1
 148 362 l 1,4,-1
 158 351 l 1,5,-1
 164 335 l 1,6,-1
 164 104 l 1,7,-1
 169 89 l 1,8,-1
 169 31 l 1,9,-1
 163 16 l 1,10,-1
 147 11 l 1,11,-1
 127 23 l 1,12,-1
 118 39 l 1,13,-1
 116 61 l 1,14,-1
 122 104 l 1,15,-1
 122 293 l 1,16,-1
 116 309 l 1,17,-1
 106 320 l 1,18,-1
 101 335 l 1,19,-1
 95 448 l 1,20,-1
 95 477 l 1,21,-1
 85 488 l 1,22,-1
 80 503 l 1,23,-1
 74 519 l 1,24,-1
 72 525 l 1,25,-1
 68 539 l 1,26,-1
 67 545 l 1,27,-1
 66 552 l 1,28,-1
 67 563 l 1,29,-1
 62 578 l 1,30,-1
 62 599 l 1,31,-1
 67 615 l 1,32,-1
 82 621 l 1,33,-1
 100 609 l 1,34,-1
 116 603 l 1,35,-1
 123 593 l 1,36,-1
 126 581 l 1,0,-1
EndSplineSet
Validated: 1
EndChar

StartChar: uni0628
Encoding: 365 1576 109
Width: 778
Flags: W
LayerCount: 2
Fore
SplineSet
397 -53 m 1,0,-1
 323 -58 l 1,1,-1
 312 -49 l 1,2,-1
 296 -45 l 1,3,-1
 107 -54 l 1,4,-1
 90 -51 l 1,5,-1
 78 -42 l 1,6,-1
 67 -32 l 1,7,-1
 60 -17 l 1,8,-1
 54 45 l 1,9,-1
 58 62 l 1,10,-1
 67 74 l 1,11,-1
 70 89 l 1,12,-1
 68 110 l 1,13,-1
 73 127 l 1,14,-1
 82 138 l 1,15,-1
 92 149 l 1,16,-1
 107 157 l 1,17,-1
 118 164 l 1,18,-1
 134 160 l 1,19,-1
 140 144 l 1,20,-1
 142 123 l 1,21,-1
 139 108 l 1,22,-1
 130 96 l 1,23,-1
 125 79 l 1,24,-1
 127 58 l 1,25,-1
 124 43 l 1,26,-1
 115 31 l 1,27,-1
 126 16 l 1,28,-1
 137 6 l 1,29,-1
 149 -3 l 1,30,-1
 165 -6 l 1,31,-1
 353 13 l 1,32,-1
 369 8 l 1,33,-1
 381 -1 l 1,34,-1
 397 -4 l 1,35,-1
 439 0 l 1,36,-1
 453 6 l 1,37,-1
 463 17 l 1,38,-1
 479 25 l 1,39,-1
 541 31 l 1,40,-1
 556 38 l 1,41,-1
 566 49 l 1,42,-1
 581 56 l 1,43,-1
 596 63 l 1,44,-1
 606 74 l 1,45,-1
 614 86 l 1,46,-1
 624 97 l 1,47,-1
 633 109 l 1,48,-1
 643 120 l 1,49,-1
 652 132 l 1,50,-1
 656 147 l 1,51,-1
 660 164 l 1,52,-1
 675 171 l 1,53,-1
 696 173 l 1,54,-1
 712 169 l 1,55,-1
 718 153 l 1,56,-1
 720 132 l 1,57,-1
 717 117 l 1,58,-1
 708 105 l 1,59,-1
 704 89 l 1,60,-1
 700 73 l 1,61,-1
 686 67 l 1,62,-1
 670 59 l 1,63,-1
 660 48 l 1,64,-1
 651 36 l 1,65,-1
 642 25 l 1,66,-1
 627 19 l 1,67,-1
 612 11 l 1,68,-1
 602 0 l 1,69,-1
 587 -6 l 1,70,-1
 525 -13 l 1,71,-1
 509 -20 l 1,72,-1
 499 -31 l 1,73,-1
 397 -53 l 1,0,-1
424 -104 m 1,74,-1
 452 -118 l 1,75,-1
 446 -153 l 1,76,-1
 414 -175 l 1,77,-1
 398 -172 l 1,78,-1
 386 -163 l 1,79,-1
 375 -153 l 1,80,-1
 372 -131 l 1,81,-1
 396 -105 l 1,82,-1
 424 -104 l 1,74,-1
EndSplineSet
Validated: 1
EndChar

StartChar: uni062D
Encoding: 366 1581 110
Width: 587
Flags: W
LayerCount: 2
Fore
SplineSet
35 265 m 1,0,-1
 21 315 l 1,1,-1
 27 346 l 1,2,-1
 38 356 l 1,3,-1
 48 367 l 1,4,-1
 97 370 l 1,5,-1
 139 360 l 1,6,-1
 221 351 l 1,7,-1
 237 336 l 1,8,-1
 248 326 l 1,9,-1
 289 316 l 1,10,-1
 304 297 l 1,11,-1
 322 292 l 1,12,-1
 336 281 l 1,13,-1
 352 275 l 1,14,-1
 466 258 l 1,15,-1
 480 239 l 1,16,-1
 485 224 l 1,17,-1
 485 161 l 1,18,-1
 480 145 l 1,19,-1
 465 139 l 1,20,-1
 423 139 l 1,21,-1
 407 134 l 1,22,-1
 396 124 l 1,23,-1
 381 118 l 1,24,-1
 360 118 l 1,25,-1
 344 113 l 1,26,-1
 318 120 l 1,27,-1
 308 109 l 1,28,-1
 297 99 l 1,29,-1
 282 93 l 1,30,-1
 261 93 l 1,31,-1
 245 88 l 1,32,-1
 234 78 l 1,33,-1
 209 82 l 1,34,-1
 193 77 l 1,35,-1
 192 57 l 1,36,-1
 177 51 l 1,37,-1
 176 29 l 1,38,-1
 165 19 l 1,39,-1
 171 -6 l 1,40,-1
 165 -21 l 1,41,-1
 165 -42 l 1,42,-1
 171 -58 l 1,43,-1
 196 -59 l 1,44,-1
 207 -69 l 1,45,-1
 223 -75 l 1,46,-1
 422 -134 l 1,47,-1
 437 -128 l 1,48,-1
 448 -118 l 1,49,-1
 464 -113 l 1,50,-1
 489 -92 l 1,51,-1
 497 -77 l 1,52,-1
 499 -62 l 1,53,-1
 499 -48 l 1,54,-1
 501 -33 l 1,55,-1
 501 -18 l 1,56,-1
 503 -3 l 1,57,-1
 512 11 l 1,58,-1
 526 17 l 1,59,-1
 540 9 l 1,60,-1
 567 -23 l 1,61,-1
 574 -38 l 1,62,-1
 574 -53 l 1,63,-1
 572 -68 l 1,64,-1
 565 -82 l 1,65,-1
 556 -96 l 1,66,-1
 554 -111 l 1,67,-1
 547 -125 l 1,68,-1
 531 -139 l 1,69,-1
 469 -181 l 1,70,-1
 458 -191 l 1,71,-1
 443 -197 l 1,72,-1
 181 -138 l 1,73,-1
 165 -132 l 1,74,-1
 122 -91 l 1,75,-1
 112 -80 l 1,76,-1
 106 -64 l 1,77,-1
 107 35 l 1,78,-1
 113 50 l 1,79,-1
 123 61 l 1,80,-1
 134 71 l 1,81,-1
 128 94 l 1,82,-1
 139 104 l 1,83,-1
 155 109 l 1,84,-1
 170 115 l 1,85,-1
 182 130 l 1,86,-1
 198 135 l 1,87,-1
 213 141 l 1,88,-1
 224 151 l 1,89,-1
 240 156 l 1,90,-1
 255 162 l 1,91,-1
 280 167 l 1,92,-1
 296 172 l 1,93,-1
 312 166 l 1,94,-1
 352 174 l 1,95,-1
 362 185 l 1,96,-1
 362 195 l 1,97,-1
 375 200 l 1,98,-1
 273 233 l 1,99,-1
 257 258 l 1,100,-1
 207 272 l 1,101,-1
 171 288 l 1,102,-1
 148 296 l 1,103,-1
 133 290 l 1,104,-1
 114 300 l 1,105,-1
 103 290 l 1,106,-1
 111 268 l 1,107,-1
 117 257 l 1,108,-1
 106 242 l 1,109,-1
 72 242 l 1,110,-1
 58 246 l 1,111,-1
 42 250 l 1,112,-1
 35 265 l 1,0,-1
EndSplineSet
Validated: 1
EndChar

StartChar: uni062F
Encoding: 367 1583 111
Width: 295
Flags: W
LayerCount: 2
Fore
SplineSet
211 -9 m 1,0,-1
 199 -21 l 1,1,-1
 188 -32 l 1,2,-1
 171 -30 l 1,3,-1
 155 -29 l 1,4,-1
 144 -42 l 1,5,-1
 132 -53 l 1,6,-1
 118 -59 l 1,7,-1
 104 -63 l 1,8,-1
 90 -69 l 1,9,-1
 79 -81 l 1,10,-1
 67 -92 l 1,11,-1
 54 -98 l 1,12,-1
 40 -103 l 1,13,-1
 23 -101 l 1,14,-1
 11 -90 l 1,15,-1
 13 -74 l 1,16,-1
 22 -55 l 1,17,-1
 33 -42 l 1,18,-1
 47 -37 l 1,19,-1
 59 -26 l 1,20,-1
 70 -13 l 1,21,-1
 83 -7 l 1,22,-1
 98 -3 l 1,23,-1
 111 3 l 1,24,-1
 123 14 l 1,25,-1
 134 27 l 1,26,-1
 148 32 l 1,27,-1
 162 37 l 1,28,-1
 176 43 l 1,29,-1
 188 54 l 1,30,-1
 189 71 l 1,31,-1
 184 85 l 1,32,-1
 179 99 l 1,33,-1
 174 113 l 1,34,-1
 168 127 l 1,35,-1
 164 141 l 1,36,-1
 158 154 l 1,37,-1
 153 169 l 1,38,-1
 148 182 l 1,39,-1
 136 194 l 1,40,-1
 124 205 l 1,41,-1
 126 221 l 1,42,-1
 135 240 l 1,43,-1
 146 252 l 1,44,-1
 162 252 l 1,45,-1
 181 243 l 1,46,-1
 193 231 l 1,47,-1
 199 217 l 1,48,-1
 203 203 l 1,49,-1
 209 189 l 1,50,-1
 214 175 l 1,51,-1
 219 161 l 1,52,-1
 231 150 l 1,53,-1
 243 138 l 1,54,-1
 249 125 l 1,55,-1
 253 110 l 1,56,-1
 259 97 l 1,57,-1
 264 83 l 1,58,-1
 262 66 l 1,59,-1
 236 8 l 1,60,-1
 224 -3 l 1,61,-1
 211 -9 l 1,0,-1
EndSplineSet
Validated: 1
EndChar

StartChar: uni0631
Encoding: 368 1585 112
Width: 442
Flags: W
LayerCount: 2
Fore
SplineSet
312 -156 m 1,0,-1
 280 -164 l 1,1,-1
 267 -182 l 1,2,-1
 249 -184 l 1,3,-1
 228 -199 l 1,4,-1
 210 -200 l 1,5,-1
 187 -216 l 1,6,-1
 170 -226 l 1,7,-1
 153 -234 l 1,8,-1
 134 -229 l 1,9,-1
 115 -225 l 1,10,-1
 97 -226 l 1,11,-1
 79 -229 l 1,12,-1
 61 -231 l 1,13,-1
 41 -225 l 1,14,-1
 30 -213 l 1,15,-1
 36 -197 l 1,16,-1
 66 -164 l 1,17,-1
 83 -154 l 1,18,-1
 102 -158 l 1,19,-1
 122 -163 l 1,20,-1
 140 -162 l 1,21,-1
 158 -159 l 1,22,-1
 176 -157 l 1,23,-1
 194 -154 l 1,24,-1
 212 -153 l 1,25,-1
 238 -125 l 1,26,-1
 256 -124 l 1,27,-1
 274 -121 l 1,28,-1
 292 -119 l 1,29,-1
 319 -94 l 1,30,-1
 341 -64 l 1,31,-1
 357 -23 l 1,32,-1
 361 -4 l 1,33,-1
 350 8 l 1,34,-1
 346 24 l 1,35,-1
 349 45 l 1,36,-1
 344 61 l 1,37,-1
 333 73 l 1,38,-1
 329 89 l 1,39,-1
 324 105 l 1,40,-1
 313 118 l 1,41,-1
 309 133 l 1,42,-1
 304 150 l 1,43,-1
 294 162 l 1,44,-1
 282 173 l 1,45,-1
 271 185 l 1,46,-1
 267 200 l 1,47,-1
 273 242 l 1,48,-1
 281 257 l 1,49,-1
 300 262 l 1,50,-1
 319 254 l 1,51,-1
 324 237 l 1,52,-1
 328 222 l 1,53,-1
 339 210 l 1,54,-1
 351 199 l 1,55,-1
 361 187 l 1,56,-1
 366 170 l 1,57,-1
 370 155 l 1,58,-1
 381 142 l 1,59,-1
 386 126 l 1,60,-1
 390 110 l 1,61,-1
 401 98 l 1,62,-1
 406 82 l 1,63,-1
 403 61 l 1,64,-1
 407 45 l 1,65,-1
 417 33 l 1,66,-1
 408 -48 l 1,67,-1
 373 -119 l 1,68,-1
 344 -140 l 1,69,-1
 312 -156 l 1,0,-1
EndSplineSet
Validated: 1
EndChar

StartChar: uni0633
Encoding: 369 1587 113
Width: 1041
Flags: W
LayerCount: 2
Fore
SplineSet
858 85 m 1,0,-1
 873 101 l 1,1,-1
 873 122 l 1,2,-1
 878 138 l 1,3,-1
 888 149 l 1,4,-1
 894 164 l 1,5,-1
 894 227 l 1,6,-1
 899 243 l 1,7,-1
 905 251 l 1,8,-1
 911 259 l 1,9,-1
 914 266 l 1,10,-1
 929 272 l 1,11,-1
 945 266 l 1,12,-1
 951 250 l 1,13,-1
 951 187 l 1,14,-1
 945 172 l 1,15,-1
 935 161 l 1,16,-1
 930 145 l 1,17,-1
 930 124 l 1,18,-1
 918 108 l 1,19,-1
 922 96 l 1,20,-1
 925 82 l 1,21,-1
 921 68 l 1,22,-1
 919 57 l 1,23,-1
 910 45 l 1,24,-1
 893 42 l 1,25,-1
 851 32 l 1,26,-1
 818 29 l 1,27,-1
 779 29 l 1,28,-1
 774 21 l 1,29,-1
 761 12 l 1,30,-1
 685 -25 l 1,31,-1
 668 -24 l 1,32,-1
 655 -18 l 1,33,-1
 638 -16 l 1,34,-1
 622 -16 l 1,35,-1
 608 -9 l 1,36,-1
 596 -1 l 1,37,-1
 582 5 l 1,38,-1
 566 7 l 1,39,-1
 550 7 l 1,40,-1
 536 13 l 1,41,-1
 523 21 l 1,42,-1
 514 34 l 1,43,-1
 513 36 l 1,44,-1
 510 -3 l 1,45,-1
 510 -20 l 1,46,-1
 503 -33 l 1,47,-1
 503 -50 l 1,48,-1
 497 -63 l 1,49,-1
 489 -76 l 1,50,-1
 483 -89 l 1,51,-1
 469 -111 l 1,52,-1
 453 -116 l 1,53,-1
 444 -128 l 1,54,-1
 438 -130 l 1,55,-1
 430 -143 l 1,56,-1
 424 -157 l 1,57,-1
 416 -170 l 1,58,-1
 408 -175 l 1,59,-1
 382 -183 l 1,60,-1
 369 -193 l 1,61,-1
 287 -204 l 1,62,-1
 270 -203 l 1,63,-1
 257 -196 l 1,64,-1
 241 -196 l 1,65,-1
 161 -221 l 1,66,-1
 144 -220 l 1,67,-1
 130 -214 l 1,68,-1
 114 -213 l 1,69,-1
 97 -212 l 1,70,-1
 87 -199 l 1,71,-1
 56 -99 l 1,72,-1
 57 -83 l 1,73,-1
 63 -69 l 1,74,-1
 63 -52 l 1,75,-1
 51 -12 l 1,76,-1
 52 4 l 1,77,-1
 58 17 l 1,78,-1
 58 34 l 1,79,-1
 52 54 l 1,80,-1
 54 70 l 1,81,-1
 60 84 l 1,82,-1
 60 101 l 1,83,-1
 54 121 l 1,84,-1
 55 137 l 1,85,-1
 61 150 l 1,86,-1
 61 167 l 1,87,-1
 55 187 l 1,88,-1
 56 203 l 1,89,-1
 63 217 l 1,90,-1
 63 233 l 1,91,-1
 64 249 l 1,92,-1
 70 263 l 1,93,-1
 78 276 l 1,94,-1
 84 289 l 1,95,-1
 91 302 l 1,96,-1
 105 312 l 1,97,-1
 125 318 l 1,98,-1
 141 317 l 1,99,-1
 150 305 l 1,100,-1
 150 288 l 1,101,-1
 144 274 l 1,102,-1
 143 258 l 1,103,-1
 143 241 l 1,104,-1
 136 228 l 1,105,-1
 135 212 l 1,106,-1
 135 195 l 1,107,-1
 129 182 l 1,108,-1
 128 166 l 1,109,-1
 128 149 l 1,110,-1
 121 135 l 1,111,-1
 120 119 l 1,112,-1
 126 99 l 1,113,-1
 126 82 l 1,114,-1
 120 69 l 1,115,-1
 119 53 l 1,116,-1
 125 33 l 1,117,-1
 125 16 l 1,118,-1
 119 3 l 1,119,-1
 117 -14 l 1,120,-1
 130 -54 l 1,121,-1
 130 -70 l 1,122,-1
 123 -84 l 1,123,-1
 122 -100 l 1,124,-1
 135 -140 l 1,125,-1
 145 -154 l 1,126,-1
 158 -161 l 1,127,-1
 171 -167 l 1,128,-1
 188 -168 l 1,129,-1
 265 -146 l 1,130,-1
 281 -146 l 1,131,-1
 307 -152 l 1,132,-1
 326 -152 l 1,133,-1
 342 -147 l 1,134,-1
 353 -141 l 1,135,-1
 365 -134 l 1,136,-1
 371 -129 l 1,137,-1
 380 -119 l 1,138,-1
 392 -112 l 1,139,-1
 409 -101 l 1,140,-1
 416 -88 l 1,141,-1
 423 -75 l 1,142,-1
 423 -58 l 1,143,-1
 424 -42 l 1,144,-1
 437 -28 l 1,145,-1
 438 -12 l 1,146,-1
 444 1 l 1,147,-1
 458 14 l 1,148,-1
 468 45 l 1,149,-1
 469 61 l 1,150,-1
 476 75 l 1,151,-1
 476 91 l 1,152,-1
 477 107 l 1,153,-1
 503 227 l 1,154,-1
 510 240 l 1,155,-1
 517 250 l 1,156,-1
 527 263 l 1,157,-1
 539 280 l 1,158,-1
 554 285 l 1,159,-1
 573 281 l 1,160,-1
 578 275 l 1,161,-1
 578 258 l 1,162,-1
 577 233 l 1,163,-1
 576 218 l 1,164,-1
 552 85 l 1,165,-1
 562 72 l 1,166,-1
 575 64 l 1,167,-1
 588 58 l 1,168,-1
 601 50 l 1,169,-1
 614 43 l 1,170,-1
 627 36 l 1,171,-1
 640 29 l 1,172,-1
 657 29 l 1,173,-1
 715 47 l 1,174,-1
 728 56 l 1,175,-1
 729 72 l 1,176,-1
 729 84 l 1,177,-1
 730 101 l 1,178,-1
 737 114 l 1,179,-1
 737 130 l 1,180,-1
 732 159 l 1,181,-1
 733 176 l 1,182,-1
 727 206 l 1,183,-1
 734 228 l 1,184,-1
 745 246 l 1,185,-1
 750 262 l 1,186,-1
 765 268 l 1,187,-1
 790 254 l 1,188,-1
 796 238 l 1,189,-1
 796 138 l 1,190,-1
 799 128 l 1,191,-1
 798 112 l 1,192,-1
 796 108 l 1,193,-1
 796 91 l 1,194,-1
 801 76 l 1,195,-1
 811 76 l 1,196,-1
 832 76 l 1,197,-1
 858 85 l 1,0,-1
EndSplineSet
Validated: 1025
EndChar

StartChar: uni0635
Encoding: 370 1589 114
Width: 1041
Flags: W
LayerCount: 2
Fore
SplineSet
830 307 m 1,0,-1
 853 300 l 1,1,-1
 889 294 l 1,2,-1
 929 272 l 1,3,-1
 945 266 l 1,4,-1
 951 250 l 1,5,-1
 951 187 l 1,6,-1
 945 172 l 1,7,-1
 935 161 l 1,8,-1
 930 145 l 1,9,-1
 930 124 l 1,10,-1
 918 108 l 1,11,-1
 922 96 l 1,12,-1
 925 82 l 1,13,-1
 921 68 l 1,14,-1
 919 57 l 1,15,-1
 910 45 l 1,16,-1
 893 42 l 1,17,-1
 851 32 l 1,18,-1
 818 29 l 1,19,-1
 779 29 l 1,20,-1
 774 21 l 1,21,-1
 761 12 l 1,22,-1
 734 15 l 1,23,-1
 717 15 l 1,24,-1
 704 21 l 1,25,-1
 688 23 l 1,26,-1
 671 23 l 1,27,-1
 658 30 l 1,28,-1
 645 38 l 1,29,-1
 632 44 l 1,30,-1
 616 46 l 1,31,-1
 599 46 l 1,32,-1
 586 53 l 1,33,-1
 573 60 l 1,34,-1
 539 55 l 1,35,-1
 533 40 l 1,36,-1
 510 -3 l 1,37,-1
 510 -20 l 1,38,-1
 503 -33 l 1,39,-1
 503 -50 l 1,40,-1
 497 -63 l 1,41,-1
 489 -76 l 1,42,-1
 483 -89 l 1,43,-1
 469 -111 l 1,44,-1
 453 -116 l 1,45,-1
 444 -128 l 1,46,-1
 438 -130 l 1,47,-1
 430 -143 l 1,48,-1
 424 -157 l 1,49,-1
 416 -170 l 1,50,-1
 408 -175 l 1,51,-1
 382 -183 l 1,52,-1
 369 -193 l 1,53,-1
 287 -204 l 1,54,-1
 270 -203 l 1,55,-1
 257 -196 l 1,56,-1
 241 -196 l 1,57,-1
 161 -221 l 1,58,-1
 144 -220 l 1,59,-1
 130 -214 l 1,60,-1
 114 -213 l 1,61,-1
 97 -212 l 1,62,-1
 87 -199 l 1,63,-1
 56 -99 l 1,64,-1
 57 -83 l 1,65,-1
 63 -69 l 1,66,-1
 63 -52 l 1,67,-1
 51 -12 l 1,68,-1
 52 4 l 1,69,-1
 58 17 l 1,70,-1
 58 34 l 1,71,-1
 52 54 l 1,72,-1
 54 70 l 1,73,-1
 60 84 l 1,74,-1
 60 101 l 1,75,-1
 54 121 l 1,76,-1
 55 137 l 1,77,-1
 61 150 l 1,78,-1
 61 167 l 1,79,-1
 55 187 l 1,80,-1
 56 203 l 1,81,-1
 63 217 l 1,82,-1
 63 233 l 1,83,-1
 64 249 l 1,84,-1
 70 263 l 1,85,-1
 78 276 l 1,86,-1
 84 289 l 1,87,-1
 91 302 l 1,88,-1
 105 312 l 1,89,-1
 125 318 l 1,90,-1
 141 317 l 1,91,-1
 150 305 l 1,92,-1
 150 288 l 1,93,-1
 144 274 l 1,94,-1
 143 258 l 1,95,-1
 143 241 l 1,96,-1
 136 228 l 1,97,-1
 135 212 l 1,98,-1
 135 195 l 1,99,-1
 129 182 l 1,100,-1
 128 166 l 1,101,-1
 128 149 l 1,102,-1
 121 135 l 1,103,-1
 120 119 l 1,104,-1
 126 99 l 1,105,-1
 126 82 l 1,106,-1
 120 69 l 1,107,-1
 119 53 l 1,108,-1
 125 33 l 1,109,-1
 125 16 l 1,110,-1
 119 3 l 1,111,-1
 117 -14 l 1,112,-1
 130 -54 l 1,113,-1
 130 -70 l 1,114,-1
 123 -84 l 1,115,-1
 122 -100 l 1,116,-1
 135 -140 l 1,117,-1
 145 -154 l 1,118,-1
 158 -161 l 1,119,-1
 171 -167 l 1,120,-1
 188 -168 l 1,121,-1
 265 -146 l 1,122,-1
 281 -146 l 1,123,-1
 307 -152 l 1,124,-1
 326 -152 l 1,125,-1
 342 -147 l 1,126,-1
 353 -141 l 1,127,-1
 365 -134 l 1,128,-1
 371 -129 l 1,129,-1
 380 -119 l 1,130,-1
 392 -112 l 1,131,-1
 409 -101 l 1,132,-1
 416 -88 l 1,133,-1
 423 -75 l 1,134,-1
 423 -58 l 1,135,-1
 424 -42 l 1,136,-1
 437 -28 l 1,137,-1
 438 -12 l 1,138,-1
 444 1 l 1,139,-1
 458 14 l 1,140,-1
 468 45 l 1,141,-1
 469 61 l 1,142,-1
 476 75 l 1,143,-1
 476 91 l 1,144,-1
 477 107 l 1,145,-1
 503 227 l 1,146,-1
 510 240 l 1,147,-1
 517 250 l 1,148,-1
 527 263 l 1,149,-1
 539 280 l 1,150,-1
 554 285 l 1,151,-1
 573 281 l 1,152,-1
 578 275 l 1,153,-1
 578 258 l 1,154,-1
 577 233 l 1,155,-1
 576 218 l 1,156,-1
 561 149 l 1,157,-1
 563 140 l 1,158,-1
 582 155 l 1,159,-1
 591 162 l 1,160,-1
 597 171 l 1,161,-1
 607 193 l 1,162,-1
 620 200 l 1,163,-1
 630 203 l 1,164,-1
 637 209 l 1,165,-1
 645 214 l 1,166,-1
 652 217 l 1,167,-1
 665 225 l 1,168,-1
 675 232 l 1,169,-1
 690 241 l 1,170,-1
 704 243 l 1,171,-1
 719 252 l 1,172,-1
 740 273 l 1,173,-1
 753 282 l 1,174,-1
 774 304 l 1,175,-1
 796 311 l 1,176,-1
 804 310 l 1,177,-1
 818 312 l 1,178,-1
 828 313 l 1,179,-1
 830 307 l 1,0,-1
746 73 m 1,180,-1
 849 99 l 1,181,-1
 849 120 l 1,182,-1
 854 136 l 1,183,-1
 864 147 l 1,184,-1
 870 162 l 1,185,-1
 873 210 l 1,186,-1
 857 241 l 1,187,-1
 815 248 l 1,188,-1
 769 222 l 1,189,-1
 741 203 l 1,190,-1
 694 185 l 1,191,-1
 678 168 l 1,192,-1
 671 160 l 1,193,-1
 658 151 l 1,194,-1
 653 150 l 1,195,-1
 639 114 l 1,196,-1
 628 106 l 1,197,-1
 634 98 l 1,198,-1
 706 70 l 1,199,-1
 746 73 l 1,180,-1
EndSplineSet
Validated: 1025
EndChar

StartChar: uni0637
Encoding: 371 1591 115
Width: 571
Flags: W
LayerCount: 2
Fore
SplineSet
515 58 m 1,0,-1
 500 52 l 1,1,-1
 495 36 l 1,2,-1
 495 15 l 1,3,-1
 489 0 l 1,4,-1
 479 -11 l 1,5,-1
 468 -21 l 1,6,-1
 458 -32 l 1,7,-1
 447 -42 l 1,8,-1
 401 -73 l 1,9,-1
 200 -73 l 1,10,-1
 185 -79 l 1,11,-1
 174 -89 l 1,12,-1
 157 -67 l 1,13,-1
 136 -67 l 1,14,-1
 121 -73 l 1,15,-1
 110 -83 l 1,16,-1
 100 -94 l 1,17,-1
 89 -104 l 1,18,-1
 73 -109 l 1,19,-1
 58 -104 l 1,20,-1
 53 -89 l 1,21,-1
 47 -73 l 1,22,-1
 37 -62 l 1,23,-1
 32 -47 l 1,24,-1
 32 -5 l 1,25,-1
 37 11 l 1,26,-1
 52 17 l 1,27,-1
 68 22 l 1,28,-1
 79 32 l 1,29,-1
 89 43 l 1,30,-1
 95 58 l 1,31,-1
 100 74 l 1,32,-1
 110 85 l 1,33,-1
 116 100 l 1,34,-1
 116 205 l 1,35,-1
 121 221 l 1,36,-1
 131 232 l 1,37,-1
 137 247 l 1,38,-1
 137 352 l 1,39,-1
 142 368 l 1,40,-1
 152 379 l 1,41,-1
 158 394 l 1,42,-1
 158 457 l 1,43,-1
 163 473 l 1,44,-1
 173 484 l 1,45,-1
 184 494 l 1,46,-1
 199 500 l 1,47,-1
 215 494 l 1,48,-1
 221 478 l 1,49,-1
 221 457 l 1,50,-1
 215 442 l 1,51,-1
 205 431 l 1,52,-1
 200 415 l 1,53,-1
 200 352 l 1,54,-1
 194 337 l 1,55,-1
 184 326 l 1,56,-1
 179 310 l 1,57,-1
 179 205 l 1,58,-1
 184 190 l 1,59,-1
 199 185 l 1,60,-1
 410 184 l 1,61,-1
 426 178 l 1,62,-1
 437 168 l 1,63,-1
 452 163 l 1,64,-1
 468 157 l 1,65,-1
 479 147 l 1,66,-1
 489 136 l 1,67,-1
 500 126 l 1,68,-1
 515 121 l 1,69,-1
 531 115 l 1,70,-1
 537 99 l 1,71,-1
 537 78 l 1,72,-1
 531 63 l 1,73,-1
 515 58 l 1,0,-1
447 73 m 1,74,-1
 437 84 l 1,75,-1
 426 94 l 1,76,-1
 416 105 l 1,77,-1
 405 115 l 1,78,-1
 389 121 l 1,79,-1
 347 121 l 1,80,-1
 226 116 l 1,81,-1
 215 106 l 1,82,-1
 205 95 l 1,83,-1
 194 85 l 1,84,-1
 178 80 l 1,85,-1
 163 74 l 1,86,-1
 158 58 l 1,87,-1
 158 37 l 1,88,-1
 164 -5 l 1,89,-1
 179 -10 l 1,90,-1
 390 -11 l 1,91,-1
 406 -6 l 1,92,-1
 417 4 l 1,93,-1
 426 42 l 1,94,-1
 437 52 l 1,95,-1
 447 63 l 1,96,-1
 447 73 l 1,74,-1
173 179 m 1,97,-1
 163 179 l 1,98,-1
 163 169 l 1,99,-1
 173 169 l 1,100,-1
 173 179 l 1,97,-1
152 11 m 1,101,-1
 142 11 l 1,102,-1
 142 1 l 1,103,-1
 152 1 l 1,104,-1
 152 11 l 1,101,-1
EndSplineSet
Validated: 1
EndChar

StartChar: uni0639
Encoding: 372 1593 116
Width: 481
Flags: W
LayerCount: 2
Fore
SplineSet
62 -154 m 1,0,-1
 40 -122 l 1,1,-1
 34 -107 l 1,2,-1
 46 61 l 1,3,-1
 52 77 l 1,4,-1
 62 88 l 1,5,-1
 73 98 l 1,6,-1
 83 109 l 1,7,-1
 83 119 l 1,8,-1
 73 130 l 1,9,-1
 67 145 l 1,10,-1
 67 229 l 1,11,-1
 73 245 l 1,12,-1
 83 256 l 1,13,-1
 94 266 l 1,14,-1
 109 283 l 1,15,-1
 209 376 l 1,16,-1
 224 383 l 1,17,-1
 239 376 l 1,18,-1
 254 362 l 1,19,-1
 277 327 l 1,20,-1
 278 312 l 1,21,-1
 271 295 l 1,22,-1
 265 281 l 1,23,-1
 250 272 l 1,24,-1
 221 292 l 1,25,-1
 206 285 l 1,26,-1
 131 225 l 1,27,-1
 115 203 l 1,28,-1
 115 193 l 1,29,-1
 125 182 l 1,30,-1
 136 172 l 1,31,-1
 146 161 l 1,32,-1
 157 151 l 1,33,-1
 167 140 l 1,34,-1
 178 130 l 1,35,-1
 198 137 l 1,36,-1
 223 154 l 1,37,-1
 249 158 l 1,38,-1
 260 148 l 1,39,-1
 276 143 l 1,40,-1
 291 137 l 1,41,-1
 296 121 l 1,42,-1
 296 100 l 1,43,-1
 291 85 l 1,44,-1
 276 80 l 1,45,-1
 131 41 l 1,46,-1
 115 35 l 1,47,-1
 104 25 l 1,48,-1
 94 14 l 1,49,-1
 92 -70 l 1,50,-1
 98 -85 l 1,51,-1
 108 -96 l 1,52,-1
 119 -106 l 1,53,-1
 135 -111 l 1,54,-1
 167 -112 l 1,55,-1
 182 -118 l 1,56,-1
 193 -128 l 1,57,-1
 209 -133 l 1,58,-1
 251 -133 l 1,59,-1
 266 -139 l 1,60,-1
 277 -149 l 1,61,-1
 293 -154 l 1,62,-1
 313 -150 l 1,63,-1
 328 -144 l 1,64,-1
 343 -145 l 1,65,-1
 358 -138 l 1,66,-1
 398 -86 l 1,67,-1
 413 -81 l 1,68,-1
 427 -90 l 1,69,-1
 441 -106 l 1,70,-1
 447 -120 l 1,71,-1
 439 -134 l 1,72,-1
 383 -199 l 1,73,-1
 368 -206 l 1,74,-1
 353 -206 l 1,75,-1
 338 -211 l 1,76,-1
 272 -217 l 1,77,-1
 256 -212 l 1,78,-1
 245 -202 l 1,79,-1
 230 -196 l 1,80,-1
 188 -196 l 1,81,-1
 172 -191 l 1,82,-1
 161 -181 l 1,83,-1
 146 -175 l 1,84,-1
 104 -175 l 1,85,-1
 88 -170 l 1,86,-1
 77 -160 l 1,87,-1
 62 -154 l 1,0,-1
EndSplineSet
Validated: 1
EndChar

